<?xml version="1.0" encoding="UTF-8" standalone="no"?>
<!-- Created with Inkscape (http://www.inkscape.org/) -->

<svg
   width="83.834999mm"
   height="37.73mm"
   viewBox="0 0 83.835001 37.73"
   version="1.1"
   id="svg1779"
   inkscape:version="1.2.2 (b0a8486541, 2022-12-01)"
   sodipodi:docname="logo-rare-penny-back.svg"
   xmlns:inkscape="http://www.inkscape.org/namespaces/inkscape"
   xmlns:sodipodi="http://sodipodi.sourceforge.net/DTD/sodipodi-0.dtd"
   xmlns="http://www.w3.org/2000/svg"
   xmlns:svg="http://www.w3.org/2000/svg">
  <sodipodi:namedview
     id="namedview1781"
     pagecolor="#ffffff"
     bordercolor="#000000"
     borderopacity="0.25"
     inkscape:showpageshadow="2"
     inkscape:pageopacity="0.0"
     inkscape:pagecheckerboard="0"
     inkscape:deskcolor="#d1d1d1"
     inkscape:document-units="mm"
     showgrid="false"
     inkscape:zoom="1.8721465"
     inkscape:cx="331.17066"
     inkscape:cy="131.1329"
     inkscape:window-width="1920"
     inkscape:window-height="1044"
     inkscape:window-x="0"
     inkscape:window-y="0"
     inkscape:window-maximized="1"
     inkscape:current-layer="g94" />
  <defs
     id="defs1776">
    <clipPath
       clipPathUnits="userSpaceOnUse"
       id="clipPath98">
      <path
         d="M 0,6822.56 H 1920 V 0 H 0 Z"
         id="path96" />
    </clipPath>
  </defs>
  <g
     inkscape:label="Layer 1"
     inkscape:groupmode="layer"
     id="layer1">
    <g
       id="g94"
       clip-path="url(#clipPath98)"
       transform="matrix(0.35277777,0,0,-0.35277777,-272.03643,2398.4899)">
      <g
         id="g340"
         transform="translate(-70.504884)">
        <g
           id="g132"
           transform="translate(862.479,6789.3862)">
          <path
             d="m 0,0 c 0,-1.173 0.065,-1.966 1.153,-1.966 v -0.286 h -4.674 v 0.286 c 1.089,0 1.153,0.793 1.153,1.966 v 7.041 c 0,1.175 -0.064,1.967 -1.153,1.967 V 9.294 H 1.153 V 9.008 C 0.065,9.008 0,8.216 0,7.041 Z M 2.257,4.631 C 4.883,0.064 6.243,-1.76 6.932,-1.966 V -2.252 C 6.355,-2.315 5.41,-2.315 5.042,-2.315 c -1.552,0 -2.081,1.014 -4.69,5.773 l 2.513,3.203 c 0.657,0.841 0.993,1.348 0.993,1.871 0,0.349 -0.192,0.445 -0.497,0.476 V 9.294 H 6.643 V 9.008 C 5.939,8.834 4.978,7.977 3.602,6.265 Z"
             style="fill:#f9f7f6;fill-opacity:1;fill-rule:nonzero;stroke:none"
             id="path134" />
        </g>
        <g
           id="g136"
           transform="translate(877.8243,6790.877)">
          <path
             d="M 0,0 V 5.551 C 0,6.725 -0.065,7.518 -1.153,7.518 V 7.803 H 3.538 V 7.518 C 2.449,7.518 2.385,6.725 2.385,5.551 V 0.016 c 0,-2.157 0.832,-2.966 2.465,-2.966 1.456,0 2.481,0.888 2.481,3.013 V 4.6 c 0,1.49 -0.192,2.775 -1.057,2.918 V 7.803 H 9.155 V 7.518 C 8.307,7.375 8.227,6.09 8.227,4.6 V 0.063 C 8.227,-2.632 6.802,-3.933 4.226,-3.933 1.537,-3.933 0,-2.775 0,0"
             style="fill:#f9f7f6;fill-opacity:1;fill-rule:nonzero;stroke:none"
             id="path138" />
        </g>
        <g
           id="g140"
           transform="translate(895.0579,6787.1348)">
          <path
             d="m 0,0 v 0.286 c 1.088,0 1.153,0.792 1.153,1.966 V 9.293 C 1.153,10.467 1.088,11.26 0,11.26 v 0.285 H 4.674 V 11.26 C 3.586,11.26 3.521,10.467 3.521,9.293 V 1.347 c 0,-0.411 0.144,-0.665 0.561,-0.665 h 0.512 c 1.44,0 2.257,0.65 3.425,2.728 H 8.307 L 7.843,0 Z"
             style="fill:#f9f7f6;fill-opacity:1;fill-rule:nonzero;stroke:none"
             id="path142" />
        </g>
        <g
           id="g144"
           transform="translate(919.5257,6789.1646)">
          <path
             d="M 0,0 C 0.464,-1.285 0.784,-1.681 1.457,-1.745 V -2.03 h -4.739 v 0.285 c 0.945,0.064 1.233,0.397 0.913,1.316 L -2.961,1.316 H -6.386 L -6.435,1.174 c -0.656,-1.856 -0.559,-2.712 0.432,-2.919 V -2.03 h -2.768 v 0.285 c 0.384,0.207 0.799,1.079 1.473,3.014 l 2.961,8.373 h 0.88 z m -6.114,2.109 h 2.865 l -1.409,4.14 z"
             style="fill:#f9f7f6;fill-opacity:1;fill-rule:nonzero;stroke:none"
             id="path146" />
        </g>
        <g
           id="g148"
           transform="translate(938.473,6787.4199)">
          <path
             d="m 0,0 v -0.286 c -0.32,-0.031 -1.328,-0.063 -1.873,-0.063 -1.313,0 -1.536,0.397 -3.569,4.853 -0.24,0.539 -0.433,0.603 -0.945,0.603 H -6.755 V 1.966 C -6.755,0.793 -6.659,0 -5.57,0 v -0.286 h -4.706 V 0 c 1.089,0 1.152,0.793 1.152,1.966 v 7.041 c 0,1.175 -0.063,1.968 -1.152,1.968 v 0.286 h 4.85 c 2.705,0 4.081,-1.128 4.081,-2.967 0,-1.522 -1.072,-2.522 -2.577,-2.902 V 5.361 C -3.458,5.091 -3.041,4.504 -2.625,3.711 -0.96,0.555 -0.656,0.207 0,0 m -6.755,5.884 h 0.832 c 1.329,0 2.146,0.586 2.146,2.236 0,1.697 -0.641,2.458 -2.034,2.458 h -0.335 c -0.385,0 -0.609,-0.191 -0.609,-0.571 z"
             style="fill:#f9f7f6;fill-opacity:1;fill-rule:nonzero;stroke:none"
             id="path150" />
        </g>
        <g
           id="g152"
           transform="translate(954.17,6789.1646)">
          <path
             d="M 0,0 C 0.464,-1.285 0.784,-1.681 1.457,-1.745 V -2.03 h -4.739 v 0.285 c 0.945,0.064 1.233,0.397 0.913,1.316 L -2.961,1.316 H -6.386 L -6.435,1.174 c -0.656,-1.856 -0.559,-2.712 0.432,-2.919 V -2.03 h -2.769 v 0.285 c 0.385,0.207 0.8,1.079 1.474,3.014 l 2.961,8.373 h 0.88 z m -6.115,2.109 h 2.866 l -1.409,4.14 z"
             style="fill:#f9f7f6;fill-opacity:1;fill-rule:nonzero;stroke:none"
             id="path154" />
        </g>
        <g
           id="g156"
           transform="translate(981.0529,6790.1479)">
          <path
             d="m 0,0 -0.4,-3.014 h -8.419 v 0.286 c 1.088,0 1.151,0.793 1.151,1.967 V 6.28 c 0,1.174 -0.063,1.967 -1.151,1.967 v 0.286 h 8.178 L -0.417,5.836 H -0.705 C -1.681,7.437 -2.208,7.851 -3.984,7.851 H -5.297 V 3.377 h 0.944 c 1.568,0 1.856,0.493 2.24,1.349 h 0.288 v -3.6 h -0.288 c -0.399,0.936 -0.672,1.49 -2.24,1.49 h -0.944 v -4.218 c 0,-0.443 0.126,-0.73 0.638,-0.73 h 0.881 c 1.618,0 2.369,0.318 3.489,2.332 z"
             style="fill:#f9f7f6;fill-opacity:1;fill-rule:nonzero;stroke:none"
             id="path158" />
        </g>
        <g
           id="g160"
           transform="translate(989.3073,6787.5156)">
          <path
             d="M 0,0 -0.111,2.917 H 0.176 C 0.944,1.157 1.841,0.142 3.33,0.142 c 1.216,0 2,0.778 2,1.839 0,1.143 -0.849,1.745 -2.144,2.348 L 2.353,4.726 C 1.441,5.17 0.144,5.947 0.144,7.865 c 0,2.014 1.408,3.489 3.473,3.489 0.88,0 2.193,-0.27 2.962,-0.555 V 8.468 H 6.291 c -0.816,1.49 -1.537,2.173 -2.77,2.173 -1.072,0 -1.696,-0.714 -1.696,-1.665 0,-1.063 0.641,-1.523 1.665,-2.014 L 4.337,6.566 C 5.714,5.915 7.011,5.17 7.011,3.204 7.011,0.966 5.41,-0.571 3.122,-0.571 2.193,-0.571 0.784,-0.317 0,0"
             style="fill:#f9f7f6;fill-opacity:1;fill-rule:nonzero;stroke:none"
             id="path162" />
        </g>
        <g
           id="g164"
           transform="translate(1013.5511,6795.9839)">
          <path
             d="m 0,0 h -0.287 c -0.977,1.601 -1.441,2.015 -2.848,2.015 h -0.386 v -8.612 c 0,-1.174 0.064,-1.966 1.152,-1.966 V -8.85 h -4.674 v 0.287 c 1.089,0 1.153,0.792 1.153,1.966 V 2.015 H -6.273 C -7.666,2.015 -8.147,1.601 -9.123,0 h -0.288 l 0.24,2.697 h 8.932 z"
             style="fill:#f9f7f6;fill-opacity:1;fill-rule:nonzero;stroke:none"
             id="path166" />
        </g>
        <g
           id="g168"
           transform="translate(1028.5771,6789.1646)">
          <path
             d="M 0,0 C 0.464,-1.285 0.785,-1.681 1.457,-1.745 V -2.03 h -4.739 v 0.285 c 0.944,0.064 1.233,0.397 0.913,1.316 L -2.961,1.316 H -6.387 L -6.435,1.174 c -0.656,-1.856 -0.56,-2.712 0.432,-2.919 V -2.03 h -2.768 v 0.285 c 0.383,0.207 0.799,1.079 1.472,3.014 l 2.961,8.373 h 0.881 z m -6.114,2.109 h 2.866 l -1.411,4.14 z"
             style="fill:#f9f7f6;fill-opacity:1;fill-rule:nonzero;stroke:none"
             id="path170" />
        </g>
        <g
           id="g172"
           transform="translate(1045.1881,6795.9839)">
          <path
             d="m 0,0 h -0.288 c -0.976,1.601 -1.44,2.015 -2.847,2.015 h -0.386 v -8.612 c 0,-1.174 0.064,-1.966 1.153,-1.966 V -8.85 h -4.675 v 0.287 c 1.09,0 1.153,0.792 1.153,1.966 V 2.015 H -6.273 C -7.666,2.015 -8.146,1.601 -9.123,0 h -0.288 l 0.24,2.697 h 8.932 z"
             style="fill:#f9f7f6;fill-opacity:1;fill-rule:nonzero;stroke:none"
             id="path174" />
        </g>
        <g
           id="g176"
           transform="translate(1061.879,6790.1479)">
          <path
             d="m 0,0 -0.399,-3.014 h -8.42 v 0.286 c 1.088,0 1.151,0.793 1.151,1.967 V 6.28 c 0,1.174 -0.063,1.967 -1.151,1.967 v 0.286 h 8.178 L -0.417,5.836 H -0.705 C -1.681,7.437 -2.208,7.851 -3.984,7.851 H -5.297 V 3.377 h 0.944 c 1.568,0 1.856,0.493 2.24,1.349 h 0.288 v -3.6 h -0.288 c -0.399,0.936 -0.672,1.49 -2.24,1.49 h -0.944 v -4.218 c 0,-0.443 0.126,-0.73 0.638,-0.73 h 0.881 c 1.618,0 2.37,0.318 3.49,2.332 z"
             style="fill:#f9f7f6;fill-opacity:1;fill-rule:nonzero;stroke:none"
             id="path178" />
        </g>
        <g
           id="g180"
           transform="translate(850.4022,6694.1387)">
          <path
             d="M 0,0 C 0.464,-1.285 0.785,-1.681 1.457,-1.745 V -2.03 h -4.739 v 0.285 c 0.945,0.064 1.233,0.397 0.913,1.317 L -2.961,1.316 H -6.386 L -6.435,1.174 c -0.656,-1.855 -0.559,-2.712 0.432,-2.919 V -2.03 h -2.768 v 0.285 c 0.384,0.207 0.799,1.08 1.473,3.015 l 2.96,8.373 h 0.881 z m -6.115,2.109 h 2.866 l -1.409,4.14 z"
             style="fill:#f9f7f6;fill-opacity:1;fill-rule:nonzero;stroke:none"
             id="path182" />
        </g>
        <g
           id="g184"
           transform="translate(859.5377,6695.8525)">
          <path
             d="M 0,0 V 5.55 C 0,6.723 -0.065,7.516 -1.153,7.516 V 7.801 H 3.538 V 7.516 C 2.449,7.516 2.385,6.723 2.385,5.55 V 0.015 c 0,-2.157 0.832,-2.966 2.465,-2.966 1.456,0 2.481,0.888 2.481,3.013 v 4.537 c 0,1.49 -0.192,2.774 -1.057,2.917 V 7.801 H 9.155 V 7.516 C 8.307,7.373 8.227,6.089 8.227,4.599 V 0.062 C 8.227,-2.634 6.802,-3.935 4.226,-3.935 1.537,-3.935 0,-2.777 0,0"
             style="fill:#f9f7f6;fill-opacity:1;fill-rule:nonzero;stroke:none"
             id="path186" />
        </g>
        <g
           id="g188"
           transform="translate(876.8677,6692.4893)">
          <path
             d="M 0,0 -0.112,2.919 H 0.177 C 0.944,1.157 1.841,0.143 3.329,0.143 4.546,0.143 5.33,0.92 5.33,1.983 5.33,3.124 4.482,3.728 3.186,4.33 L 2.353,4.726 C 1.44,5.171 0.144,5.947 0.144,7.867 c 0,2.014 1.409,3.488 3.474,3.488 0.88,0 2.193,-0.27 2.961,-0.555 V 8.469 H 6.291 c -0.816,1.491 -1.537,2.173 -2.77,2.173 -1.072,0 -1.696,-0.714 -1.696,-1.665 0,-1.064 0.64,-1.523 1.664,-2.015 L 4.338,6.566 C 5.714,5.916 7.011,5.171 7.011,3.203 7.011,0.968 5.41,-0.571 3.121,-0.571 2.193,-0.571 0.784,-0.317 0,0"
             style="fill:#f9f7f6;fill-opacity:1;fill-rule:nonzero;stroke:none"
             id="path190" />
        </g>
        <g
           id="g192"
           transform="translate(901.1124,6700.958)">
          <path
             d="m 0,0 h -0.288 c -0.977,1.602 -1.441,2.015 -2.849,2.015 h -0.384 v -8.612 c 0,-1.174 0.063,-1.966 1.152,-1.966 v -0.286 h -4.675 v 0.286 c 1.09,0 1.153,0.792 1.153,1.966 V 2.015 H -6.275 C -7.668,2.015 -8.147,1.602 -9.124,0 h -0.288 l 0.24,2.696 h 8.932 z"
             style="fill:#f9f7f6;fill-opacity:1;fill-rule:nonzero;stroke:none"
             id="path194" />
        </g>
        <g
           id="g196"
           transform="translate(919.2584,6692.3945)">
          <path
             d="m 0,0 v -0.285 c -0.32,-0.031 -1.328,-0.065 -1.873,-0.065 -1.313,0 -1.536,0.398 -3.569,4.853 -0.24,0.541 -0.433,0.603 -0.945,0.603 H -6.755 V 1.966 C -6.755,0.793 -6.659,0 -5.57,0 v -0.285 h -4.706 V 0 c 1.088,0 1.152,0.793 1.152,1.966 v 7.041 c 0,1.174 -0.064,1.967 -1.152,1.967 v 0.285 h 4.85 c 2.705,0 4.081,-1.125 4.081,-2.966 0,-1.522 -1.072,-2.52 -2.577,-2.902 V 5.361 C -3.458,5.09 -3.041,4.503 -2.625,3.711 -0.96,0.556 -0.656,0.206 0,0 m -6.755,5.883 h 0.832 c 1.329,0 2.146,0.587 2.146,2.237 0,1.696 -0.641,2.458 -2.034,2.458 h -0.335 c -0.385,0 -0.609,-0.191 -0.609,-0.571 z"
             style="fill:#f9f7f6;fill-opacity:1;fill-rule:nonzero;stroke:none"
             id="path198" />
        </g>
        <g
           id="g200"
           transform="translate(934.9553,6694.1387)">
          <path
             d="M 0,0 C 0.464,-1.285 0.785,-1.681 1.457,-1.745 V -2.03 h -4.739 v 0.285 c 0.945,0.064 1.233,0.397 0.913,1.317 L -2.961,1.316 H -6.386 L -6.435,1.174 c -0.656,-1.855 -0.559,-2.712 0.432,-2.919 V -2.03 h -2.768 v 0.285 c 0.384,0.207 0.799,1.08 1.473,3.015 l 2.961,8.373 h 0.88 z m -6.115,2.109 h 2.866 l -1.409,4.14 z"
             style="fill:#f9f7f6;fill-opacity:1;fill-rule:nonzero;stroke:none"
             id="path202" />
        </g>
        <g
           id="g204"
           transform="translate(943.6263,6692.1089)">
          <path
             d="m 0,0 v 0.285 c 1.088,0 1.153,0.794 1.153,1.967 V 9.293 C 1.153,10.466 1.088,11.26 0,11.26 v 0.285 H 4.674 V 11.26 C 3.585,11.26 3.521,10.466 3.521,9.293 V 1.349 c 0,-0.413 0.144,-0.667 0.561,-0.667 h 0.512 c 1.441,0 2.257,0.65 3.425,2.728 H 8.307 L 7.843,0 Z"
             style="fill:#f9f7f6;fill-opacity:1;fill-rule:nonzero;stroke:none"
             id="path206" />
        </g>
        <g
           id="g208"
           transform="translate(959.74,6692.1089)">
          <path
             d="m 0,0 v 0.285 c 1.087,0 1.151,0.794 1.151,1.967 V 9.293 C 1.151,10.466 1.087,11.26 0,11.26 v 0.285 H 4.672 V 11.26 C 3.586,11.26 3.521,10.466 3.521,9.293 V 2.252 c 0,-1.173 0.065,-1.967 1.151,-1.967 V 0 Z"
             style="fill:#f9f7f6;fill-opacity:1;fill-rule:nonzero;stroke:none"
             id="path210" />
        </g>
        <g
           id="g212"
           transform="translate(980.8481,6694.1387)">
          <path
             d="M 0,0 C 0.464,-1.285 0.785,-1.681 1.457,-1.745 V -2.03 h -4.739 v 0.285 c 0.945,0.064 1.233,0.397 0.914,1.317 L -2.961,1.316 H -6.386 L -6.435,1.174 c -0.656,-1.855 -0.56,-2.712 0.432,-2.919 V -2.03 h -2.768 v 0.285 c 0.383,0.207 0.799,1.08 1.472,3.015 l 2.962,8.373 h 0.88 z m -6.114,2.109 h 2.866 l -1.411,4.14 z"
             style="fill:#f9f7f6;fill-opacity:1;fill-rule:nonzero;stroke:none"
             id="path214" />
        </g>
        <g
           id="g216"
           transform="translate(996.7213,6703.6538)">
          <path
             d="M 0,0 H 3.024 V -0.285 C 2.258,-0.316 2.097,-1.586 2.097,-3.204 v -8.468 H 1.2 l -6.306,9.356 v -5.756 c 0,-1.871 0.367,-3.156 1.183,-3.187 v -0.285 h -3.248 v 0.285 c 0.767,0.063 1.184,1.316 1.184,3.187 v 5.963 c 0,1.206 -0.687,1.697 -1.184,1.824 V 0 h 3.248 l 5.141,-7.771 v 4.567 c 0,1.618 -0.322,2.776 -1.218,2.919 z"
             style="fill:#f9f7f6;fill-opacity:1;fill-rule:nonzero;stroke:none"
             id="path218" />
        </g>
        <g
           id="g220"
           transform="translate(1028.7906,6703.6538)">
          <path
             d="M 0,0 H 2.77 V -0.285 C 2.337,-0.474 1.856,-1.364 1.297,-3.297 l -2.481,-8.375 h -0.881 l -2.336,7.533 -2.577,-7.533 h -0.898 l -2.994,9.642 c -0.398,1.285 -0.782,1.68 -1.456,1.745 V 0 h 4.643 V -0.285 C -8.548,-0.35 -8.836,-0.713 -8.548,-1.601 l 1.953,-6.44 1.761,5.281 -0.224,0.73 c -0.401,1.285 -0.784,1.68 -1.408,1.745 V 0 h 4.657 V -0.285 C -2.754,-0.35 -3.024,-0.696 -2.754,-1.601 L -0.88,-7.755 0.448,-3.14 C 1.009,-1.221 0.992,-0.492 0,-0.285 Z"
             style="fill:#f9f7f6;fill-opacity:1;fill-rule:nonzero;stroke:none"
             id="path222" />
        </g>
        <g
           id="g224"
           transform="translate(1039.2223,6692.1089)">
          <path
             d="m 0,0 v 0.285 c 1.087,0 1.151,0.794 1.151,1.967 V 9.293 C 1.151,10.466 1.087,11.26 0,11.26 v 0.285 H 4.672 V 11.26 C 3.585,11.26 3.521,10.466 3.521,9.293 V 2.252 c 0,-1.173 0.064,-1.967 1.151,-1.967 V 0 Z"
             style="fill:#f9f7f6;fill-opacity:1;fill-rule:nonzero;stroke:none"
             id="path226" />
        </g>
        <g
           id="g228"
           transform="translate(1059.2244,6703.6538)">
          <path
             d="M 0,0 H 3.024 V -0.285 C 2.257,-0.316 2.097,-1.586 2.097,-3.204 v -8.468 H 1.2 l -6.306,9.356 v -5.756 c 0,-1.871 0.367,-3.156 1.183,-3.187 v -0.285 h -3.248 v 0.285 c 0.767,0.063 1.184,1.316 1.184,3.187 v 5.963 c 0,1.206 -0.687,1.697 -1.184,1.824 V 0 h 3.248 l 5.141,-7.771 v 4.567 c 0,1.618 -0.322,2.776 -1.218,2.919 z"
             style="fill:#f9f7f6;fill-opacity:1;fill-rule:nonzero;stroke:none"
             id="path230" />
        </g>
        <g
           id="g232"
           transform="translate(1079.2749,6695.123)">
          <path
             d="m 0,0 -0.399,-3.014 h -8.42 v 0.285 c 1.088,0 1.151,0.794 1.151,1.967 v 7.041 c 0,1.173 -0.063,1.967 -1.151,1.967 V 8.531 H -0.64 L -0.417,5.835 H -0.705 C -1.68,7.437 -2.208,7.85 -3.984,7.85 H -5.297 V 3.376 h 0.944 c 1.568,0 1.856,0.493 2.24,1.35 h 0.288 V 1.125 h -0.288 c -0.399,0.936 -0.672,1.491 -2.24,1.491 h -0.944 v -4.22 c 0,-0.443 0.126,-0.729 0.638,-0.729 h 0.881 c 1.618,0 2.369,0.318 3.49,2.333 z"
             style="fill:#f9f7f6;fill-opacity:1;fill-rule:nonzero;stroke:none"
             id="path234" />
        </g>
      </g>
    </g>
  </g>
</svg>
