<?xml version="1.0" encoding="UTF-8" standalone="no"?>
<svg
   width="12.551"
   height="24"
   viewBox="0 0 12.551 24"
   fill="none"
   version="1.1"
   id="svg1531"
   sodipodi:docname="chevron-thin-left.svg"
   inkscape:version="1.2.2 (b0a8486541, 2022-12-01)"
   xmlns:inkscape="http://www.inkscape.org/namespaces/inkscape"
   xmlns:sodipodi="http://sodipodi.sourceforge.net/DTD/sodipodi-0.dtd"
   xmlns="http://www.w3.org/2000/svg"
   xmlns:svg="http://www.w3.org/2000/svg">
  <defs
     id="defs1535" />
  <sodipodi:namedview
     id="namedview1533"
     pagecolor="#ffffff"
     bordercolor="#000000"
     borderopacity="0.25"
     inkscape:showpageshadow="2"
     inkscape:pageopacity="0.0"
     inkscape:pagecheckerboard="0"
     inkscape:deskcolor="#d1d1d1"
     showgrid="false"
     inkscape:zoom="29.72"
     inkscape:cx="6.9986541"
     inkscape:cy="12.5"
     inkscape:window-width="1920"
     inkscape:window-height="1044"
     inkscape:window-x="0"
     inkscape:window-y="0"
     inkscape:window-maximized="1"
     inkscape:current-layer="svg1531" />
  <path
     style="color:#000000;fill:#000000;stroke-linecap:round;-inkscape-stroke:none"
     d="M 12.072467,2.2931082e-4 A 0.5,0.5 0 0 0 11.713092,0.13304181 L 0.48067017,10.465073 c -0.62346196,0.573534 -0.64296023,1.567973 -0.042969,2.166015 L 11.697467,23.853745 a 0.5,0.5 0 0 0 0.707032,0 0.5,0.5 0 0 0 0,-0.707032 L 1.1427796,11.924057 C 0.93635187,11.7183 0.94396737,11.398666 1.1584046,11.201401 L 12.388874,0.86741681 a 0.5,0.5 0 0 0 0.0293,-0.70507813 0.5,0.5 0 0 0 -0.345704,-0.16210936918 z"
     id="path1529" />
</svg>
