<?xml version="1.0" encoding="UTF-8" standalone="no"?>
<!-- Created with Inkscape (http://www.inkscape.org/) -->

<svg
   width="55.294998mm"
   height="40.153mm"
   viewBox="0 0 55.294998 40.153"
   version="1.1"
   id="svg1300"
   inkscape:version="1.2.2 (b0a8486541, 2022-12-01)"
   sodipodi:docname="logo-ginger-monkey.svg"
   xmlns:inkscape="http://www.inkscape.org/namespaces/inkscape"
   xmlns:sodipodi="http://sodipodi.sourceforge.net/DTD/sodipodi-0.dtd"
   xmlns="http://www.w3.org/2000/svg"
   xmlns:svg="http://www.w3.org/2000/svg">
  <sodipodi:namedview
     id="namedview1302"
     pagecolor="#ffffff"
     bordercolor="#000000"
     borderopacity="0.25"
     inkscape:showpageshadow="2"
     inkscape:pageopacity="0.0"
     inkscape:pagecheckerboard="0"
     inkscape:deskcolor="#d1d1d1"
     inkscape:document-units="mm"
     showgrid="false"
     inkscape:zoom="0.66190376"
     inkscape:cx="397.33873"
     inkscape:cy="562.77064"
     inkscape:window-width="1920"
     inkscape:window-height="1044"
     inkscape:window-x="0"
     inkscape:window-y="0"
     inkscape:window-maximized="1"
     inkscape:current-layer="layer1" />
  <defs
     id="defs1297">
    <clipPath
       clipPathUnits="userSpaceOnUse"
       id="clipPath116">
      <path
         d="M 0,2227.419 H 1920 V 0 H 0 Z"
         id="path114" />
    </clipPath>
  </defs>
  <g
     inkscape:label="Layer 1"
     inkscape:groupmode="layer"
     id="layer1">
    <g
       id="g227">
      <g
         id="g110"
         transform="matrix(0.35277777,0,0,-0.35277777,-22.918238,769.66444)">
        <g
           id="g112"
           clip-path="url(#clipPath116)">
          <g
             id="g118"
             transform="translate(112.3674,2143.9143)">
            <path
               d="M 0,0 C 0,5.22 -3.229,5.287 -3.229,5.32 -4.232,3.426 -5.053,2.124 -6.465,0.612 -6.482,0.594 -6.489,0.569 -6.485,0.544 -6.48,0.521 -6.465,0.5 -6.443,0.489 c 1.265,-0.612 1.733,-1.171 1.737,-2.362 l 0.001,-0.014 v -10.456 c 0,-0.265 -0.012,-0.815 -0.264,-1.292 -0.041,-0.076 -0.292,-0.429 -0.298,-0.437 0,-0.162 1.187,-4.055 4.301,-5.11 0.668,-0.226 0.725,-0.165 0.731,-0.16 0.293,0.229 1.41,2.096 3.591,4.934 0.024,0.032 0.02,0.078 -0.01,0.105 l -0.366,0.325 c -0.016,0.015 -0.038,0.021 -0.059,0.02 C 2.9,-13.96 2.88,-13.971 2.867,-13.988 L 2.32,-14.697 c -0.039,-0.051 -0.09,-0.058 -0.255,-0.058 -1.187,0 -2.065,1.35 -2.065,2.586 z"
               style="fill:#1d1d1b;fill-opacity:1;fill-rule:nonzero;stroke:none"
               id="path386" />
          </g>
          <g
             id="g122"
             transform="translate(117.9933,2143.9434)">
            <path
               d="m 0,0 v -10.456 c 0,-0.426 -0.083,-0.824 -0.095,-0.865 0,0 -0.131,-0.355 -0.17,-0.427 -0.019,-0.037 -0.298,-0.438 -0.298,-0.438 0,-0.069 1.034,-4.002 4.301,-5.109 0.108,-0.037 0.272,-0.075 0.663,-0.174 0.024,-0.006 0.049,-10e-4 0.069,0.014 0.285,0.221 1.444,2.141 3.591,4.934 0.024,0.032 0.02,0.078 -0.01,0.105 l -0.049,0.043 -0.317,0.282 c -0.016,0.014 -0.038,0.021 -0.059,0.019 -0.021,-0.002 -0.041,-0.012 -0.054,-0.029 L 7.025,-12.81 c -0.044,-0.057 -0.108,-0.058 -0.255,-0.058 -1.273,0 -2.065,1.456 -2.065,2.586 V 1.641 c 0,0.093 1.955,2.722 2.152,2.722 0.045,0 1.366,-0.5 2.934,-0.518 0.054,0 0.147,-0.043 0.147,-0.148 0,-0.17 -0.378,-0.359 -0.378,-2.629 0,-8.428 -0.104,-11.616 -0.104,-11.688 0,-3.95 4.744,-5.031 4.874,-5.031 0,0 0.018,-10e-4 0.029,-0.002 0.013,-0.003 0.027,0 0.038,0.007 0.238,0.139 1.164,1.758 3.297,4.532 0.018,0.025 0.015,0.059 -0.008,0.079 l -0.062,0.056 -0.317,0.281 c -0.016,0.015 -0.038,0.022 -0.059,0.02 -0.021,-0.002 -0.041,-0.013 -0.054,-0.03 l -0.547,-0.708 c -0.044,-0.058 -0.107,-0.059 -0.255,-0.059 -1.582,0 -2.064,1.954 -2.064,2.586 V 4.203 c 0,2.179 0.094,3.01 0.697,3.988 0.018,0.029 0.015,0.066 -0.008,0.092 l -0.09,0.101 C 14.904,8.409 14.867,8.417 14.836,8.402 13.805,7.905 12.222,7.941 12.177,7.941 10.479,7.941 8.789,8.355 8.755,8.355 8.68,8.355 7.624,7 4.904,3.118 4.884,3.09 4.848,3.046 4.777,3.046 4.693,3.046 4.638,3.11 4.629,3.176 4.144,7.136 1.476,7.153 1.476,7.206 1.192,6.707 -0.209,4.208 -1.763,2.498 -1.779,2.48 -1.786,2.455 -1.781,2.431 -1.777,2.407 -1.761,2.387 -1.739,2.376 -0.457,1.757 0,1.188 0,0"
               style="fill:#1d1d1b;fill-opacity:1;fill-rule:nonzero;stroke:none"
               id="path383" />
          </g>
          <g
             id="g126"
             transform="translate(107.5606,2100.8904)">
            <path
               d="m 0,0 c -0.005,-0.33 -4.944,-1.342 -5.24,-1.342 -0.044,0 -0.076,0.037 -0.076,0.078 v 9.919 c 0,0.017 0.006,0.034 0.017,0.048 1.757,2.217 1.388,1.955 2.047,1.955 3.335,0 3.337,-3.075 3.337,-3.555 C 0.085,6.051 0.034,2.423 0,0 m -10.401,-2.114 c -0.011,-0.171 -3.456,-0.444 -4.157,-1.171 l -2.163,-2.242 c -0.015,-0.015 -0.035,-0.023 -0.056,-0.023 -0.055,0 -0.077,0.049 -0.077,0.077 0,0.095 1.254,3.324 1.254,7.086 0,2.576 -0.648,4.231 -0.648,4.283 0,0.017 0.006,0.034 0.017,0.048 2.516,3.218 2.137,2.819 2.598,2.819 2.338,0 3.344,-1.559 3.344,-3.554 0,-0.796 -0.07,-6.65 -0.112,-7.323 m 23.56,-20.363 c -0.022,0 -0.044,-0.009 -0.059,-0.027 l -0.037,-0.043 -1.108,-1.291 c -0.102,-0.077 -0.177,-0.073 -0.509,-0.073 -2.4,0 -6.543,2.309 -6.543,7.084 V -1.578 9.933 C 4.904,9.944 4.856,9.954 4.857,9.964 l 0.353,1.661 0.002,0.016 -10e-4,0.009 10e-4,0.009 c 0,1.583 -1.972,4.268 -5.125,4.268 -0.127,0 -0.429,-0.006 -0.806,-0.057 -0.217,-0.029 -4.443,-5.68 -4.545,-5.68 -0.055,0 -0.075,0.048 -0.077,0.07 -0.281,3.189 -3.336,3.876 -4.696,3.876 -0.278,0 -0.563,-0.019 -0.851,-0.058 -0.346,-0.047 -5.663,-7.113 -5.723,-7.113 -0.129,0 -2.371,5.849 -8.668,5.849 -2,0 -2.804,-0.444 -3.459,-0.904 l -7.894,-7.355 c -0.61,-0.568 -0.621,-1.026 -0.621,-1.644 0,-4.627 5.994,-5.204 5.998,-10.368 0,-3.13 -3.263,-5.332 -3.263,-5.395 0,-0.069 0.231,-0.345 0.362,-0.496 0.03,-0.034 0.094,-0.098 0.135,-0.098 l 0.377,0.226 c 0.143,0.085 8.026,5.384 8.026,10.272 0,5.954 -6.938,6.328 -6.939,10.004 l 0.025,0.057 1.455,1.366 c 0.028,0.026 0.059,0.021 0.106,0.021 6.325,0 10.091,-5.732 10.091,-10.939 0,-10.04 -5.462,-15.291 -5.77,-15.291 -0.105,0 -2.264,1.514 -4.207,1.514 -4.693,0 -11.739,-6.979 -11.739,-10.117 0,-3.44 3.409,-4.286 4.201,-4.35 0.052,-0.005 0.093,0.028 0.107,0.079 0.242,0.885 1.613,3.123 2.028,3.619 0.036,0.043 0.003,0.102 -0.053,0.105 -2.085,0.114 -3.496,1.637 -3.496,3.237 0,1.008 1.672,3.329 3.083,3.329 7.261,0 14.186,-12.67 23.681,-12.67 1.523,0 3.139,1.191 3.429,1.412 5.846,4.734 6.358,5.461 6.358,6.678 0,0.701 -0.39,1.06 -0.688,1.06 -0.044,0 -0.071,-0.008 -0.071,-0.018 0,0 0.017,-0.062 0.017,-0.163 0,-0.959 -1.678,-4.026 -3.964,-4.026 -6.146,0 -15.614,8.168 -15.614,8.24 0,0.073 4.053,4.092 5.951,4.092 1.038,0 1.819,-0.624 1.819,-1.496 0,-0.648 -0.423,-1.387 -1.372,-2.094 0,0 0.155,-0.191 0.251,-0.311 0.029,-0.037 0.072,-0.057 0.116,-0.057 0.072,0 5.034,2.224 5.034,4.95 0,0.964 -0.63,2.152 -2.269,2.152 -3.927,0 -10.228,-6.697 -10.3,-6.697 -0.016,0 -0.032,0.005 -0.045,0.015 -1.447,1.035 -1.449,0.95 -1.449,1.037 0,0.161 5.061,3.229 8.28,10.882 0.117,0.278 6.697,1.249 6.957,1.249 0.102,0 0.148,-0.088 0.148,-0.148 0,-4.165 -0.426,-17.373 -0.426,-17.445 0,-0.081 0.072,-0.177 0.144,-0.147 1.76,0.721 5.422,5.338 5.422,5.338 v 13.167 c 0,0.152 2.475,0.476 3.639,1.124 0.396,0.221 1.381,1.507 1.489,1.507 0.016,0 0.032,-0.003 0.048,-0.008 0.06,-0.02 0.1,-0.077 0.1,-0.141 0,-0.175 -0.186,-12.285 -0.186,-15.293 0,-10.442 9.273,-10.669 9.188,-10.825 -0.033,0.003 4.686,5.875 4.82,6.11 0.019,0.033 -0.583,0.363 -0.622,0.363"
               style="fill:#1d1d1b;fill-opacity:1;fill-rule:nonzero;stroke:none"
               id="path380" />
          </g>
          <g
             id="g130"
             transform="translate(137.4374,2159.6851)">
            <path
               d="m 0,0 c 20.838,0 24.32,13.502 41.398,13.502 9.688,0 10.811,-9.193 10.811,-11.999 0,-6.405 -2.497,-8.563 -2.595,-8.563 -0.018,0 -0.037,0.003 -0.054,0.01 -4.491,1.745 -6.431,8.471 -6.431,8.564 0,0.031 0.01,0.063 0.03,0.089 0.117,0.157 0.288,0.391 0.373,0.502 0.024,0.03 0.021,0.074 -0.007,0.101 L 43.084,2.647 C 43.069,2.662 43.048,2.67 43.026,2.669 43.005,2.668 42.984,2.658 42.971,2.642 42.955,2.623 42.939,2.604 42.923,2.585 41.733,1.24 38.424,-3.71 38.246,-3.71 c -0.097,0 -0.135,0.08 -0.143,0.123 l -0.001,0.009 c -0.298,4.465 -3.199,4.536 -3.199,4.567 -1.394,-2.448 -2.459,-3.85 -3.238,-4.708 -0.017,-0.018 -0.024,-0.043 -0.019,-0.067 0.004,-0.024 0.02,-0.044 0.042,-0.055 1.277,-0.617 1.734,-1.179 1.738,-2.362 l 10e-4,-0.015 v -10.456 c 0,-0.263 -0.012,-0.816 -0.264,-1.291 -0.041,-0.077 -0.298,-0.438 -0.298,-0.438 0,-0.166 1.188,-4.056 4.3,-5.11 0.11,-0.037 0.656,-0.171 0.663,-0.173 0.024,-0.007 0.05,-0.002 0.069,0.013 0.285,0.223 1.449,2.147 3.591,4.934 0.024,0.032 0.02,0.078 -0.01,0.105 l -0.366,0.326 c -0.016,0.014 -0.038,0.021 -0.059,0.019 -0.021,-0.002 -0.041,-0.013 -0.054,-0.03 l -0.547,-0.708 c -0.044,-0.058 -0.107,-0.059 -0.255,-0.059 -1.26,0 -2.065,1.437 -2.065,2.586 v 11.294 c 0,0.033 1.632,2.278 1.796,2.278 0.065,0 0.112,-0.041 0.133,-0.092 l 0.004,-0.011 c 0.158,-0.616 0.439,-1.303 0.807,-1.993 1.894,-3.569 4.148,-4.287 5.154,-4.287 4.653,0 10.719,7.553 10.719,15.144 0,6.843 -4.481,11.552 -13.628,11.552 -12.34,0 -28.355,-12.35 -41.705,-12.35 -9.999,0 -11.629,6.919 -11.629,8.59 0,1.572 1.037,4.882 4.18,4.952 2.479,-0.054 3.418,-1.778 3.418,-3.339 0,-0.493 -0.119,-0.947 -0.196,-1.189 -0.01,-0.029 0,-0.062 0.024,-0.082 0.024,-0.02 0.056,-0.02 0.085,-0.01 0.961,0.334 3.191,1.639 3.191,4.146 0,2.143 -1.302,3.938 -3.619,3.938 -4.06,0 -9.506,-6.453 -9.506,-10.883 C -12.64,4.674 -7.7,0 0,0"
               style="fill:#1d1d1b;fill-opacity:1;fill-rule:nonzero;stroke:none"
               id="path377" />
          </g>
          <g
             id="g134"
             transform="translate(160.0174,2145.6096)">
            <path
               d="m 0,0 v 8.284 c 0,0.09 0.075,0.149 0.148,0.149 0.176,0 0.739,-1.308 3.425,-4.43 C 3.982,3.527 3.984,3.553 3.984,3.475 3.984,3.436 3.968,3.397 3.937,3.367 L 0.249,-0.108 C 0.221,-0.134 0.185,-0.148 0.148,-0.148 0.066,-0.148 0,-0.082 0,0 M 5.531,3.578 C 5.856,3.881 7.171,5.082 7.474,5.342 7.49,5.355 7.499,5.374 7.501,5.395 7.502,5.416 7.495,5.436 7.481,5.452 4.956,8.299 2.611,12.554 2.253,13.213 2.242,13.234 2.222,13.248 2.198,13.252 2.175,13.256 2.151,13.249 2.133,13.233 L -5.261,6.498 C -5.279,6.481 -5.288,6.458 -5.286,6.434 -5.284,6.409 -5.27,6.388 -5.25,6.375 c 0.835,-0.512 0.926,-1.629 0.928,-2.634 0,-0.009 0,-0.016 0,-0.025 0,-5.775 -0.102,-8.417 -0.102,-8.571 0,-4.474 5.661,-6.747 8.181,-6.747 l 0.616,0.005 c 0.112,0.059 1.23,1.994 3.037,4.627 0.009,0.013 0.012,0.029 0.009,0.045 -0.003,0.015 -0.012,0.029 -0.026,0.037 L 6.965,-6.666 C 6.919,-6.648 6.879,-6.679 6.852,-6.716 L 6.404,-7.315 C 6.377,-7.35 6.333,-7.37 6.289,-7.372 c -1.121,0.009 -6.29,0.723 -6.29,5.133 v 0.642 c 0,0.076 -0.405,-0.278 5.532,5.175"
               style="fill:#1d1d1b;fill-opacity:1;fill-rule:nonzero;stroke:none"
               id="path374" />
          </g>
          <g
             id="g138"
             transform="translate(177.1059,2116.302)">
            <path
               d="m 0,0 c 0,0.09 0.075,0.148 0.148,0.148 0.184,0 0.583,-1.054 3.027,-3.961 0.785,-0.94 0.809,-0.899 0.809,-0.996 0,-0.039 -0.016,-0.079 -0.047,-0.108 L 0.249,-8.392 C 0.221,-8.418 0.185,-8.432 0.148,-8.432 0.066,-8.432 0,-8.366 0,-8.284 Z M 7.475,-2.943 C 7.491,-2.93 7.5,-2.91 7.502,-2.89 7.503,-2.869 7.496,-2.849 7.482,-2.834 4.956,0.015 2.611,4.27 2.253,4.928 2.242,4.949 2.222,4.964 2.198,4.968 2.175,4.972 2.151,4.965 2.133,4.949 l -7.325,-6.673 -0.069,-0.062 c -0.018,-0.017 -0.027,-0.041 -0.025,-0.065 0.002,-0.024 0.016,-0.046 0.036,-0.058 0.834,-0.513 0.926,-1.628 0.928,-2.635 0,-0.008 0,-0.016 0,-0.025 0,-5.715 -0.102,-8.302 -0.102,-8.471 0,-3.156 3.361,-5.842 6.592,-6.623 0.78,-0.191 2.346,-0.33 2.399,-0.258 0.343,0.474 1.432,2.423 2.738,4.672 0.012,0.02 0.017,0.042 0.011,0.064 -0.005,0.022 -0.02,0.04 -0.04,0.05 L 6.799,-14.89 C 6.763,-14.873 6.721,-14.885 6.7,-14.919 L 6.662,-14.98 6.294,-15.568 c -0.026,-0.042 -0.074,-0.065 -0.122,-0.067 -5.247,0.043 -6.173,3.798 -6.173,5.112 v 0.642 c 0,0.116 6.763,6.316 7.476,6.938"
               style="fill:#1d1d1b;fill-opacity:1;fill-rule:nonzero;stroke:none"
               id="path371" />
          </g>
          <g
             id="g142"
             transform="translate(126.5393,2097.3425)">
            <path
               d="m 0,0 c -0.044,-7.881 -0.002,-7.521 -0.213,-7.521 -0.161,0 -4.686,1.586 -4.686,4.156 v 14.072 c 0,0.025 0.013,0.142 0.169,0.142 2.171,0 4.75,-1.97 4.75,-3.954 C 0.02,5.621 0.014,2.843 0,0 m 4.616,8.068 c 0,3.49 -4.161,6.064 -6.899,6.064 l -0.515,10e-4 c -0.017,0 -5.109,-4.715 -5.122,-4.726 l -2.243,-2.074 c -0.017,-0.016 -0.026,-0.039 -0.024,-0.063 0.002,-0.024 0.015,-0.045 0.034,-0.058 1.417,-0.931 0.831,-5.369 0.831,-13.035 0,-3.233 4.439,-5.753 5.715,-5.753 h 0.004 c 0.013,-0.002 0.027,0 0.039,0.004 0.413,0.152 4.445,2.721 8.202,7.096 0.012,0.015 0.019,0.034 0.018,0.053 l -0.04,1.164 z"
               style="fill:#1d1d1b;fill-opacity:1;fill-rule:nonzero;stroke:none"
               id="path368" />
          </g>
          <g
             id="g146"
             transform="translate(159.0261,2125.4668)">
            <path
               d="m 0,0 c 0.001,0.051 0.003,0.078 0.003,0.078 0,0 0,-0.007 0,-0.024 C 0.003,0.033 0,0.02 0,0 m 3.258,-11.773 c 0.028,0.035 0.07,0.059 0.116,0.059 0.078,0 0.117,-0.056 0.127,-0.073 1.142,-1.941 2.6,-3.196 2.6,-3.389 0,-0.037 -0.014,-0.074 -0.042,-0.103 l -5.433,-5.649 c -0.028,-0.03 -0.067,-0.045 -0.107,-0.045 -0.19,0 -0.153,0.056 -0.237,2.198 -0.067,1.835 -0.076,2.143 -0.076,2.163 0,0.085 1.55,2.768 3.052,4.839 m 21.885,29.621 c -0.013,0 -0.027,-10e-4 -0.039,0 -0.019,0.001 -0.037,-0.007 -0.049,-0.021 -0.192,-0.236 -1.881,-2.293 -3.413,-3.568 -0.027,-0.022 -0.036,-0.06 -0.021,-0.091 0.014,-0.032 0.047,-0.05 0.082,-0.045 0.299,0.047 0.564,0.048 0.599,0.048 2.453,0 4.386,-2.095 4.39,-4.52 l 0.001,-0.009 c 0,-2.823 -1.586,-6.334 -5.445,-8.937 -0.053,-0.036 -1.594,-0.372 -3.818,-0.372 -7.361,0 -10.748,4.098 -10.748,4.219 0,0.168 0.291,0.209 0.291,0.336 0,0.129 -0.166,0.337 -0.25,0.435 -0.027,0.03 -0.072,0.035 -0.104,0.011 -7.601,-5.572 -11.37,-7.825 -11.37,-11.267 0,-3.258 1.637,-20.037 0.167,-21.785 0,-0.156 1.199,-4.06 4.302,-5.11 0.008,-0.003 0.658,-0.214 0.73,-0.162 0.264,0.189 1.161,1.764 3.34,4.6 0.024,0.032 0.02,0.078 -0.01,0.104 l -0.367,0.327 c -0.016,0.014 -0.037,0.021 -0.058,0.019 -0.021,-0.002 -0.041,-0.013 -0.054,-0.029 l -0.047,-0.06 -0.248,-0.314 c -0.045,-0.057 -0.109,-0.058 -0.255,-0.058 -1.641,0 -2.314,1.785 -2.314,6.303 0,0.039 0.016,0.077 0.044,0.105 1.483,1.475 1.333,1.348 1.357,1.348 0.009,0 0.018,0.002 0.026,0.005 0.035,0.015 0.113,0.042 0.227,0.042 2.282,0 3.148,-8.371 5.974,-10.842 0.661,-0.578 1.111,-0.537 1.395,-0.537 0.243,0 1.252,0.026 4.03,4.036 0.021,0.031 0.017,0.072 -0.009,0.098 l -0.042,0.042 -0.249,0.25 c -0.015,0.014 -0.035,0.023 -0.056,0.022 -0.021,0 -0.041,-0.009 -0.055,-0.024 l -0.578,-0.617 c -0.028,-0.03 -0.066,-0.044 -0.105,-0.044 -3.17,0 -3.515,10.336 -7.098,10.336 -0.187,0 -0.415,-0.047 -0.461,-0.047 -0.079,0 -0.148,0.063 -0.148,0.146 0,0.037 0.016,0.075 0.042,0.103 2.335,2.26 4.257,3.944 4.893,4.514 0.015,0.015 0.025,0.034 0.025,0.055 10e-4,0.022 -0.007,0.042 -0.022,0.057 -1.577,1.614 -3.725,5.206 -3.725,5.301 0,0.03 0.009,0.059 0.026,0.084 l 0.261,0.374 c 0.023,0.033 0.017,0.078 -0.014,0.104 L 5.877,-6.936 C 5.861,-6.922 5.841,-6.916 5.82,-6.917 5.8,-6.919 5.781,-6.929 5.768,-6.945 5.754,-6.961 5.725,-6.995 5.725,-6.995 4.178,-8.642 0.396,-14.832 0.299,-14.832 c -0.165,0 -0.247,-0.271 -0.247,7.582 0,5.927 0.134,6.746 0.197,6.793 1.699,1.292 1.98,1.615 2.101,1.615 0.191,0 3.683,-4.274 13.302,-4.274 3.282,0 14.4,7.306 14.4,15.983 0,5.226 -4.655,4.978 -4.909,4.981"
               style="fill:#1d1d1b;fill-opacity:1;fill-rule:nonzero;stroke:none"
               id="path365" />
          </g>
          <g
             id="g150"
             transform="translate(77.9828,2126.6174)">
            <path
               d="m 0,0 c 0,0.08 6.821,5.837 6.821,11.647 v 0.479 c 0,0.035 0.013,0.07 0.036,0.097 l 2.007,2.323 c 0.669,0.782 7.304,0.616 10.491,1.723 l 0.011,0.003 c 0.01,0.002 0.021,0.003 0.031,0.003 0.089,0 0.145,-0.07 0.145,-0.145 0,-0.122 -0.618,-0.821 -0.618,-2.264 V -2.751 c 0,-0.173 -3.302,-1.043 -6.961,-1.043 -1.923,0 -4.058,0.23 -6.251,0.887 -1.664,0.5 -3.705,1.4 -3.705,1.633 0,0.138 1.763,1.711 2.494,2.321 1.634,1.368 3.181,2.369 4.247,2.369 1.037,0 1.818,-0.624 1.818,-1.496 0,-0.485 -0.267,-1.049 -0.798,-1.599 C 9.618,0.171 9.448,0.02 9.253,-0.129 9.226,-0.149 9.221,-0.187 9.24,-0.214 c 0.163,-0.232 0.175,-0.234 0.25,-0.329 0.018,-0.022 0.048,-0.028 0.073,-0.015 0.482,0.255 4.623,2.293 4.623,4.761 0,1.133 -0.79,2.153 -2.266,2.153 C 7.812,6.356 1.436,-0.9 1.255,-0.9 1.228,-0.9 1.201,-0.893 1.177,-0.878 -0.126,-0.066 0,-0.034 0,0 m 9.65,-8.757 c 3.347,0 6.194,0.848 6.512,0.954 l 0.014,0.003 c 0.017,0.005 0.031,0.014 0.042,0.027 4.44,5.563 6.864,7.933 7.529,8.553 v 14.765 c 0,3.753 1.05,5.524 1.257,5.824 0.02,0.029 0.018,0.066 -0.003,0.093 l -0.136,0.168 c -0.021,0.027 -0.058,0.036 -0.09,0.023 -0.837,-0.355 -1.68,-0.657 -2.218,-0.752 C 9.229,18.548 9.981,18.684 6.967,13.49 6.868,13.32 6.693,34.076 6.693,34.148 c 0,0.037 0.014,0.073 0.039,0.101 l 1.17,1.275 c 0.029,0.031 0.068,0.048 0.109,0.048 0.036,0 0.107,-0.016 0.137,-0.098 L 8.15,35.465 C 11.302,22.047 25.316,23.101 26.843,24.801 l 6.581,7.337 c 0.289,0.385 1.046,1.206 1.046,2.485 0,2.818 -3.183,2.708 -4.116,2.581 -0.019,-0.003 -0.036,-0.012 -0.048,-0.027 l -4.674,-5.429 c -0.015,-0.017 -0.021,-0.039 -0.018,-0.061 0.003,-0.022 0.015,-0.041 0.033,-0.054 0.123,-0.082 0.366,-0.244 0.484,-0.325 0.038,-0.027 0.089,-0.021 0.12,0.013 0.046,0.05 0.095,0.102 0.133,0.148 l 0.66,0.683 c 0.602,0.132 2.157,-0.474 2.157,-1.903 0,-0.836 -0.516,-1.949 -1.979,-3.341 -0.016,-0.015 -0.039,-0.023 -0.062,-0.02 -11.613,1.319 -15.022,12.688 -15.022,13.199 0,0.037 0.014,0.072 0.039,0.1 l 0.832,0.907 c 0.027,0.03 0.027,0.076 -0.001,0.105 l -0.401,0.432 c -0.014,0.016 -0.034,0.025 -0.055,0.025 -0.022,0 -0.042,-0.008 -0.057,-0.023 C 1.679,30.597 0.794,29.151 0.794,27.285 c 0,-3.637 0.811,-10.969 0.811,-15.133 0,-9.82 -2.335,-11.549 -2.414,-11.549 -0.171,0 -6.299,4.698 -6.299,13.472 0,13.456 6.527,16.123 9.797,21.028 0.014,0.019 0.027,0.038 0.041,0.056 0.013,0.018 0.018,0.039 0.014,0.06 C 2.74,35.24 2.727,35.259 2.709,35.27 L 2.183,35.608 C 2.148,35.63 2.103,35.622 2.079,35.589 -1.072,31.323 -12.756,27.734 -12.756,12.616 -12.756,-4.819 3.578,-8.757 9.65,-8.757"
               style="fill:#1d1d1b;fill-opacity:1;fill-rule:nonzero;stroke:none"
               id="path362" />
          </g>
          <g
             id="g154"
             transform="translate(183.5113,2078.6201)">
            <path
               d="m 0,0 c 0.129,0 4.046,-0.489 9.681,-0.489 9.967,0 28.515,10.469 28.515,24.663 0,4.682 -2.125,11.283 -9.246,11.283 -0.155,0 -1.167,-0.085 -1.24,-0.097 l -0.016,-0.002 c -0.013,-10e-4 -0.026,-0.006 -0.036,-0.014 -0.223,-0.2 -2.868,-2.581 -4.44,-3.89 L 22.633,30.988 C 22.6,30.961 22.594,30.913 22.62,30.88 l 0.381,-0.488 c 0.012,-0.016 0.031,-0.027 0.051,-0.029 0.021,-0.002 0.041,0.003 0.058,0.016 l 0.415,0.331 c 0.218,0.174 1.216,0.545 2.328,0.545 1.87,0 7.583,-0.56 7.484,-9.841 C 33.336,20.398 32.259,3.758 12.89,3.758 c -2.833,0 -13.717,0.567 -14.257,1.137 -0.012,0.013 -0.02,0.03 -0.021,0.048 -0.017,0.296 -0.028,0.59 -0.028,0.878 0,0.067 -0.064,4.103 1.272,6.032 0,0 0.309,0.373 0.384,0.446 l 0.015,0.011 c 0.172,0.1 1.567,0.418 3.059,0.418 1.54,0 6.323,-0.234 9.184,-5.718 0.008,-0.019 0.013,-0.042 0.013,-0.062 0,-0.077 -0.005,-0.116 -0.486,-0.352 L 11.541,6.371 C 11.503,6.354 11.486,6.308 11.503,6.27 l 0.249,-0.563 c 0.008,-0.019 0.024,-0.034 0.043,-0.041 0.02,-0.007 0.041,-0.007 0.06,0.002 l 0.547,0.255 c 0.199,0.094 9.218,2.899 9.218,15.9 0,7.683 -4.331,13.14 -4.331,22.012 0,3.91 2.413,6.61 2.524,6.733 l 0.003,0.007 0.154,0.176 c 0.013,0.015 0.02,0.036 0.019,0.056 -0.002,0.02 -0.011,0.04 -0.026,0.053 l -0.301,0.265 c -0.033,0.028 -0.081,0.025 -0.109,-0.007 L 19.281,50.81 c -1.206,-1.363 -5.932,-5.617 -5.932,-12.148 0,-4.318 3.18,-11.816 3.18,-12.396 0,-0.124 -2.86,-3.701 -3.098,-3.701 -0.094,0 -0.888,0.425 -1.744,0.989 -4.953,3.266 -4.762,2.36 -4.762,2.684 0,0.137 3.394,6.463 3.394,12.644 0,6.794 -5.14,6.349 -5.281,6.214 C 4.166,44.261 2.547,41.772 1.908,40.95 L 0.917,39.677 C 0.891,39.643 0.897,39.595 0.93,39.569 l 0.316,-0.247 c 0.016,-0.013 0.036,-0.018 0.057,-0.016 0.02,0.003 0.039,0.013 0.051,0.029 l 0.269,0.345 c 0.166,0.22 0.907,0.882 1.75,0.882 2.918,0 2.853,-5.959 2.853,-6.108 C 6.226,29.417 4.711,24.442 2.708,20.743 2.69,20.71 2.699,20.668 2.73,20.645 l 0.445,-0.333 c 0.017,-0.012 0.037,-0.018 0.058,-0.015 0.02,0.003 0.038,0.014 0.05,0.031 0.014,0.018 0.043,0.056 0.043,0.056 0.236,0.284 1.256,1.78 1.306,1.875 l 0.242,0.42 c 0.027,0.046 0.077,0.074 0.129,0.074 0.597,0 2.869,-1.499 4.169,-2.222 1.781,-1.017 2.572,-1.005 2.718,-1.005 0.018,0 0.037,0 0.055,0.001 1.132,0.004 4.48,5.795 4.776,5.795 0.225,0 1.726,-5.086 1.726,-9.472 0,-4.037 -1.087,-5.578 -1.337,-5.578 -0.184,0 -3.269,5.238 -9.708,5.238 -6.363,0 -9.748,-4.159 -11.165,-6.99 C -4.466,7.108 -4.792,5.838 -4.87,5.522 -4.89,5.461 -4.947,5.417 -5.01,5.417 c -1.379,0 -14.252,3.54 -23.296,3.54 -8.643,0 -11.658,-2.496 -11.974,-2.496 -0.075,0 -0.122,0.056 -0.122,0.071 0,0.871 7.014,4.847 7.014,12.298 l 0.002,13.168 c 0,2.244 0.111,3.043 0.696,3.988 0.018,0.029 0.015,0.067 -0.008,0.093 l -0.09,0.1 c -0.023,0.026 -0.061,0.033 -0.092,0.019 -1.03,-0.497 -2.613,-0.462 -2.659,-0.462 -1.698,0 -3.388,0.415 -3.422,0.415 -0.134,0 -2.579,-3.425 -3.814,-5.186 -0.032,-0.046 -0.069,-0.12 -0.162,-0.12 -0.082,0 -0.138,0.064 -0.147,0.129 -0.512,3.882 -3.143,3.9 -3.143,3.952 -1.393,-2.449 -2.458,-3.851 -3.238,-4.708 -0.016,-0.019 -0.023,-0.043 -0.018,-0.067 0.004,-0.024 0.02,-0.045 0.042,-0.055 1.277,-0.618 1.734,-1.179 1.738,-2.362 l 0.001,-0.015 V 17.263 c 0,-0.263 -0.012,-0.816 -0.265,-1.292 -0.04,-0.076 -0.298,-0.437 -0.298,-0.437 0,-0.156 1.199,-4.06 4.302,-5.11 0.668,-0.226 0.725,-0.165 0.731,-0.16 0.266,0.205 1.255,1.886 3.339,4.598 0.024,0.032 0.02,0.077 -0.01,0.104 l -0.367,0.326 c -0.016,0.015 -0.037,0.021 -0.058,0.02 -0.022,-0.002 -0.041,-0.013 -0.054,-0.03 l -0.295,-0.374 c -0.045,-0.056 -0.109,-0.057 -0.255,-0.057 -1.185,0 -2.065,1.348 -2.065,2.586 v 12.018 c 0,0.096 1.942,2.704 2.139,2.704 0.045,0 1.365,-0.501 2.934,-0.518 0.053,-10e-4 0.146,-0.043 0.146,-0.148 0,-0.179 -0.377,-0.345 -0.377,-2.63 0,-4.37 0.092,-8.029 0.092,-10.292 0,-8.208 -1.232,-9.595 -6.77,-15.218 -0.015,-0.015 -0.023,-0.035 -0.022,-0.055 0,-0.021 0.009,-0.041 0.023,-0.055 l 0.316,-0.304 c 0.029,-0.028 0.075,-0.029 0.105,-10e-4 1.347,1.216 4.513,3.011 13.322,3.011 8.488,0 14.894,-3.35 25.751,-5.215 0.333,-0.063 -0.02,-2.048 1.666,-4.957 1.033,-1.787 4.047,-5.817 11.582,-5.817 8.326,0 13.212,9.356 13.212,10.019 0,0 0.011,0.03 0.023,0.064 0.015,0.04 -0.005,0.084 -0.045,0.099 l -0.064,0.025 -0.466,0.176 -0.055,0.02 c -0.034,0.013 -0.073,0 -0.093,-0.032 C 20.414,0.317 20.39,0.279 20.39,0.279 19.501,-1.496 15.661,-6.187 9.644,-6.187 c -7.377,0 -9.792,5.851 -9.792,6.039 C -0.148,-0.066 -0.082,0 0,0"
               style="fill:#1d1d1b;fill-opacity:1;fill-rule:nonzero;stroke:none"
               id="path359" />
          </g>
          <g
             id="g158"
             transform="translate(146.9926,2150.9978)">
            <path
               d="m 0,0 c -0.26,-0.598 -0.316,-1.306 -0.316,-2.461 0,-3.798 -0.098,-11.843 -0.098,-11.861 0,-0.033 -0.011,-0.065 -0.031,-0.091 l -2.072,-2.673 c -0.025,-0.032 -0.064,-0.044 -0.104,-0.048 h -0.012 c -1.035,0.064 -2.567,1.708 -2.567,2.82 V 0.595 c 0,0.082 0.067,0.148 0.149,0.148 0.133,0 1.743,-0.686 3.854,-0.686 0.657,0 0.796,0.054 1.112,0.054 0.016,0 0.031,-0.003 0.045,-0.009 C -0.021,0.094 -0.007,0.078 0.001,0.059 0.008,0.04 0.008,0.019 0,0 m -21.937,-28.941 c 8.23,0 10.906,-3.836 17.291,-3.836 0.653,0 1.782,0.123 2.756,0.999 l 0.004,0.004 7.967,9.241 c 0.012,0.014 0.019,0.032 0.019,0.051 -0.013,2.709 -1.82,5.586 -1.82,9.688 V 0.4 c 0,2.244 0.113,3.042 0.698,3.988 C 4.996,4.417 4.992,4.455 4.969,4.48 L 4.879,4.582 C 4.856,4.607 4.82,4.614 4.789,4.6 4.526,4.48 3.235,3.972 0.155,3.972 -1.38,3.972 -2.734,4.096 -3.681,4.276 -3.695,4.278 -3.708,4.281 -3.718,4.283 -3.742,4.287 -3.768,4.28 -3.786,4.262 l -6.615,-6.401 -0.066,-0.064 c -0.017,-0.016 -0.025,-0.039 -0.023,-0.063 0.002,-0.023 0.015,-0.045 0.035,-0.057 1.409,-0.92 0.831,-5.265 0.831,-13.552 0,-3.945 4.749,-5.03 4.87,-5.03 0,0 0.013,0 0.022,-10e-4 0.021,-0.004 0.043,10e-4 0.06,0.015 0.008,0.006 0.018,0.014 0.027,0.023 1.105,1.105 3.911,5.24 4.133,5.24 0.108,0 0.145,-0.095 0.148,-0.138 0.336,-5.066 2.344,-7.744 2.344,-9.339 0,-1.658 -2.293,-3.38 -5.048,-3.38 -4.302,0 -9.531,3.475 -14.079,3.475 -3.427,0 -11.342,-5.397 -11.342,-9.516 0,-1.52 0.853,-2.878 2.056,-3.644 0.009,-10e-4 0.019,-0.005 0.026,-0.009 0.01,-0.007 0.019,-0.014 0.029,-0.02 0.016,-0.012 0.037,-0.017 0.058,-0.014 0.02,0.004 0.038,0.015 0.05,0.033 1.275,1.838 2.69,3.264 3.39,3.923 0.024,0.023 0.031,0.059 0.016,0.09 -0.014,0.03 -0.047,0.048 -0.08,0.043 -0.108,-0.015 -0.23,-0.026 -0.361,-0.026 -0.944,0 -2.591,0.522 -2.591,2.379 0,1.042 1.343,2.83 3.959,2.83"
               style="fill:#1d1d1b;fill-opacity:1;fill-rule:nonzero;stroke:none"
               id="path356" />
          </g>
        </g>
      </g>
    </g>
  </g>
</svg>
