<?xml version="1.0" encoding="UTF-8" standalone="no"?>
<!-- Created with Inkscape (http://www.inkscape.org/) -->

<svg
   width="161.77mm"
   height="45.673mm"
   viewBox="0 0 161.77 45.673"
   version="1.1"
   id="svg2689"
   inkscape:version="1.2.2 (b0a8486541, 2022-12-01)"
   sodipodi:docname="logo-rare-penny-footer.svg"
   xmlns:inkscape="http://www.inkscape.org/namespaces/inkscape"
   xmlns:sodipodi="http://sodipodi.sourceforge.net/DTD/sodipodi-0.dtd"
   xmlns="http://www.w3.org/2000/svg"
   xmlns:svg="http://www.w3.org/2000/svg">
  <sodipodi:namedview
     id="namedview2691"
     pagecolor="#ffffff"
     bordercolor="#000000"
     borderopacity="0.25"
     inkscape:showpageshadow="2"
     inkscape:pageopacity="0.0"
     inkscape:pagecheckerboard="0"
     inkscape:deskcolor="#d1d1d1"
     inkscape:document-units="mm"
     showgrid="false"
     inkscape:zoom="0.66190376"
     inkscape:cx="397.33873"
     inkscape:cy="561.25984"
     inkscape:window-width="1920"
     inkscape:window-height="1044"
     inkscape:window-x="0"
     inkscape:window-y="0"
     inkscape:window-maximized="1"
     inkscape:current-layer="layer1" />
  <defs
     id="defs2686" />
  <g
     inkscape:label="Layer 1"
     inkscape:groupmode="layer"
     id="layer1">
    <g
       id="g2464"
       transform="matrix(0.35277777,0,0,-0.35277777,-28.329704,278.10568)">
      <g
         id="g744"
         transform="translate(315.9715,721.3389)">
        <path
           d="m 0,0 c 5.582,0 20.755,1.377 20.755,17.239 0,12.56 -9.828,16.336 -19.513,16.336 H 1.165 l -20.515,0.01 v -2.149 c 3.039,0 5.615,-1.976 5.615,-6.096 v -46.091 c 0,-4.114 -2.573,-6.092 -5.605,-6.096 h -0.01 v -10e-4 -2.148 -0.054 H 2.464 v 0.054 2.148 10e-4 H 2.453 c -3.031,0.004 -5.15,1.982 -5.15,6.096 V 0 Z m -2.697,28.864 c 0,1.39 1.138,2.518 2.542,2.518 h 1.32 c 5.303,0 8.012,-5.596 8.012,-14.748 C 9.177,7.586 6.542,2.193 1.165,2.193 h -3.862 z"
           style="fill:#f9f7f6;fill-opacity:1;fill-rule:nonzero;stroke:none"
           id="path746" />
      </g>
      <g
         id="g748"
         transform="translate(275.0368,708.2)">
        <path
           d="M 0,0 C -1.655,-5.117 -7.578,-13.713 -13.302,-13.713 H -16.4 c -2.481,0 -4.492,2.143 -4.492,5.803 v 26.912 h 3.903 c 4.03,-0.023 5.598,-3.627 7.081,-9.198 h 1.603 v 9.65 1.752 9.649 h -1.603 c -1.483,-5.571 -3.051,-9.626 -7.081,-9.649 h -3.903 v 20.265 c 0,1.849 1.284,3.054 2.818,3.054 h 3.407 c 4.098,0 7.974,-3.378 12.391,-11.458 H 0.01 L -2.494,46.723 H -37.772 V 46.67 44.521 44.52 h 0.009 c 3.032,-0.004 5.833,-2.192 5.833,-6.648 V -4.451 c 0,-7.885 -2.573,-9.253 -5.605,-9.257 h -0.011 v -10e-4 -2.148 -0.054 H 0.238 L 2.286,0 Z"
           style="fill:#f9f7f6;fill-opacity:1;fill-rule:nonzero;stroke:none"
           id="path750" />
      </g>
      <g
         id="g752"
         transform="translate(225.0938,700.5339)">
        <path
           d="m 0,0 -10.778,23.838 c 7.627,2.666 10.318,8.513 10.318,14.656 0,12.562 -9.827,15.886 -19.513,15.886 h -0.077 l -20.059,0.01 v -2.149 c 3.039,0 5.16,-1.976 5.16,-6.096 V 0.054 c 0,-4.114 -2.119,-6.092 -5.15,-6.096 h -0.01 v -0.001 -2.148 -0.054 h 21.357 v 0.054 2.148 0.001 h -0.009 c -3.032,0.004 -5.15,1.982 -5.15,6.096 v 21.653 h 2.697 l 9.777,-23.122 c 0.964,-3.201 -0.73,-4.681 -3.402,-4.681 V -8.245 H 7.225 v 2.149 C 4.867,-5.757 2.394,-4.604 0,0 m -20.05,23.9 h -3.861 v 25.769 c 0,1.39 1.137,2.518 2.542,2.518 h 1.319 c 5.303,0 8.012,-5.145 8.012,-14.296 0,-9.05 -2.634,-13.991 -8.012,-13.991"
           style="fill:#f9f7f6;fill-opacity:1;fill-rule:nonzero;stroke:none"
           id="path754" />
      </g>
      <g
         id="g756"
         transform="translate(172.9318,703.0463)">
        <path
           d="M 0,0 -16.197,51.878 -22.278,51.874 -36.725,0.422 c -1.887,-6.933 -4.701,-8.756 -7.577,-8.992 -2.287,0.384 -4.675,1.606 -6.989,6.057 l -10.778,23.839 c 7.627,2.666 10.317,8.512 10.317,14.656 0,12.561 -9.826,15.886 -19.512,15.886 l -20.137,0.01 v -2.149 c 3.039,0 5.16,-1.977 5.16,-6.097 v -46.09 c 0,-4.115 -2.118,-6.091 -5.15,-6.097 h -0.01 v -2.149 -0.053 h 21.358 v 0.053 2.149 h -0.01 c -3.031,0.006 -5.15,1.982 -5.15,6.097 v 21.652 h 2.697 l 9.777,-23.122 c 0.965,-3.201 -0.728,-4.681 -3.4,-4.681 v -2.148 h 36.712 v 2.202 c -4.587,0 -6.863,3.028 -5.262,8.379 l 3.369,12.063 h 16.087 l 3.788,-12.58 c 1.816,-6.113 -0.867,-7.862 -3.649,-7.862 l -0.002,-2.202 H 7.981 l 0.002,2.202 C 4.208,-8.555 2.431,-7.823 0,0 m -71.341,21.388 h -3.862 v 25.768 c 0,1.391 1.139,2.518 2.542,2.518 h 1.32 c 5.303,0 8.012,-5.144 8.012,-14.296 0,-9.05 -2.634,-13.99 -8.012,-13.99 m 40.61,-7.429 7.395,26.476 7.519,-26.476 z"
           style="fill:#f9f7f6;fill-opacity:1;fill-rule:nonzero;stroke:none"
           id="path758" />
      </g>
      <path
         d="M 0,0 C -1.655,-5.117 -7.578,-13.713 -13.301,-13.713 H -16.4 c -2.481,0 -4.492,2.143 -4.492,5.803 v 26.912 h 3.903 c 4.03,-0.023 5.598,-3.627 7.081,-9.198 h 1.603 v 9.65 1.752 9.649 h -1.603 c -1.483,-5.571 -3.051,-9.626 -7.081,-9.649 h -3.903 v 20.265 c 0,1.849 1.284,3.054 2.818,3.054 h 3.407 c 4.098,0 7.974,-3.378 12.391,-11.458 H 0.01 L -2.494,46.723 H -37.772 V 46.67 44.521 44.52 h 0.009 c 3.032,-0.004 5.833,-2.192 5.833,-6.648 V -4.451 c 0,-7.885 -2.573,-9.253 -5.605,-9.257 h -0.01 v -10e-4 -2.148 -0.054 H 0.238 L 2.286,0 Z"
         style="fill:#f9f7f6;fill-opacity:1;fill-rule:nonzero;stroke:none"
         id="path762"
         transform="translate(379.8802,708.19998)" />
      <g
         id="g764"
         transform="translate(417.5182,754.8648)">
        <path
           d="M 0,0 V -2.148 -2.149 H 0.01 C 3.05,-2.153 6.595,-3.303 6.738,-10.29 V -39.685 L -16.204,0.054 H -32.127 L -32.1,0 -32.142,-2.148 v -10e-4 h 0.01 c 3.311,0 6.047,-2.632 6.047,-7.273 V -52.29 c -0.21,-7.099 -3.66,-8.074 -6.724,-8.078 h -0.011 v -10e-4 -2.148 -0.054 h 15.919 v 0.054 2.148 10e-4 h -0.01 c -3.039,0.004 -6.584,1.154 -6.728,8.141 V -9.005 L 6.738,-62.556 v -0.015 h 2.447 v 52.344 c 0.21,7.099 3.66,8.074 6.724,8.078 h 0.01 V -2.148 0 0.054 H 0 Z"
           style="fill:#f9f7f6;fill-opacity:1;fill-rule:nonzero;stroke:none"
           id="path766" />
      </g>
      <g
         id="g768"
         transform="translate(471.5523,754.8648)">
        <path
           d="M 0,0 V -2.148 -2.149 H 0.01 C 3.05,-2.153 6.595,-3.303 6.738,-10.29 V -39.685 L -16.203,0.054 H -32.127 L -32.099,0 -32.142,-2.148 v -10e-4 h 0.01 c 3.311,0 6.047,-2.632 6.047,-7.273 V -52.29 c -0.21,-7.099 -3.66,-8.074 -6.724,-8.078 h -0.01 v -10e-4 -2.148 -0.054 h 15.918 v 0.054 2.148 10e-4 h -0.01 c -3.039,0.004 -6.584,1.154 -6.728,8.141 V -9.005 L 6.738,-62.556 v -0.015 h 2.447 v 52.344 c 0.21,7.099 3.66,8.074 6.724,8.078 h 0.01 V -2.148 0 0.054 H 0 Z"
           style="fill:#f9f7f6;fill-opacity:1;fill-rule:nonzero;stroke:none"
           id="path770" />
      </g>
      <g
         id="g772"
         transform="translate(523.7338,754.9235)">
        <path
           d="m 0,0 -0.124,-2.203 c 4.587,0 5.947,-3.777 3.926,-8.379 l -9.183,-20.929 c -4.156,10.705 -9.64,21.447 -9.64,21.447 -2.653,5.68 0.698,7.861 3.649,7.861 L -11.371,0 h -22.155 l -0.003,-2.203 c 3.775,0 4.973,-1.458 7.983,-8.555 l 10.592,-24.13 v -19.448 c 0,-4.114 -2.573,-6.091 -5.606,-6.095 h -0.01 v -0.001 -2.149 -0.053 H 1.244 v 0.053 2.149 0.001 h -0.01 c -3.031,0.004 -5.15,1.981 -5.15,6.095 v 21.197 l 9.668,21.959 c 3.236,7.495 6.148,9.023 9.261,9.023 L 15.131,0 Z"
           style="fill:#f9f7f6;fill-opacity:1;fill-rule:nonzero;stroke:none"
           id="path774" />
      </g>
      <g
         id="g776"
         transform="translate(85.215,776.8514)">
        <path
           d="m 0,0 c 0,-1.421 0.078,-2.38 1.396,-2.38 v -0.346 h -5.658 v 0.346 c 1.317,0 1.396,0.959 1.396,2.38 v 8.523 c 0,1.422 -0.079,2.382 -1.396,2.382 v 0.346 H 1.396 V 10.905 C 0.078,10.905 0,9.945 0,8.523 Z M 2.732,5.606 C 5.911,0.077 7.557,-2.131 8.391,-2.38 V -2.726 C 7.693,-2.802 6.549,-2.802 6.104,-2.802 c -1.88,0 -2.519,1.227 -5.677,6.987 l 3.042,3.878 c 0.794,1.018 1.201,1.632 1.201,2.265 0,0.422 -0.232,0.539 -0.601,0.577 v 0.346 H 8.041 V 10.905 C 7.189,10.694 6.026,9.656 4.36,7.583 Z"
           style="fill:#f9f7f6;fill-opacity:1;fill-rule:nonzero;stroke:none"
           id="path778" />
      </g>
      <g
         id="g780"
         transform="translate(103.7908,778.6558)">
        <path
           d="M 0,0 V 6.719 C 0,8.14 -0.078,9.101 -1.396,9.101 V 9.446 H 4.283 V 9.101 C 2.964,9.101 2.887,8.14 2.887,6.719 V 0.02 c 0,-2.612 1.007,-3.591 2.984,-3.591 1.762,0 3.003,1.075 3.003,3.648 v 5.491 c 0,1.804 -0.232,3.359 -1.279,3.533 v 0.345 h 3.488 V 9.101 C 10.056,8.927 9.959,7.372 9.959,5.568 V 0.077 C 9.959,-3.187 8.235,-4.76 5.115,-4.76 1.86,-4.76 0,-3.359 0,0"
           style="fill:#f9f7f6;fill-opacity:1;fill-rule:nonzero;stroke:none"
           id="path782" />
      </g>
      <g
         id="g784"
         transform="translate(124.6524,774.1254)">
        <path
           d="m 0,0 v 0.346 c 1.318,0 1.396,0.96 1.396,2.38 v 8.524 c 0,1.42 -0.078,2.381 -1.396,2.381 v 0.345 H 5.658 V 13.631 C 4.34,13.631 4.262,12.67 4.262,11.25 V 1.631 c 0,-0.498 0.175,-0.805 0.68,-0.805 h 0.619 c 1.743,0 2.732,0.787 4.146,3.302 h 0.349 L 9.494,0 Z"
           style="fill:#f9f7f6;fill-opacity:1;fill-rule:nonzero;stroke:none"
           id="path786" />
      </g>
      <g
         id="g788"
         transform="translate(154.2711,776.5829)">
        <path
           d="m 0,0 c 0.562,-1.555 0.95,-2.035 1.764,-2.112 v -0.345 h -5.736 v 0.345 c 1.142,0.077 1.492,0.481 1.104,1.593 L -3.585,1.593 H -7.731 L -7.79,1.421 c -0.794,-2.247 -0.677,-3.282 0.524,-3.533 v -0.345 h -3.352 v 0.345 c 0.466,0.251 0.968,1.306 1.783,3.648 l 3.585,10.136 h 1.065 z m -7.401,2.553 h 3.468 l -1.705,5.011 z"
           style="fill:#f9f7f6;fill-opacity:1;fill-rule:nonzero;stroke:none"
           id="path790" />
      </g>
      <g
         id="g792"
         transform="translate(177.2071,774.4711)">
        <path
           d="m 0,0 v -0.346 c -0.387,-0.038 -1.607,-0.076 -2.267,-0.076 -1.589,0 -1.86,0.479 -4.321,5.874 -0.29,0.653 -0.523,0.73 -1.144,0.73 H -8.177 V 2.38 C -8.177,0.961 -8.061,0 -6.742,0 v -0.346 h -5.697 V 0 c 1.317,0 1.394,0.961 1.394,2.38 v 8.523 c 0,1.422 -0.077,2.382 -1.394,2.382 v 0.346 h 5.87 c 3.275,0 4.941,-1.364 4.941,-3.59 0,-1.843 -1.298,-3.054 -3.119,-3.514 V 6.489 C -4.186,6.163 -3.682,5.452 -3.178,4.492 -1.162,0.672 -0.794,0.25 0,0 m -8.177,7.122 h 1.007 c 1.609,0 2.597,0.71 2.597,2.707 0,2.054 -0.776,2.976 -2.461,2.976 H -7.44 c -0.466,0 -0.737,-0.231 -0.737,-0.691 z"
           style="fill:#f9f7f6;fill-opacity:1;fill-rule:nonzero;stroke:none"
           id="path794" />
      </g>
      <g
         id="g796"
         transform="translate(196.2087,776.5829)">
        <path
           d="m 0,0 c 0.561,-1.555 0.95,-2.035 1.764,-2.112 v -0.345 h -5.736 v 0.345 c 1.142,0.077 1.492,0.481 1.104,1.593 L -3.585,1.593 H -7.731 L -7.79,1.421 c -0.794,-2.247 -0.677,-3.282 0.524,-3.533 v -0.345 h -3.353 v 0.345 c 0.467,0.251 0.969,1.306 1.784,3.648 l 3.585,10.136 h 1.065 z m -7.402,2.553 h 3.469 l -1.705,5.011 z"
           style="fill:#f9f7f6;fill-opacity:1;fill-rule:nonzero;stroke:none"
           id="path798" />
      </g>
      <g
         id="g800"
         transform="translate(228.751,777.7729)">
        <path
           d="m 0,0 -0.484,-3.648 h -10.192 v 0.346 c 1.317,0 1.394,0.96 1.394,2.381 v 8.523 c 0,1.422 -0.077,2.381 -1.394,2.381 v 0.346 h 9.9 l 0.271,-3.264 h -0.348 c -1.182,1.938 -1.82,2.438 -3.97,2.438 H -6.412 V 4.089 h 1.143 c 1.898,0 2.246,0.595 2.711,1.632 h 0.349 V 1.363 h -0.349 c -0.483,1.133 -0.813,1.804 -2.711,1.804 h -1.143 v -5.105 c 0,-0.538 0.153,-0.884 0.773,-0.884 h 1.065 c 1.959,0 2.869,0.384 4.225,2.822 z"
           style="fill:#f9f7f6;fill-opacity:1;fill-rule:nonzero;stroke:none"
           id="path802" />
      </g>
      <g
         id="g804"
         transform="translate(238.7431,774.5867)">
        <path
           d="M 0,0 -0.135,3.532 H 0.213 C 1.143,1.4 2.228,0.171 4.031,0.171 c 1.472,0 2.421,0.943 2.421,2.228 0,1.382 -1.027,2.112 -2.595,2.841 L 2.848,5.721 c -1.104,0.537 -2.673,1.478 -2.673,3.8 0,2.438 1.704,4.224 4.203,4.224 1.066,0 2.655,-0.327 3.586,-0.672 V 10.251 H 7.615 c -0.988,1.804 -1.86,2.63 -3.353,2.63 -1.298,0 -2.053,-0.864 -2.053,-2.016 0,-1.286 0.776,-1.843 2.015,-2.437 L 5.25,7.948 C 6.917,7.16 8.487,6.258 8.487,3.878 8.487,1.17 6.549,-0.691 3.779,-0.691 2.655,-0.691 0.95,-0.384 0,0"
           style="fill:#f9f7f6;fill-opacity:1;fill-rule:nonzero;stroke:none"
           id="path806" />
      </g>
      <g
         id="g808"
         transform="translate(268.0907,784.8376)">
        <path
           d="M 0,0 H -0.347 C -1.53,1.938 -2.091,2.439 -3.795,2.439 H -4.262 V -7.986 c 0,-1.421 0.077,-2.38 1.394,-2.38 v -0.346 h -5.657 v 0.346 c 1.317,0 1.395,0.959 1.395,2.38 V 2.439 H -7.594 C -9.28,2.439 -9.862,1.938 -11.043,0 h -0.349 l 0.29,3.265 H -0.29 Z"
           style="fill:#f9f7f6;fill-opacity:1;fill-rule:nonzero;stroke:none"
           id="path810" />
      </g>
      <g
         id="g812"
         transform="translate(286.2799,776.5829)">
        <path
           d="m 0,0 c 0.561,-1.555 0.95,-2.035 1.764,-2.112 v -0.345 h -5.736 v 0.345 c 1.142,0.077 1.492,0.481 1.104,1.593 L -3.584,1.593 H -7.731 L -7.79,1.421 c -0.794,-2.247 -0.678,-3.282 0.524,-3.533 v -0.345 h -3.352 v 0.345 c 0.465,0.251 0.968,1.306 1.782,3.648 l 3.585,10.136 h 1.066 z m -7.401,2.553 h 3.469 l -1.707,5.011 z"
           style="fill:#f9f7f6;fill-opacity:1;fill-rule:nonzero;stroke:none"
           id="path814" />
      </g>
      <g
         id="g816"
         transform="translate(306.3879,784.8376)">
        <path
           d="M 0,0 H -0.348 C -1.53,1.938 -2.091,2.439 -3.795,2.439 H -4.262 V -7.986 c 0,-1.421 0.077,-2.38 1.396,-2.38 v -0.346 h -5.659 v 0.346 c 1.318,0 1.395,0.959 1.395,2.38 V 2.439 H -7.594 C -9.28,2.439 -9.862,1.938 -11.043,0 h -0.349 l 0.29,3.265 H -0.29 Z"
           style="fill:#f9f7f6;fill-opacity:1;fill-rule:nonzero;stroke:none"
           id="path818" />
      </g>
      <g
         id="g820"
         transform="translate(326.5926,777.7729)">
        <path
           d="m 0,0 -0.483,-3.648 h -10.193 v 0.346 c 1.317,0 1.394,0.96 1.394,2.381 v 8.523 c 0,1.422 -0.077,2.381 -1.394,2.381 v 0.346 h 9.9 l 0.271,-3.264 h -0.348 c -1.182,1.938 -1.82,2.438 -3.97,2.438 H -6.412 V 4.089 h 1.143 c 1.898,0 2.246,0.595 2.711,1.632 h 0.349 V 1.363 h -0.349 c -0.483,1.133 -0.813,1.804 -2.711,1.804 h -1.143 v -5.105 c 0,-0.538 0.153,-0.884 0.773,-0.884 h 1.065 c 1.959,0 2.87,0.384 4.226,2.822 z"
           style="fill:#f9f7f6;fill-opacity:1;fill-rule:nonzero;stroke:none"
           id="path822" />
      </g>
      <g
         id="g824"
         transform="translate(90.9232,661.5524)">
        <path
           d="m 0,0 c 0.562,-1.555 0.95,-2.035 1.764,-2.112 v -0.345 h -5.736 v 0.345 c 1.142,0.077 1.492,0.48 1.104,1.593 L -3.585,1.593 H -7.731 L -7.79,1.421 c -0.794,-2.246 -0.677,-3.282 0.524,-3.533 v -0.345 h -3.352 v 0.345 c 0.466,0.251 0.968,1.307 1.783,3.649 l 3.584,10.136 h 1.066 z m -7.402,2.553 h 3.469 l -1.705,5.011 z"
           style="fill:#f9f7f6;fill-opacity:1;fill-rule:nonzero;stroke:none"
           id="path826" />
      </g>
      <g
         id="g828"
         transform="translate(101.9818,663.6267)">
        <path
           d="m 0,0 v 6.718 c 0,1.42 -0.078,2.38 -1.396,2.38 V 9.444 H 4.283 V 9.098 c -1.319,0 -1.396,-0.96 -1.396,-2.38 v -6.7 c 0,-2.611 1.007,-3.59 2.984,-3.59 1.762,0 3.003,1.075 3.003,3.647 v 5.492 c 0,1.805 -0.232,3.358 -1.279,3.531 v 0.346 h 3.488 V 9.098 C 10.056,8.925 9.959,7.372 9.959,5.567 V 0.075 C 9.959,-3.189 8.235,-4.763 5.115,-4.763 1.86,-4.763 0,-3.361 0,0"
           style="fill:#f9f7f6;fill-opacity:1;fill-rule:nonzero;stroke:none"
           id="path830" />
      </g>
      <g
         id="g832"
         transform="translate(122.9601,659.5553)">
        <path
           d="m 0,0 -0.136,3.534 h 0.35 C 1.143,1.401 2.228,0.173 4.03,0.173 c 1.473,0 2.422,0.942 2.422,2.228 0,1.38 -1.026,2.112 -2.596,2.84 L 2.848,5.721 C 1.743,6.26 0.175,7.199 0.175,9.523 c 0,2.439 1.705,4.223 4.204,4.223 1.066,0 2.655,-0.327 3.585,-0.672 V 10.252 H 7.615 c -0.988,1.805 -1.86,2.63 -3.353,2.63 -1.298,0 -2.053,-0.864 -2.053,-2.015 0,-1.288 0.775,-1.843 2.014,-2.439 L 5.251,7.949 C 6.917,7.161 8.487,6.26 8.487,3.878 8.487,1.172 6.549,-0.691 3.778,-0.691 2.655,-0.691 0.949,-0.383 0,0"
           style="fill:#f9f7f6;fill-opacity:1;fill-rule:nonzero;stroke:none"
           id="path834" />
      </g>
      <g
         id="g836"
         transform="translate(152.3088,669.8073)">
        <path
           d="m 0,0 h -0.348 c -1.183,1.938 -1.745,2.439 -3.45,2.439 H -4.262 V -7.986 c 0,-1.421 0.076,-2.38 1.394,-2.38 v -0.346 h -5.659 v 0.346 c 1.319,0 1.396,0.959 1.396,2.38 V 2.439 H -7.596 C -9.282,2.439 -9.863,1.938 -11.045,0 h -0.348 l 0.29,3.264 h 10.812 z"
           style="fill:#f9f7f6;fill-opacity:1;fill-rule:nonzero;stroke:none"
           id="path838" />
      </g>
      <g
         id="g840"
         transform="translate(174.2749,659.4408)">
        <path
           d="m 0,0 v -0.345 c -0.387,-0.038 -1.607,-0.078 -2.267,-0.078 -1.589,0 -1.859,0.482 -4.321,5.875 -0.29,0.654 -0.523,0.729 -1.144,0.729 H -8.177 V 2.38 C -8.177,0.961 -8.061,0 -6.742,0 v -0.345 h -5.697 V 0 c 1.317,0 1.394,0.961 1.394,2.38 v 8.523 c 0,1.421 -0.077,2.382 -1.394,2.382 v 0.345 h 5.87 c 3.275,0 4.941,-1.362 4.941,-3.591 0,-1.842 -1.298,-3.05 -3.119,-3.513 V 6.489 C -4.186,6.162 -3.682,5.452 -3.178,4.492 -1.162,0.673 -0.794,0.25 0,0 m -8.177,7.122 h 1.007 c 1.609,0 2.597,0.71 2.597,2.707 0,2.053 -0.776,2.976 -2.461,2.976 H -7.44 c -0.466,0 -0.737,-0.231 -0.737,-0.691 z"
           style="fill:#f9f7f6;fill-opacity:1;fill-rule:nonzero;stroke:none"
           id="path842" />
      </g>
      <g
         id="g844"
         transform="translate(193.2763,661.5524)">
        <path
           d="m 0,0 c 0.562,-1.555 0.95,-2.035 1.764,-2.112 v -0.345 h -5.736 v 0.345 c 1.142,0.077 1.492,0.48 1.104,1.593 L -3.585,1.593 H -7.731 L -7.79,1.421 c -0.794,-2.246 -0.677,-3.282 0.524,-3.533 v -0.345 h -3.352 v 0.345 c 0.466,0.251 0.968,1.307 1.783,3.649 l 3.585,10.136 h 1.065 z m -7.402,2.553 h 3.469 l -1.705,5.011 z"
           style="fill:#f9f7f6;fill-opacity:1;fill-rule:nonzero;stroke:none"
           id="path846" />
      </g>
      <g
         id="g848"
         transform="translate(203.7727,659.0952)">
        <path
           d="m 0,0 v 0.345 c 1.318,0 1.396,0.961 1.396,2.381 v 8.524 c 0,1.419 -0.078,2.38 -1.396,2.38 v 0.345 H 5.658 V 13.63 C 4.34,13.63 4.262,12.669 4.262,11.25 V 1.632 c 0,-0.499 0.175,-0.807 0.68,-0.807 h 0.619 c 1.744,0 2.732,0.787 4.146,3.303 h 0.349 L 9.494,0 Z"
           style="fill:#f9f7f6;fill-opacity:1;fill-rule:nonzero;stroke:none"
           id="path850" />
      </g>
      <g
         id="g852"
         transform="translate(223.2786,659.0952)">
        <path
           d="m 0,0 v 0.345 c 1.315,0 1.394,0.961 1.394,2.381 v 8.524 c 0,1.419 -0.079,2.38 -1.394,2.38 v 0.345 H 5.656 V 13.63 C 4.34,13.63 4.262,12.669 4.262,11.25 V 2.726 c 0,-1.42 0.078,-2.381 1.394,-2.381 V 0 Z"
           style="fill:#f9f7f6;fill-opacity:1;fill-rule:nonzero;stroke:none"
           id="path854" />
      </g>
      <g
         id="g856"
         transform="translate(248.8304,661.5524)">
        <path
           d="m 0,0 c 0.561,-1.555 0.95,-2.035 1.764,-2.112 v -0.345 h -5.736 v 0.345 c 1.142,0.077 1.492,0.48 1.106,1.593 L -3.584,1.593 H -7.731 L -7.79,1.421 c -0.794,-2.246 -0.678,-3.282 0.524,-3.533 v -0.345 h -3.352 v 0.345 c 0.465,0.251 0.968,1.307 1.782,3.649 l 3.586,10.136 h 1.065 z m -7.401,2.553 h 3.469 l -1.707,5.011 z"
           style="fill:#f9f7f6;fill-opacity:1;fill-rule:nonzero;stroke:none"
           id="path858" />
      </g>
      <g
         id="g860"
         transform="translate(268.0451,673.0706)">
        <path
           d="M 0,0 H 3.661 V -0.345 C 2.733,-0.383 2.539,-1.92 2.539,-3.878 V -14.129 H 1.452 l -7.633,11.326 v -6.968 c 0,-2.265 0.445,-3.821 1.433,-3.859 v -0.345 h -3.933 v 0.345 c 0.929,0.077 1.434,1.594 1.434,3.859 v 7.218 c 0,1.46 -0.832,2.055 -1.434,2.208 V 0 h 3.933 l 6.222,-9.407 v 5.529 c 0,1.958 -0.39,3.359 -1.474,3.533 z"
           style="fill:#f9f7f6;fill-opacity:1;fill-rule:nonzero;stroke:none"
           id="path862" />
      </g>
      <g
         id="g864"
         transform="translate(306.8657,673.0706)">
        <path
           d="M 0,0 H 3.353 V -0.345 C 2.829,-0.574 2.247,-1.651 1.57,-3.992 L -1.434,-14.129 H -2.5 l -2.828,9.119 -3.119,-9.119 h -1.087 l -3.624,11.672 c -0.483,1.555 -0.947,2.034 -1.762,2.112 V 0 h 5.62 v -0.345 c -1.048,-0.078 -1.396,-0.519 -1.048,-1.593 l 2.365,-7.795 2.132,6.392 -0.271,0.884 c -0.486,1.555 -0.95,2.034 -1.706,2.112 V 0 h 5.638 v -0.345 c -1.143,-0.078 -1.471,-0.498 -1.143,-1.593 l 2.267,-7.45 1.609,5.587 C 1.221,-1.478 1.2,-0.596 0,-0.345 Z"
           style="fill:#f9f7f6;fill-opacity:1;fill-rule:nonzero;stroke:none"
           id="path866" />
      </g>
      <g
         id="g868"
         transform="translate(319.4934,659.0952)">
        <path
           d="m 0,0 v 0.345 c 1.315,0 1.394,0.961 1.394,2.381 v 8.524 c 0,1.419 -0.079,2.38 -1.394,2.38 v 0.345 H 5.656 V 13.63 C 4.34,13.63 4.262,12.669 4.262,11.25 V 2.726 c 0,-1.42 0.078,-2.381 1.394,-2.381 V 0 Z"
           style="fill:#f9f7f6;fill-opacity:1;fill-rule:nonzero;stroke:none"
           id="path870" />
      </g>
      <g
         id="g872"
         transform="translate(343.7063,673.0706)">
        <path
           d="M 0,0 H 3.661 V -0.345 C 2.732,-0.383 2.539,-1.92 2.539,-3.878 V -14.129 H 1.452 l -7.633,11.326 v -6.968 c 0,-2.265 0.445,-3.821 1.433,-3.859 v -0.345 h -3.933 v 0.345 c 0.929,0.077 1.434,1.594 1.434,3.859 v 7.218 c 0,1.46 -0.832,2.055 -1.434,2.208 V 0 h 3.933 l 6.222,-9.407 v 5.529 c 0,1.958 -0.39,3.359 -1.474,3.533 z"
           style="fill:#f9f7f6;fill-opacity:1;fill-rule:nonzero;stroke:none"
           id="path874" />
      </g>
      <g
         id="g876"
         transform="translate(367.9779,662.7435)">
        <path
           d="m 0,0 -0.483,-3.648 h -10.193 v 0.345 c 1.317,0 1.394,0.961 1.394,2.38 v 8.524 c 0,1.42 -0.077,2.381 -1.394,2.381 v 0.345 h 9.901 l 0.27,-3.264 h -0.348 c -1.181,1.94 -1.82,2.439 -3.97,2.439 H -6.412 V 4.087 h 1.143 c 1.898,0 2.246,0.596 2.711,1.634 h 0.349 V 1.362 h -0.349 c -0.483,1.133 -0.813,1.805 -2.711,1.805 h -1.143 v -5.108 c 0,-0.537 0.153,-0.883 0.773,-0.883 h 1.065 c 1.959,0 2.869,0.385 4.226,2.824 z"
           style="fill:#f9f7f6;fill-opacity:1;fill-rule:nonzero;stroke:none"
           id="path878" />
      </g>
    </g>
  </g>
</svg>
