<?xml version="1.0" encoding="UTF-8" standalone="no"?>
<!-- Created with Inkscape (http://www.inkscape.org/) -->

<svg
   width="133.27901mm"
   height="18.254mm"
   viewBox="0 0 133.27901 18.254"
   version="1.1"
   id="svg1779"
   sodipodi:docname="logo-rare-penny-front.svg"
   inkscape:version="1.2.2 (b0a8486541, 2022-12-01)"
   xmlns:inkscape="http://www.inkscape.org/namespaces/inkscape"
   xmlns:sodipodi="http://sodipodi.sourceforge.net/DTD/sodipodi-0.dtd"
   xmlns="http://www.w3.org/2000/svg"
   xmlns:svg="http://www.w3.org/2000/svg">
  <sodipodi:namedview
     id="namedview1781"
     pagecolor="#ffffff"
     bordercolor="#000000"
     borderopacity="0.25"
     inkscape:showpageshadow="2"
     inkscape:pageopacity="0.0"
     inkscape:pagecheckerboard="0"
     inkscape:deskcolor="#d1d1d1"
     inkscape:document-units="mm"
     showgrid="false"
     inkscape:zoom="1.8721465"
     inkscape:cx="331.17066"
     inkscape:cy="130.59875"
     inkscape:window-width="1920"
     inkscape:window-height="1044"
     inkscape:window-x="0"
     inkscape:window-y="0"
     inkscape:window-maximized="1"
     inkscape:current-layer="layer1" />
  <defs
     id="defs1776">
    <clipPath
       clipPathUnits="userSpaceOnUse"
       id="clipPath98">
      <path
         d="M 0,6822.56 H 1920 V 0 H 0 Z"
         id="path96" />
    </clipPath>
  </defs>
  <g
     inkscape:label="Layer 1"
     inkscape:groupmode="layer"
     id="layer1">
    <g
       id="g94"
       clip-path="url(#clipPath98)"
       transform="matrix(0.35277777,0,0,-0.35277777,-272.03643,2388.7545)">
      <g
         id="g100"
         transform="translate(964.7959,6743.5278)">
        <path
           d="m 0,0 c 4.611,0 17.146,1.138 17.146,14.241 0,10.376 -8.119,13.495 -16.12,13.495 H 0.962 l -16.947,0.009 v -1.776 c 2.511,0 4.639,-1.633 4.639,-5.036 v -38.075 c 0,-3.399 -2.126,-5.032 -4.631,-5.036 h -0.008 v -10e-4 -1.774 -0.045 h 18.02 v 0.045 1.774 10e-4 H 2.026 c -2.504,0.004 -4.254,1.637 -4.254,5.036 V 0 Z m -2.228,23.844 c 0,1.149 0.94,2.08 2.1,2.08 h 1.09 c 4.381,0 6.619,-4.622 6.619,-12.183 C 7.581,6.267 5.405,1.812 0.962,1.812 h -3.19 z"
           style="fill:#f9f7f6;fill-opacity:1;fill-rule:nonzero;stroke:none"
           id="path102" />
      </g>
      <g
         id="g104"
         transform="translate(930.9801,6732.6738)">
        <path
           d="m 0,0 c -1.367,-4.227 -6.26,-11.328 -10.989,-11.328 h -2.559 c -2.049,0 -3.711,1.77 -3.711,4.794 v 22.232 h 3.225 c 3.329,-0.019 4.624,-2.996 5.849,-7.599 h 1.324 v 7.972 1.447 7.972 h -1.324 c -1.225,-4.603 -2.52,-7.952 -5.849,-7.972 h -3.225 v 16.741 c 0,1.527 1.061,2.523 2.328,2.523 h 2.814 c 3.386,0 6.588,-2.791 10.237,-9.465 H 0.008 L -2.06,38.598 h -29.143 v -0.044 -1.775 -0.001 h 0.008 c 2.504,-0.004 4.818,-1.811 4.818,-5.492 V -3.677 c 0,-6.513 -2.126,-7.643 -4.63,-7.647 h -0.009 v -10e-4 -1.774 -0.045 H 0.196 L 1.888,0 Z"
           style="fill:#f9f7f6;fill-opacity:1;fill-rule:nonzero;stroke:none"
           id="path106" />
      </g>
      <g
         id="g108"
         transform="translate(889.7225,6726.3413)">
        <path
           d="m 0,0 -8.903,19.692 c 6.3,2.203 8.523,7.033 8.523,12.107 0,10.378 -8.118,13.124 -16.119,13.124 h -0.064 l -16.571,0.008 v -1.775 c 2.511,0 4.263,-1.633 4.263,-5.036 V 0.044 c 0,-3.398 -1.751,-5.032 -4.255,-5.036 h -0.008 v -0.001 -1.774 -0.045 h 17.644 v 0.045 1.774 0.001 h -0.009 c -2.504,0.004 -4.254,1.638 -4.254,5.036 v 17.888 h 2.228 l 8.077,-19.101 c 0.797,-2.644 -0.603,-3.868 -2.81,-3.868 V -6.812 H 5.969 v 1.775 C 4.02,-4.756 1.978,-3.804 0,0 m -16.563,19.744 h -3.19 v 21.287 c 0,1.148 0.94,2.08 2.1,2.08 h 1.09 c 4.381,0 6.619,-4.25 6.619,-11.81 0,-7.476 -2.176,-11.557 -6.619,-11.557"
           style="fill:#f9f7f6;fill-opacity:1;fill-rule:nonzero;stroke:none"
           id="path110" />
      </g>
      <g
         id="g112"
         transform="translate(846.632,6728.4165)">
        <path
           d="M 0,0 -13.38,42.855 -18.404,42.853 -30.338,0.349 c -1.559,-5.727 -3.883,-7.234 -6.259,-7.429 -1.89,0.318 -3.863,1.328 -5.774,5.004 l -8.904,19.693 c 6.301,2.202 8.523,7.032 8.523,12.107 0,10.378 -8.117,13.124 -16.119,13.124 l -16.634,0.007 v -1.774 c 2.51,0 4.262,-1.633 4.262,-5.037 V -2.031 c 0,-3.399 -1.75,-5.031 -4.254,-5.036 h -0.008 v -1.775 -0.044 h 17.643 v 0.044 1.775 h -0.008 c -2.504,0.005 -4.254,1.637 -4.254,5.036 v 17.887 h 2.228 l 8.076,-19.101 c 0.797,-2.644 -0.601,-3.867 -2.809,-3.867 v -1.774 h 30.328 v 1.819 c -3.789,0 -5.67,2.502 -4.347,6.922 l 2.783,9.965 h 13.289 l 3.129,-10.392 c 1.5,-5.051 -0.716,-6.495 -3.014,-6.495 l -0.002,-1.819 H 6.593 l 0.001,1.819 C 3.476,-7.067 2.008,-6.462 0,0 m -58.934,17.668 h -3.19 v 21.288 c 0,1.148 0.94,2.08 2.099,2.08 h 1.091 c 4.38,0 6.618,-4.25 6.618,-11.81 0,-7.476 -2.176,-11.558 -6.618,-11.558 m 33.548,-6.137 6.108,21.872 6.212,-21.872 z"
           style="fill:#f9f7f6;fill-opacity:1;fill-rule:nonzero;stroke:none"
           id="path114" />
      </g>
      <g
         id="g116"
         transform="translate(1017.5903,6732.6738)">
        <path
           d="m 0,0 c -1.367,-4.227 -6.26,-11.328 -10.988,-11.328 h -2.56 c -2.049,0 -3.711,1.77 -3.711,4.794 v 22.232 h 3.225 c 3.329,-0.019 4.624,-2.996 5.849,-7.599 h 1.324 v 7.972 1.447 7.972 h -1.324 c -1.225,-4.603 -2.52,-7.952 -5.849,-7.972 h -3.225 v 16.741 c 0,1.527 1.061,2.523 2.328,2.523 h 2.814 c 3.386,0 6.588,-2.791 10.237,-9.465 H 0.008 L -2.06,38.598 h -29.143 v -0.044 -1.775 -0.001 h 0.008 c 2.504,-0.004 4.818,-1.811 4.818,-5.492 V -3.677 c 0,-6.513 -2.126,-7.643 -4.63,-7.647 h -0.009 v -10e-4 -1.774 -0.045 H 0.196 L 1.888,0 Z"
           style="fill:#f9f7f6;fill-opacity:1;fill-rule:nonzero;stroke:none"
           id="path118" />
      </g>
      <g
         id="g120"
         transform="translate(1048.6829,6771.2236)">
        <path
           d="m 0,0 v -1.774 -10e-4 h 0.008 c 2.511,-0.004 5.44,-0.954 5.558,-6.726 V -32.783 L -13.386,0.045 H -26.54 L -26.518,0 -26.552,-1.774 v -10e-4 h 0.008 c 2.735,0 4.995,-2.175 4.995,-6.009 v -35.412 c -0.173,-5.865 -3.023,-6.67 -5.554,-6.674 h -0.009 v -0.001 -1.774 -0.045 h 13.15 v 0.045 1.774 0.001 h -0.008 c -2.51,0.004 -5.439,0.953 -5.558,6.725 V -7.439 L 5.566,-51.677 v -0.013 h 2.022 v 43.241 c 0.173,5.865 3.023,6.67 5.554,6.674 H 13.15 V -1.774 0 0.045 H 0 Z"
           style="fill:#f9f7f6;fill-opacity:1;fill-rule:nonzero;stroke:none"
           id="path122" />
      </g>
      <g
         id="g124"
         transform="translate(1093.3199,6771.2236)">
        <path
           d="m 0,0 v -1.774 -10e-4 h 0.008 c 2.511,-0.004 5.44,-0.954 5.558,-6.726 V -32.783 L -13.385,0.045 H -26.54 L -26.517,0 -26.552,-1.774 v -10e-4 h 0.008 c 2.735,0 4.995,-2.175 4.995,-6.009 v -35.412 c -0.173,-5.865 -3.023,-6.67 -5.554,-6.674 h -0.008 v -0.001 -1.774 -0.045 h 13.149 v 0.045 1.774 0.001 h -0.008 c -2.51,0.004 -5.439,0.953 -5.558,6.725 V -7.439 L 5.566,-51.677 v -0.013 h 2.022 v 43.241 c 0.173,5.865 3.023,6.67 5.554,6.674 H 13.15 V -1.774 0 0.045 H 0 Z"
           style="fill:#f9f7f6;fill-opacity:1;fill-rule:nonzero;stroke:none"
           id="path126" />
      </g>
      <g
         id="g128"
         transform="translate(1136.4266,6771.272)">
        <path
           d="m 0,0 -0.102,-1.82 c 3.789,0 4.912,-3.12 3.243,-6.922 l -7.586,-17.289 c -3.433,8.843 -7.964,17.717 -7.964,17.717 -2.191,4.692 0.577,6.494 3.014,6.494 L -9.394,0 h -18.302 l -0.002,-1.82 c 3.119,0 4.108,-1.204 6.595,-7.067 l 8.75,-19.933 v -16.066 c 0,-3.4 -2.126,-5.032 -4.631,-5.036 h -0.008 v -0.001 -1.775 -0.044 H 1.027 v 0.044 1.775 0.001 H 1.019 c -2.504,0.004 -4.254,1.636 -4.254,5.036 v 17.51 l 7.987,18.14 c 2.673,6.192 5.078,7.454 7.65,7.454 L 12.499,0 Z"
           style="fill:#f9f7f6;fill-opacity:1;fill-rule:nonzero;stroke:none"
           id="path130" />
      </g>
    </g>
  </g>
</svg>
