<?xml version="1.0" encoding="UTF-8"?>
<svg id="b" data-name="Layer 2" xmlns="http://www.w3.org/2000/svg" width="133.279mm" height="37.73mm" viewBox="0 0 377.799 106.952">
  <g id="c" data-name="Layer 1">
    <g>
      <path d="M191.441,31.498c0-1.149.941-2.08,2.1-2.08h1.09c4.381,0,6.619,4.623,6.619,12.183,0,7.475-2.176,11.929-6.619,11.929h-3.19v-22.032ZM193.669,55.342c4.611,0,17.146-1.138,17.146-14.241,0-10.376-8.119-13.496-16.12-13.496h-.064l-16.947-.008v1.775c2.51,0,4.638,1.633,4.638,5.036v38.075c0,3.399-2.126,5.033-4.63,5.036h-.008v1.82h18.02v-1.819h0s-.009,0-.009,0c-2.504-.004-4.254-1.637-4.254-5.036v-17.142h2.228Z" fill="#b30838"/>
      <path d="M159.853,66.196c-1.367,4.227-6.26,11.329-10.989,11.329h-2.559c-2.05,0-3.711-1.771-3.711-4.794v-22.232h3.224c3.329.019,4.625,2.996,5.849,7.599h1.324v-17.39h-1.324c-1.225,4.602-2.52,7.952-5.849,7.972h-3.224v-16.741c0-1.527,1.061-2.523,2.328-2.523h2.814c3.386,0,6.587,2.791,10.236,9.465h1.888l-2.068-11.281h-29.143v1.819h0s.008,0,.008,0c2.504.004,4.818,1.811,4.818,5.492v34.963c0,6.514-2.126,7.644-4.63,7.647h-.009v1.82h31.212l1.692-13.144h-1.888Z" fill="#b30838"/>
      <path d="M102.033,52.785h-3.19v-21.287c0-1.149.94-2.08,2.1-2.08h1.09c4.381,0,6.619,4.25,6.619,11.81,0,7.476-2.176,11.557-6.619,11.557M118.596,72.529l-8.903-19.692c6.3-2.203,8.523-7.033,8.523-12.108,0-10.377-8.118-13.124-16.119-13.124h-.064l-16.571-.008v1.775c2.51,0,4.262,1.633,4.262,5.036v38.075c0,3.399-1.75,5.033-4.254,5.036h-.008v1.82h17.643v-1.819h0s-.008,0-.008,0c-2.504-.004-4.254-1.637-4.254-5.036v-17.887h2.228l8.077,19.101c.797,2.644-.603,3.867-2.81,3.867v1.775h18.227v-1.775c-1.948-.281-3.991-1.233-5.969-5.036" fill="#b30838"/>
      <path d="M50.119,58.922l6.109-21.872,6.212,21.872h-12.32ZM16.571,52.785h-3.19v-21.287c0-1.149.941-2.08,2.1-2.08h1.09c4.381,0,6.619,4.25,6.619,11.81,0,7.476-2.176,11.557-6.619,11.557M75.505,70.454l-13.38-42.856-5.024.003-11.935,42.504c-1.559,5.727-3.883,7.234-6.259,7.428-1.889-.317-3.863-1.327-5.774-5.004l-8.903-19.693c6.3-2.202,8.523-7.032,8.523-12.107,0-10.377-8.118-13.124-16.119-13.124l-16.635-.008v1.775c2.51,0,4.262,1.633,4.262,5.036v38.075c0,3.399-1.75,5.032-4.254,5.036h-.008v1.819h17.643v-1.819h-.008c-2.504-.004-4.254-1.637-4.254-5.036v-17.887h2.228l8.077,19.101c.797,2.644-.602,3.867-2.809,3.867v1.774h30.327v-1.819c-3.789,0-5.669-2.502-4.347-6.922l2.783-9.965h13.289l3.129,10.392c1.5,5.051-.716,6.495-3.014,6.495l-.002,1.819h19.055l.002-1.819c-3.118,0-4.586-.604-6.594-7.067" fill="#b30838"/>
      <path d="M246.464,66.196c-1.367,4.227-6.26,11.329-10.988,11.329h-2.56c-2.05,0-3.711-1.771-3.711-4.794v-22.232h3.224c3.329.019,4.625,2.996,5.849,7.599h1.324v-17.39h-1.324c-1.225,4.602-2.52,7.952-5.849,7.972h-3.224v-16.741c0-1.527,1.061-2.523,2.328-2.523h2.814c3.386,0,6.587,2.791,10.236,9.465h1.888l-2.068-11.281h-29.143v1.819h0s.008,0,.008,0c2.504.004,4.818,1.811,4.818,5.492v34.963c0,6.514-2.126,7.644-4.63,7.647h-.009v1.82h31.212l1.692-13.144h-1.888Z" fill="#b30838"/>
      <path d="M277.556,27.647v1.774h0s.008,0,.008,0c2.511.004,5.44.953,5.558,6.725v24.283l-18.952-32.828h-13.154l.022.045-.034,1.774h0s.008,0,.008,0c2.735,0,4.995,2.174,4.995,6.008v35.413c-.173,5.865-3.023,6.67-5.554,6.673h-.009v1.82h13.15v-1.819h0s-.008,0-.008,0c-2.51-.004-5.439-.953-5.558-6.725v-35.705l25.094,44.238v.013h2.022v-43.241c.173-5.865,3.023-6.67,5.554-6.673h.008v-1.82h-13.15v.045Z" fill="#b30838"/>
      <path d="M322.193,27.647v1.774h0s.008,0,.008,0c2.511.004,5.44.953,5.558,6.725v24.283l-18.951-32.828h-13.155l.023.045-.035,1.774h0s.008,0,.008,0c2.735,0,4.995,2.174,4.995,6.008v35.413c-.173,5.865-3.023,6.67-5.554,6.673h-.008v1.82h13.149v-1.819h0s-.008,0-.008,0c-2.51-.004-5.439-.953-5.558-6.725v-35.705l25.094,44.238v.013h2.022v-43.241c.173-5.865,3.023-6.67,5.554-6.673h.008v-1.82h-13.15v.045Z" fill="#b30838"/>
      <path d="M365.3,27.598l-.102,1.82c3.789,0,4.912,3.12,3.243,6.922l-7.586,17.289c-3.433-8.843-7.964-17.717-7.964-17.717-2.191-4.693.577-6.494,3.014-6.494v-1.82s-18.301,0-18.301,0l-.002,1.82c3.118,0,4.108,1.204,6.594,7.067l8.75,19.933v16.066c0,3.399-2.126,5.032-4.631,5.035h-.008v1.82h18.02v-1.819h0s-.008,0-.008,0c-2.504-.004-4.254-1.636-4.254-5.035v-17.511l7.987-18.14c2.673-6.192,5.078-7.454,7.65-7.454l.098-1.782h-12.499Z" fill="#b30838"/>
      <path d="M93.609,4.853c2.626,4.567,3.986,6.391,4.675,6.597v.286c-.577.063-1.522.063-1.889.063-1.553,0-2.081-1.014-4.69-5.772l2.513-3.204c.656-.841.993-1.348.993-1.871,0-.349-.192-.445-.497-.476V.19h3.282v.286c-.704.174-1.665,1.031-3.041,2.744l-1.345,1.634ZM91.352,9.484c0,1.174.065,1.966,1.153,1.966v.286h-4.674v-.286c1.088,0,1.153-.793,1.153-1.966V2.443c0-1.175-.065-1.967-1.153-1.967V.19h4.674v.286c-1.088,0-1.153.793-1.153,1.967v7.041Z" fill="#b30838"/>
      <path d="M106.698,7.993V2.442c0-1.174-.065-1.967-1.153-1.967V.19h4.691v.285c-1.089,0-1.153.793-1.153,1.967v5.535c0,2.157.832,2.966,2.465,2.966,1.456,0,2.481-.888,2.481-3.013V3.394c0-1.49-.192-2.775-1.056-2.918V.19h2.881v.285c-.848.143-.928,1.428-.928,2.918v4.536c0,2.696-1.425,3.996-4.002,3.996-2.689,0-4.226-1.158-4.226-3.932" fill="#b30838"/>
      <path d="M123.931,11.736v-.286c1.088,0,1.153-.793,1.153-1.966V2.442c0-1.174-.065-1.967-1.153-1.967V.19h4.674v.285c-1.088,0-1.153.793-1.153,1.967v7.946c0,.412.144.665.561.665h.512c1.44,0,2.257-.65,3.425-2.727h.288l-.464,3.41h-7.843Z" fill="#b30838"/>
      <path d="M142.285,7.597h2.865l-1.409-4.14-1.456,4.14ZM148.399,9.705c.464,1.285.785,1.681,1.457,1.745v.285h-4.739v-.285c.944-.064,1.233-.397.913-1.316l-.593-1.745h-3.425l-.048.143c-.656,1.856-.559,2.711.432,2.918v.285h-2.769v-.285c.385-.207.8-1.079,1.473-3.013L144.062.063h.88l3.457,9.642Z" fill="#b30838"/>
      <path d="M160.591,5.567h.832c1.329,0,2.146-.586,2.146-2.236,0-1.697-.641-2.458-2.033-2.458h-.335c-.385,0-.609.191-.609.571v4.123ZM167.346,11.45v.286c-.32.031-1.328.063-1.873.063-1.313,0-1.536-.396-3.569-4.852-.239-.54-.432-.603-.945-.603h-.368v3.141c0,1.173.096,1.966,1.185,1.966v.286h-4.706v-.286c1.088,0,1.152-.793,1.152-1.966V2.443c0-1.175-.064-1.967-1.152-1.967V.19h4.85c2.705,0,4.081,1.127,4.081,2.966,0,1.522-1.072,2.522-2.577,2.902v.031c.464.27.88.857,1.296,1.65,1.665,3.156,1.969,3.505,2.625,3.711" fill="#b30838"/>
      <path d="M176.928,7.597h2.866l-1.409-4.14-1.457,4.14ZM183.043,9.705c.464,1.285.785,1.681,1.457,1.745v.285h-4.739v-.285c.944-.064,1.233-.397.913-1.316l-.593-1.745h-3.425l-.048.143c-.656,1.856-.559,2.711.432,2.918v.285h-2.77v-.285c.386-.207.801-1.079,1.474-3.013L178.706.063h.88l3.457,9.642Z" fill="#b30838"/>
      <path d="M209.926,8.722l-.4,3.013h-8.419v-.286c1.088,0,1.151-.793,1.151-1.966V2.443c0-1.175-.064-1.967-1.151-1.967V.189h8.178l.224,2.697h-.288c-.976-1.601-1.504-2.015-3.28-2.015h-1.313v4.473h.944c1.568,0,1.856-.492,2.24-1.348h.289v3.6h-.289c-.399-.936-.672-1.49-2.24-1.49h-.944v4.218c0,.444.126.73.638.73h.88c1.618,0,2.37-.317,3.49-2.331h.289Z" fill="#b30838"/>
      <path d="M218.181,11.355l-.111-2.918h.287c.768,1.761,1.665,2.776,3.154,2.776,1.216,0,2-.778,2-1.84,0-1.142-.849-1.745-2.144-2.347l-.834-.397c-.912-.444-2.208-1.221-2.208-3.139,0-2.015,1.408-3.49,3.473-3.49.88,0,2.193.27,2.962.555v2.331h-.289c-.816-1.49-1.537-2.172-2.77-2.172-1.072,0-1.696.714-1.696,1.665,0,1.062.641,1.522,1.665,2.014l.847.396c1.377.651,2.675,1.396,2.675,3.362,0,2.237-1.601,3.775-3.889,3.775-.929,0-2.337-.254-3.122-.571" fill="#b30838"/>
      <path d="M242.424,2.886h-.287c-.977-1.601-1.441-2.015-2.848-2.015h-.386v8.612c0,1.174.064,1.966,1.152,1.966v.286h-4.674v-.286c1.088,0,1.153-.793,1.153-1.966V.872h-.384c-1.392,0-1.873.413-2.849,2.015h-.288l.239-2.697h8.932l.239,2.697Z" fill="#b30838"/>
      <path d="M251.336,7.597h2.866l-1.41-4.14-1.455,4.14ZM257.45,9.705c.464,1.285.785,1.681,1.457,1.745v.285h-4.739v-.285c.944-.064,1.233-.397.913-1.316l-.592-1.745h-3.426l-.048.143c-.656,1.856-.56,2.711.432,2.918v.285h-2.769v-.285c.384-.207.8-1.079,1.472-3.013L253.113.063h.88l3.457,9.642Z" fill="#b30838"/>
      <path d="M274.061,2.886h-.288c-.976-1.601-1.44-2.015-2.848-2.015h-.386v8.612c0,1.174.064,1.966,1.153,1.966v.286h-4.675v-.286c1.089,0,1.153-.793,1.153-1.966V.872h-.384c-1.392,0-1.873.413-2.849,2.015h-.288l.239-2.697h8.932l.239,2.697Z" fill="#b30838"/>
      <path d="M290.752,8.722l-.399,3.013h-8.42v-.286c1.088,0,1.151-.793,1.151-1.966V2.443c0-1.175-.064-1.967-1.151-1.967V.189h8.178l.224,2.697h-.288c-.976-1.601-1.504-2.015-3.28-2.015h-1.313v4.473h.944c1.568,0,1.856-.492,2.24-1.348h.289v3.6h-.289c-.399-.936-.672-1.49-2.24-1.49h-.944v4.218c0,.444.126.73.638.73h.88c1.618,0,2.371-.317,3.49-2.331h.288Z" fill="#b30838"/>
      <path d="M73.161,102.622h2.866l-1.409-4.14-1.457,4.14ZM79.276,104.731c.464,1.285.785,1.681,1.457,1.745v.285h-4.739v-.285c.944-.064,1.233-.396.913-1.316l-.593-1.745h-3.425l-.048.143c-.656,1.855-.559,2.711.432,2.918v.285h-2.769v-.285c.385-.207.8-1.08,1.473-3.014l2.961-8.373h.88l3.457,9.643Z" fill="#b30838"/>
      <path d="M88.411,103.018v-5.55c0-1.173-.065-1.966-1.153-1.966v-.285h4.691v.285c-1.089,0-1.153.793-1.153,1.966v5.535c0,2.157.832,2.966,2.465,2.966,1.456,0,2.481-.888,2.481-3.013v-4.537c0-1.491-.192-2.774-1.056-2.918v-.285h2.881v.285c-.848.143-.928,1.426-.928,2.918v4.537c0,2.696-1.425,3.996-4.002,3.996-2.689,0-4.226-1.158-4.226-3.934" fill="#b30838"/>
      <path d="M105.741,106.381l-.112-2.919h.289c.767,1.762,1.664,2.777,3.152,2.777,1.217,0,2.001-.778,2.001-1.841,0-1.14-.848-1.745-2.145-2.346l-.833-.396c-.913-.446-2.208-1.221-2.208-3.141,0-2.015,1.409-3.489,3.473-3.489.88,0,2.193.27,2.961.555v2.331h-.289c-.816-1.491-1.537-2.172-2.77-2.172-1.072,0-1.696.714-1.696,1.665,0,1.063.64,1.522,1.664,2.015l.849.395c1.376.651,2.674,1.395,2.674,3.363,0,2.235-1.601,3.775-3.89,3.775-.928,0-2.337-.255-3.121-.571" fill="#b30838"/>
      <path d="M129.986,97.912h-.288c-.977-1.601-1.441-2.015-2.849-2.015h-.384v8.612c0,1.174.063,1.966,1.152,1.966v.286h-4.675v-.286c1.089,0,1.153-.793,1.153-1.966v-8.612h-.385c-1.392,0-1.872.413-2.848,2.015h-.288l.239-2.696h8.932l.24,2.696Z" fill="#b30838"/>
      <path d="M141.377,100.592h.832c1.329,0,2.146-.586,2.146-2.236,0-1.696-.641-2.458-2.033-2.458h-.335c-.385,0-.609.191-.609.571v4.123ZM148.132,106.476v.285c-.32.031-1.328.065-1.873.065-1.313,0-1.536-.398-3.569-4.853-.239-.541-.432-.603-.945-.603h-.368v3.14c0,1.173.096,1.966,1.185,1.966v.285h-4.706v-.285c1.088,0,1.152-.793,1.152-1.966v-7.041c0-1.174-.064-1.967-1.152-1.967v-.285h4.85c2.705,0,4.081,1.125,4.081,2.966,0,1.522-1.072,2.52-2.577,2.902v.03c.464.271.88.857,1.296,1.65,1.665,3.155,1.969,3.505,2.625,3.711" fill="#b30838"/>
      <path d="M157.714,102.622h2.866l-1.409-4.14-1.457,4.14ZM163.829,104.731c.464,1.285.785,1.681,1.457,1.745v.285h-4.739v-.285c.944-.064,1.233-.396.913-1.316l-.593-1.745h-3.425l-.048.143c-.656,1.855-.559,2.711.432,2.918v.285h-2.769v-.285c.385-.207.8-1.08,1.473-3.014l2.961-8.373h.88l3.457,9.643Z" fill="#b30838"/>
      <path d="M172.5,106.761v-.285c1.088,0,1.153-.793,1.153-1.967v-7.041c0-1.173-.065-1.966-1.153-1.966v-.285h4.674v.285c-1.088,0-1.153.793-1.153,1.966v7.945c0,.412.144.667.561.667h.512c1.441,0,2.257-.65,3.425-2.728h.288l-.464,3.41h-7.843Z" fill="#b30838"/>
      <path d="M188.613,106.761v-.285c1.087,0,1.151-.793,1.151-1.967v-7.041c0-1.173-.065-1.966-1.151-1.966v-.285h4.672v.285c-1.087,0-1.151.793-1.151,1.966v7.041c0,1.174.065,1.967,1.151,1.967v.285h-4.672Z" fill="#b30838"/>
      <path d="M203.608,102.622h2.866l-1.41-4.14-1.455,4.14ZM209.721,104.731c.464,1.285.785,1.681,1.457,1.745v.285h-4.739v-.285c.944-.064,1.233-.396.914-1.316l-.593-1.745h-3.426l-.048.143c-.656,1.855-.56,2.711.432,2.918v.285h-2.769v-.285c.384-.207.8-1.08,1.472-3.014l2.962-8.373h.88l3.457,9.643Z" fill="#b30838"/>
      <path d="M225.595,95.216h3.024v.285c-.767.031-.927,1.301-.927,2.918v8.468h-.897l-6.306-9.356v5.756c0,1.871.368,3.156,1.184,3.187v.285h-3.248v-.285c.767-.064,1.184-1.316,1.184-3.187v-5.963c0-1.206-.688-1.697-1.184-1.824v-.285h3.248l5.14,7.771v-4.567c0-1.617-.322-2.775-1.218-2.918v-.285Z" fill="#b30838"/>
      <path d="M257.664,95.216h2.77v.285c-.432.189-.914,1.079-1.472,3.013l-2.482,8.374h-.88l-2.337-7.533-2.577,7.533h-.898l-2.994-9.642c-.399-1.285-.783-1.68-1.456-1.745v-.285h4.643v.285c-.865.065-1.153.429-.865,1.316l1.954,6.439,1.761-5.281-.224-.73c-.401-1.285-.785-1.68-1.409-1.745v-.285h4.657v.285c-.944.065-1.215.412-.944,1.316l1.873,6.154,1.329-4.616c.56-1.919.543-2.648-.448-2.855v-.285Z" fill="#b30838"/>
      <path d="M268.096,106.761v-.285c1.087,0,1.151-.793,1.151-1.967v-7.041c0-1.173-.065-1.966-1.151-1.966v-.285h4.672v.285c-1.087,0-1.151.793-1.151,1.966v7.041c0,1.174.065,1.967,1.151,1.967v.285h-4.672Z" fill="#b30838"/>
      <path d="M288.098,95.216h3.024v.285c-.767.031-.927,1.301-.927,2.918v8.468h-.898l-6.306-9.356v5.756c0,1.871.368,3.156,1.184,3.187v.285h-3.248v-.285c.767-.064,1.184-1.316,1.184-3.187v-5.963c0-1.206-.688-1.697-1.184-1.824v-.285h3.248l5.14,7.771v-4.567c0-1.617-.322-2.775-1.218-2.918v-.285Z" fill="#b30838"/>
      <path d="M308.148,103.747l-.399,3.013h-8.42v-.285c1.088,0,1.151-.793,1.151-1.966v-7.041c0-1.174-.064-1.967-1.151-1.967v-.285h8.179l.223,2.696h-.288c-.976-1.602-1.504-2.015-3.28-2.015h-1.313v4.473h.944c1.568,0,1.856-.492,2.24-1.349h.289v3.601h-.289c-.399-.936-.672-1.491-2.24-1.491h-.944v4.219c0,.444.126.73.638.73h.88c1.618,0,2.37-.318,3.49-2.333h.288Z" fill="#b30838"/>
    </g>
  </g>
</svg>