<?xml version="1.0" encoding="UTF-8" standalone="no"?>
<!-- Created with Inkscape (http://www.inkscape.org/) -->

<svg
   width="100.657mm"
   height="99.341003mm"
   viewBox="0 0 100.657 99.341003"
   version="1.1"
   id="svg1895"
   inkscape:version="1.2.2 (b0a8486541, 2022-12-01)"
   sodipodi:docname="stamp.svg"
   xmlns:inkscape="http://www.inkscape.org/namespaces/inkscape"
   xmlns:sodipodi="http://sodipodi.sourceforge.net/DTD/sodipodi-0.dtd"
   xmlns="http://www.w3.org/2000/svg"
   xmlns:svg="http://www.w3.org/2000/svg">
  <sodipodi:namedview
     id="namedview1897"
     pagecolor="#ffffff"
     bordercolor="#000000"
     borderopacity="0.25"
     inkscape:showpageshadow="2"
     inkscape:pageopacity="0.0"
     inkscape:pagecheckerboard="0"
     inkscape:deskcolor="#d1d1d1"
     inkscape:document-units="mm"
     showgrid="false"
     inkscape:zoom="0.66190376"
     inkscape:cx="397.33873"
     inkscape:cy="561.25984"
     inkscape:window-width="1920"
     inkscape:window-height="1044"
     inkscape:window-x="0"
     inkscape:window-y="0"
     inkscape:window-maximized="1"
     inkscape:current-layer="layer1" />
  <defs
     id="defs1892" />
  <g
     inkscape:label="Layer 1"
     inkscape:groupmode="layer"
     id="layer1">
    <g
       id="g1537"
       transform="matrix(0.35277777,0,0,-0.35277777,-118.25095,1816.2077)">
      <g
         id="g966"
         transform="translate(469.7173,5128.1855)">
        <path
           d="M 0,0 C -1.46,0.195 -2.903,0.453 -4.291,0.761 -4.704,0.85 -5.135,0.75 -5.465,0.492 -5.796,0.229 -5.996,-0.167 -6.002,-0.587 c -0.006,-0.269 -0.011,-0.537 -0.011,-0.806 0,-0.274 0.005,-0.542 0.011,-0.816 0.006,-0.42 0.206,-0.817 0.537,-1.075 0.251,-0.201 0.559,-0.301 0.872,-0.301 0.101,0 0.202,0.01 0.302,0.027 1.377,0.303 2.82,0.559 4.291,0.761 0.699,0.095 1.219,0.694 1.219,1.399 C 1.219,-0.693 0.699,-0.095 0,0"
           style="fill:#b28c64;fill-opacity:1;fill-rule:nonzero;stroke:none"
           id="path968" />
      </g>
      <g
         id="g970"
         transform="translate(493.518,5041.2822)">
        <path
           d="m 0,0 c 1.74,-1.941 4.799,-2.679 7.708,-1.639 0.867,0.313 1.645,0.761 2.311,1.298 C 9.219,-0.481 8.435,-0.498 7.691,-0.397 5.818,-0.146 4.19,0.839 3.071,2.366 2.411,3.295 1.432,3.854 0.526,3.463 -1.74,2.472 -0.38,0.324 0,0"
           style="fill:#b28c64;fill-opacity:1;fill-rule:nonzero;stroke:none"
           id="path972" />
      </g>
      <g
         id="g974"
         transform="translate(472.9393,5041.9141)">
        <path
           d="m 0,0 c 1.734,-1.94 4.794,-2.679 7.702,-1.639 0.873,0.314 1.645,0.761 2.316,1.298 C 9.213,-0.48 8.435,-0.498 7.686,-0.397 5.817,-0.146 4.189,0.839 3.065,2.372 2.411,3.295 1.426,3.854 0.526,3.458 -1.74,2.473 -0.386,0.325 0,0"
           style="fill:#b28c64;fill-opacity:1;fill-rule:nonzero;stroke:none"
           id="path976" />
      </g>
      <g
         id="g978"
         transform="translate(521.1174,5116.3828)">
        <path
           d="m 0,0 c 0.347,-0.699 1.191,-0.99 1.891,-0.649 0.699,0.341 0.99,1.191 0.649,1.885 -0.884,1.802 -2.954,2.875 -5.533,2.875 -1.521,0 -3.099,-0.38 -4.564,-1.096 -1.214,-0.598 -2.321,-1.421 -3.194,-2.377 -0.52,-0.576 -0.481,-1.471 0.095,-1.997 0.274,-0.246 0.61,-0.364 0.951,-0.364 0.386,0 0.766,0.157 1.046,0.459 0.632,0.699 1.443,1.303 2.344,1.74 1.085,0.531 2.232,0.816 3.322,0.816 C -1.539,1.292 -0.386,0.794 0,0"
           style="fill:#b28c64;fill-opacity:1;fill-rule:nonzero;stroke:none"
           id="path980" />
      </g>
      <g
         id="g982"
         transform="translate(480.625,5003.7036)">
        <path
           d="M 0,0 C -1.868,0.247 -3.496,1.237 -4.621,2.769 -5.275,3.692 -6.259,4.246 -7.16,3.86 -9.426,2.87 -8.072,0.722 -7.686,0.398 c 1.734,-1.941 4.794,-2.68 7.703,-1.634 0.872,0.308 1.644,0.761 2.315,1.298 C 1.527,-0.083 0.744,-0.1 0,0"
           style="fill:#b28c64;fill-opacity:1;fill-rule:nonzero;stroke:none"
           id="path984" />
      </g>
      <g
         id="g986"
         transform="translate(539.4811,4903.7622)">
        <path
           d="m 0,0 c -0.061,0.073 -0.173,0.083 -0.251,0.017 l -3.222,-2.798 -1.902,2.194 2.506,2.175 c 0.073,0.068 0.067,0.163 0,0.241 l -1.41,1.622 c -0.062,0.078 -0.162,0.101 -0.235,0.034 l -2.511,-2.176 -1.762,2.03 3.227,2.797 c 0.073,0.067 0.084,0.179 0.017,0.252 L -6.93,7.982 C -6.992,8.06 -7.104,8.066 -7.182,7.999 l -5.073,-4.403 c -0.073,-0.067 -0.067,-0.162 0,-0.235 l 8.312,-9.581 c 0.067,-0.079 0.162,-0.095 0.24,-0.034 l 5.074,4.408 c 0.072,0.061 0.084,0.173 0.016,0.246 z"
           style="fill:#b28c64;fill-opacity:1;fill-rule:nonzero;stroke:none"
           id="path988" />
      </g>
      <g
         id="g990"
         transform="translate(486.0116,5125.3887)">
        <path
           d="m 0,0 c 1.471,-0.202 2.914,-0.458 4.29,-0.761 0.101,-0.017 0.202,-0.028 0.302,-0.028 0.313,0 0.621,0.106 0.873,0.302 0.336,0.258 0.532,0.655 0.542,1.08 0.006,0.269 0.006,0.537 0.006,0.811 0,0.269 0,0.537 -0.006,0.805 C 5.997,2.629 5.801,3.026 5.465,3.289 5.135,3.546 4.704,3.647 4.29,3.558 2.903,3.25 1.46,2.992 0,2.797 -0.699,2.702 -1.219,2.104 -1.219,1.398 -1.219,0.694 -0.699,0.095 0,0"
           style="fill:#b28c64;fill-opacity:1;fill-rule:nonzero;stroke:none"
           id="path992" />
      </g>
      <g
         id="g994"
         transform="translate(470.4442,5022.3027)">
        <path
           d="M 0,0 C -1.868,0.247 -3.501,1.236 -4.62,2.769 -5.281,3.692 -6.259,4.246 -7.16,3.86 -9.431,2.87 -8.072,0.722 -7.691,0.397 c 1.74,-1.935 4.799,-2.679 7.708,-1.639 0.867,0.314 1.645,0.761 2.31,1.304 C 1.527,-0.083 0.744,-0.101 0,0"
           style="fill:#b28c64;fill-opacity:1;fill-rule:nonzero;stroke:none"
           id="path996" />
      </g>
      <g
         id="g998"
         transform="translate(504.8283,4952.6396)">
        <path
           d="m 0,0 c -1.56,-2.176 -4.29,-3.625 -7.411,-3.659 0.503,-0.704 0.799,-1.571 0.799,-2.516 0,-2.406 -1.952,-4.364 -4.363,-4.364 -0.245,0 -0.492,0.023 -0.732,0.068 0.212,0.581 0.335,1.219 0.335,1.879 0,2.193 -1.516,4.324 -3.138,4.967 -1.627,0.644 -5.7,0.609 -8.933,0.609 h -0.503 v -0.508 c 0,-3.233 -0.04,-7.306 0.604,-8.928 0.643,-1.628 2.78,-3.138 4.967,-3.138 0.665,0 1.298,0.117 1.885,0.336 0.045,-0.241 0.062,-0.487 0.062,-0.739 0,-2.41 -1.952,-4.357 -4.358,-4.357 -0.945,0 -1.812,0.29 -2.523,0.794 -0.033,-3.115 -1.476,-5.85 -3.658,-7.411 -2.175,1.561 -3.625,4.296 -3.658,7.411 -0.711,-0.504 -1.577,-0.794 -2.517,-0.794 -2.411,0 -4.363,1.947 -4.363,4.357 0,0.252 0.022,0.498 0.061,0.739 0.588,-0.219 1.22,-0.336 1.885,-0.336 2.188,0 4.324,1.51 4.967,3.138 0.644,1.622 0.605,5.695 0.605,8.928 v 0.508 h -0.504 c -3.233,0 -7.305,0.035 -8.927,-0.609 -1.628,-0.643 -3.138,-2.774 -3.138,-4.967 0,-0.66 0.117,-1.298 0.33,-1.879 -0.235,-0.045 -0.481,-0.068 -0.733,-0.068 -2.411,0 -4.363,1.958 -4.363,4.364 0,0.945 0.296,1.812 0.8,2.516 -3.121,0.034 -5.851,1.483 -7.412,3.659 v 0.005 c 1.561,2.177 4.291,3.62 7.412,3.653 -0.504,0.711 -0.8,1.578 -0.8,2.523 0,2.405 1.952,4.363 4.363,4.363 0.252,0 0.498,-0.023 0.733,-0.067 -0.213,-0.582 -0.33,-1.22 -0.33,-1.88 0,-2.192 1.51,-4.324 3.138,-4.972 1.622,-0.638 5.694,-0.605 8.927,-0.605 0.051,0 0.246,0 0.504,0.006 v 0.503 c 0,3.228 0.039,7.305 -0.605,8.928 -0.643,1.628 -2.779,3.138 -4.967,3.138 -0.665,0 -1.297,-0.118 -1.885,-0.335 -0.039,0.24 -0.061,0.486 -0.061,0.738 0,2.411 1.952,4.357 4.363,4.357 0.94,0 1.806,-0.291 2.517,-0.799 0.033,3.121 1.483,5.856 3.658,7.417 2.182,-1.561 3.625,-4.296 3.658,-7.417 0.711,0.508 1.578,0.799 2.523,0.799 2.406,0 4.358,-1.946 4.358,-4.357 0,-0.252 -0.017,-0.498 -0.062,-0.738 -0.587,0.217 -1.22,0.335 -1.885,0.335 -2.187,0 -4.324,-1.51 -4.967,-3.138 -0.644,-1.623 -0.604,-5.7 -0.604,-8.928 V 3.026 c 0.257,-0.006 0.453,-0.006 0.503,-0.006 3.233,0 7.306,-0.033 8.933,0.605 1.622,0.648 3.138,2.78 3.138,4.972 0,0.66 -0.123,1.298 -0.335,1.88 0.24,0.044 0.487,0.067 0.732,0.067 2.411,0 4.363,-1.958 4.363,-4.363 0,-0.945 -0.296,-1.812 -0.799,-2.523 C -4.29,3.625 -1.56,2.182 0,0.005 Z m -15.651,-11.294 c -1.286,-1.281 -3.177,-1.477 -4.229,-0.431 -0.391,0.392 -0.587,0.907 -0.665,1.454 -0.146,1.092 -0.179,2.708 -0.191,4.045 2.009,-0.022 3.25,-0.101 4.017,-0.173 0.57,-0.051 1.096,-0.263 1.499,-0.66 1.046,-1.058 0.856,-2.948 -0.431,-4.235 m -23.057,4.235 c 0.397,0.397 0.923,0.609 1.494,0.66 0.766,0.072 2.013,0.151 4.021,0.173 -0.011,-1.337 -0.044,-2.953 -0.196,-4.045 -0.072,-0.547 -0.273,-1.062 -0.665,-1.454 -1.046,-1.046 -2.942,-0.85 -4.229,0.431 -1.287,1.287 -1.477,3.177 -0.425,4.235 m 0.425,18.352 c 1.287,1.287 3.183,1.483 4.229,0.431 0.392,-0.391 0.593,-0.901 0.665,-1.449 0.152,-1.09 0.185,-2.707 0.196,-4.044 -2.008,0.022 -3.255,0.101 -4.021,0.174 -0.571,0.05 -1.097,0.262 -1.494,0.659 -1.052,1.058 -0.862,2.948 0.425,4.229 M -15.22,7.064 c -0.403,-0.397 -0.929,-0.609 -1.499,-0.659 -0.767,-0.073 -2.008,-0.152 -4.017,-0.174 0.012,1.337 0.04,2.954 0.191,4.044 0.078,0.548 0.274,1.058 0.665,1.449 1.052,1.052 2.943,0.856 4.229,-0.431 1.287,-1.281 1.477,-3.171 0.431,-4.229 M 2.657,1.901 c -1.454,2.037 -3.552,3.541 -6.002,4.358 -0.045,4.167 -3.451,7.546 -7.63,7.546 -0.447,0 -0.889,-0.039 -1.314,-0.118 l -1.208,-0.217 0.218,1.208 c 0.078,0.425 0.117,0.872 0.117,1.32 0,4.178 -3.378,7.585 -7.551,7.624 -0.811,2.455 -2.321,4.548 -4.352,6.002 l -0.873,0.626 c -0.615,0.437 -1.443,0.437 -2.058,0 l -0.873,-0.626 c -2.03,-1.454 -3.541,-3.552 -4.352,-6.002 -4.167,-0.045 -7.551,-3.446 -7.551,-7.624 0,-0.448 0.039,-0.895 0.118,-1.32 l 0.218,-1.208 -1.203,0.217 c -0.431,0.079 -0.872,0.118 -1.32,0.118 -4.178,0 -7.585,-3.379 -7.624,-7.546 -2.456,-0.817 -4.548,-2.327 -6.008,-4.358 l -0.621,-0.872 c -0.442,-0.615 -0.442,-1.438 0,-2.053 l 0.626,-0.878 c 1.455,-2.031 3.547,-3.535 6.003,-4.352 0.039,-4.167 3.446,-7.546 7.624,-7.546 0.448,0 0.889,0.04 1.32,0.117 l 1.203,0.219 -0.218,-1.208 c -0.079,-0.425 -0.118,-0.873 -0.118,-1.321 0,-4.178 3.378,-7.585 7.551,-7.623 0.811,-2.451 2.322,-4.549 4.352,-6.003 l 0.873,-0.626 c 0.313,-0.218 0.671,-0.33 1.029,-0.33 0.364,0 0.722,0.112 1.029,0.33 l 0.873,0.626 c 2.031,1.454 3.541,3.552 4.352,6.003 4.173,0.038 7.551,3.445 7.551,7.623 0,0.448 -0.039,0.896 -0.117,1.321 l -0.218,1.208 1.208,-0.219 c 0.425,-0.077 0.867,-0.117 1.314,-0.117 4.179,0 7.585,3.379 7.63,7.546 2.45,0.817 4.548,2.327 6.002,4.358 l 0.621,0.872 c 0.442,0.615 0.442,1.438 0,2.053 z"
           style="fill:#b28c64;fill-opacity:1;fill-rule:nonzero;stroke:none"
           id="path1000" />
      </g>
      <g
         id="g1002"
         transform="translate(449.0653,5096.9453)">
        <path
           d="m 0,0 -2.478,-3.245 c -0.218,-0.279 -0.313,-0.637 -0.263,-0.99 0.045,-0.352 0.229,-0.671 0.515,-0.89 l 4.374,-3.339 c -4.632,-0.799 -9.196,-1.807 -13.62,-3.009 -0.353,1.522 -0.744,3.054 -1.181,4.57 -0.251,0.861 -0.509,1.717 -0.783,2.579 -0.117,0.352 -0.246,0.694 -0.364,1.04 C -9.269,-1.969 -4.665,-0.879 0,0 m 3.714,0.453 4.257,-3.25 -3.244,-4.257 -4.263,3.25 z M 25.541,2.64 22.162,-0.733 c -0.246,-0.252 -0.391,-0.593 -0.391,-0.951 0,-0.353 0.145,-0.694 0.391,-0.945 L 25.72,-6.187 C 19.706,-6.31 13.648,-6.786 7.68,-7.602 l 3.239,4.245 c 0.447,0.588 0.335,1.432 -0.252,1.879 L 7.182,1.18 c 6.047,0.844 12.172,1.331 18.359,1.46 m 7.042,-4.324 -3.787,-3.787 -3.787,3.787 3.787,3.787 z M 50.415,1.18 46.931,-1.478 c -0.588,-0.447 -0.699,-1.291 -0.252,-1.879 l 3.239,-4.245 c -5.974,0.816 -12.027,1.292 -18.046,1.415 l 3.558,3.558 c 0.252,0.251 0.392,0.592 0.392,0.945 0,0.358 -0.14,0.699 -0.392,0.951 L 32.057,2.64 C 38.238,2.511 44.369,2.024 50.415,1.18 m 6.719,-4.984 -4.262,-3.25 -3.25,4.257 4.262,3.25 z m 14.263,0.52 c -0.117,-0.346 -0.245,-0.688 -0.363,-1.04 -0.28,-0.862 -0.537,-1.723 -0.783,-2.579 -0.442,-1.516 -0.834,-3.048 -1.18,-4.57 -4.431,1.202 -8.99,2.21 -13.621,3.009 l 4.374,3.339 c 0.285,0.219 0.47,0.538 0.515,0.89 0.05,0.353 -0.045,0.711 -0.263,0.99 L 57.603,0 c 4.66,-0.879 9.264,-1.969 13.794,-3.284 m -87.523,-1.913 c 0.268,-0.828 0.52,-1.661 0.76,-2.489 0.559,-1.936 1.046,-3.899 1.449,-5.835 0.078,-0.385 0.313,-0.721 0.649,-0.922 0.223,-0.135 0.475,-0.202 0.732,-0.202 0.129,0 0.258,0.017 0.387,0.051 12.938,3.675 27.101,5.622 40.945,5.622 13.85,0 28.008,-1.947 40.951,-5.622 0.375,-0.106 0.784,-0.051 1.119,0.151 0.33,0.201 0.571,0.537 0.649,0.922 0.403,1.936 0.889,3.899 1.449,5.835 0.235,0.828 0.486,1.661 0.761,2.489 2.651,8.195 6.555,15.723 11.288,21.776 0.481,0.615 0.374,1.499 -0.241,1.981 -0.615,0.481 -1.505,0.374 -1.98,-0.241 C 78.619,12.977 75.072,6.544 72.41,-0.453 68.679,0.632 64.898,1.554 61.077,2.354 c 2.898,0.795 5.644,2.087 8.122,3.876 0.638,0.459 0.778,1.337 0.325,1.97 -0.459,0.633 -1.337,0.777 -1.97,0.319 -3.898,-2.803 -8.501,-4.285 -13.318,-4.285 -10.314,0 -19.32,6.869 -21.91,16.708 -0.202,0.755 -0.974,1.203 -1.729,1.007 -0.749,-0.201 -1.202,-0.973 -1.001,-1.723 1.684,-6.405 5.789,-11.68 11.187,-15.002 -3.971,0.297 -7.971,0.453 -11.987,0.453 -4.016,0 -8.01,-0.156 -11.982,-0.453 5.404,3.322 9.51,8.609 11.193,15.019 0.196,0.756 -0.251,1.527 -1.006,1.723 -0.756,0.201 -1.527,-0.252 -1.723,-1.007 C 22.693,11.114 13.682,4.234 3.362,4.234 c -4.822,0 -9.426,1.482 -13.319,4.285 -0.632,0.458 -1.515,0.314 -1.969,-0.319 -0.458,-0.633 -0.313,-1.511 0.319,-1.97 2.484,-1.789 5.23,-3.081 8.122,-3.876 -3.815,-0.8 -7.602,-1.728 -11.327,-2.807 -2.668,6.997 -6.209,13.43 -10.382,18.772 -0.481,0.615 -1.37,0.722 -1.98,0.241 -0.616,-0.482 -0.722,-1.366 -0.246,-1.981 4.737,-6.053 8.642,-13.581 11.294,-21.776"
           style="fill:#b28c64;fill-opacity:1;fill-rule:nonzero;stroke:none"
           id="path1004" />
      </g>
      <g
         id="g1006"
         transform="translate(432.715,5115.7339)">
        <path
           d="m 0,0 c 0.699,-0.341 1.549,-0.05 1.891,0.649 0.391,0.794 1.538,1.292 2.998,1.292 1.085,0 2.237,-0.285 3.317,-0.816 0.9,-0.437 1.711,-1.041 2.349,-1.74 0.28,-0.302 0.66,-0.459 1.046,-0.459 0.336,0 0.677,0.117 0.945,0.364 0.577,0.525 0.621,1.421 0.096,1.997 C 11.769,2.243 10.667,3.065 9.448,3.664 7.982,4.38 6.405,4.76 4.889,4.76 2.304,4.76 0.241,3.687 -0.643,1.885 -0.99,1.191 -0.699,0.341 0,0"
           style="fill:#b28c64;fill-opacity:1;fill-rule:nonzero;stroke:none"
           id="path1008" />
      </g>
      <g
         id="g1010"
         transform="translate(477.8613,4952.6733)">
        <path
           d="m 0,0 c 0,0 -0.017,0.005 -0.045,0.011 0.012,-0.023 0.018,-0.045 0.018,-0.045 0,0 -0.006,-0.016 -0.018,-0.039 0.028,0.005 0.045,0.011 0.045,0.011 0,0 0.017,-0.006 0.045,-0.011 -0.011,0.023 -0.011,0.039 -0.011,0.039 0,0 0,0.022 0.011,0.045 C 0.017,0.005 0,0 0,0"
           style="fill:#b28c64;fill-opacity:1;fill-rule:nonzero;stroke:none"
           id="path1012" />
      </g>
      <g
         id="g1014"
         transform="translate(428.9558,5117.6362)">
        <path
           d="m 0,0 c 0.319,-0.174 0.632,-0.353 0.946,-0.538 0.106,0.465 0.257,0.918 0.475,1.354 1.924,3.933 7.574,5.113 12.619,2.641 3.491,-1.712 5.773,-4.727 6.209,-7.72 -0.224,0.012 -0.453,0.028 -0.688,0.028 -3.938,0 -7.255,-2.047 -8.306,-4.849 3.429,-2.467 7.647,-3.933 12.216,-3.933 9.66,0 17.777,6.511 20.087,15.315 0.09,0.605 0.23,1.119 0.28,1.69 -4.649,-0.42 -8.961,-1.393 -12.396,-2.758 -0.509,2.512 -0.783,5.169 -0.783,7.927 0,2.757 0.274,5.42 0.783,7.926 3.435,-1.371 7.652,-2.338 12.295,-2.758 -0.42,4.649 -1.387,8.866 -2.758,12.3 2.512,0.51 5.169,0.784 7.932,0.784 2.758,0 5.415,-0.274 7.927,-0.784 -1.371,-3.434 -2.339,-7.651 -2.758,-12.3 4.648,0.42 8.86,1.387 12.3,2.758 0.504,-2.506 0.778,-5.169 0.778,-7.926 0,-2.758 -0.274,-5.415 -0.778,-7.927 -3.44,1.371 -7.752,2.338 -12.401,2.758 0.051,-0.576 0.146,-1.13 0.28,-1.706 2.316,-8.799 10.426,-15.299 20.086,-15.299 4.565,0 8.788,1.466 12.212,3.933 -1.046,2.802 -4.369,4.849 -8.307,4.849 -0.235,0 -0.459,-0.016 -0.688,-0.028 0.442,2.993 2.719,6.008 6.209,7.72 5.045,2.472 10.695,1.292 12.625,-2.641 0.213,-0.436 0.363,-0.889 0.47,-1.354 0.313,0.185 0.627,0.364 0.951,0.538 7.176,3.854 14.845,4.575 20.266,2.461 -8.1,-5.018 -15.898,-15.841 -20.361,-29.607 -0.257,-0.789 -0.492,-1.578 -0.722,-2.361 -1.135,-3.932 -1.913,-7.814 -2.344,-11.54 -14.135,4.744 -29.747,7.295 -45.75,7.295 -15.998,0 -31.616,-2.551 -45.745,-7.295 -0.431,3.726 -1.214,7.608 -2.349,11.54 -0.224,0.783 -0.459,1.572 -0.716,2.361 C -4.368,-13.38 -12.172,-2.557 -20.265,2.461 -14.845,4.575 -7.177,3.854 0,0 m -24.539,1.264 2.556,-1.577 c 7.792,-4.828 14.885,-15.238 18.974,-27.84 0.241,-0.755 0.47,-1.51 0.688,-2.26 1.068,-3.703 1.823,-7.406 2.237,-11.008 l 0.219,-1.841 c 0.056,-0.526 0.352,-1.001 0.805,-1.286 0.447,-0.285 1.001,-0.353 1.505,-0.179 l 1.756,0.587 c 13.878,4.66 29.333,7.121 44.705,7.121 15.371,0 30.832,-2.461 44.71,-7.121 l 1.751,-0.587 c 0.184,-0.062 0.375,-0.095 0.565,-0.095 0.33,0 0.66,0.095 0.945,0.274 0.448,0.285 0.744,0.755 0.806,1.286 l 0.212,1.841 c 0.42,3.602 1.174,7.305 2.243,11.008 0.219,0.75 0.442,1.505 0.688,2.26 4.084,12.602 11.182,23.012 18.974,27.84 l 2.551,1.577 c 0.57,0.352 0.889,0.996 0.827,1.661 -0.061,0.666 -0.492,1.236 -1.113,1.483 l -2.797,1.09 c -2.366,0.923 -5.028,1.393 -7.904,1.393 -4.267,0 -8.776,-1.035 -13.049,-2.998 -2.02,2.624 -5.337,4.123 -9.151,4.123 -2.3,0 -4.66,-0.566 -6.83,-1.628 C 78.01,4.262 74.939,0.363 74.335,-3.788 l -0.269,-1.828 c -0.078,-0.526 0.084,-1.058 0.447,-1.449 0.358,-0.392 0.873,-0.593 1.405,-0.57 l 1.845,0.117 c 0.162,0.005 0.325,0.017 0.487,0.017 1.197,0 2.316,-0.258 3.255,-0.745 -2.248,-0.995 -4.654,-1.504 -7.16,-1.504 -6.784,0 -12.932,3.837 -15.807,9.828 2.433,-0.464 4.665,-1.097 6.634,-1.88 l 1.673,-0.665 c 0.486,-0.196 1.029,-0.162 1.493,0.089 0.459,0.247 0.783,0.688 0.89,1.203 l 0.352,1.762 c 0.559,2.775 0.845,5.661 0.845,8.57 0,2.908 -0.286,5.795 -0.845,8.569 l -0.352,1.768 c -0.107,0.514 -0.431,0.95 -0.89,1.202 -0.464,0.246 -1.007,0.28 -1.493,0.084 l -1.673,-0.66 c -2.153,-0.861 -4.609,-1.533 -7.305,-2.003 0.47,2.691 1.147,5.147 2.002,7.306 l 0.666,1.667 c 0.196,0.486 0.162,1.035 -0.089,1.493 -0.247,0.459 -0.688,0.783 -1.203,0.89 l -1.762,0.352 c -5.572,1.125 -11.579,1.125 -17.145,0 l -1.762,-0.352 c -0.514,-0.107 -0.956,-0.431 -1.202,-0.89 -0.252,-0.458 -0.28,-1.007 -0.09,-1.493 l 0.671,-1.667 c 0.851,-2.153 1.527,-4.609 1.998,-7.306 -2.691,0.47 -5.147,1.142 -7.301,1.998 l -1.672,0.665 c -0.487,0.196 -1.035,0.162 -1.494,-0.089 -0.458,-0.247 -0.783,-0.688 -0.883,-1.203 l -0.358,-1.756 c -0.565,-2.775 -0.85,-5.661 -0.85,-8.575 0,-2.909 0.285,-5.795 0.85,-8.576 l 0.358,-1.762 c 0.1,-0.509 0.425,-0.95 0.883,-1.197 0.459,-0.251 1.007,-0.285 1.494,-0.089 l 1.672,0.665 c 1.97,0.783 4.196,1.416 6.629,1.875 -2.875,-5.986 -9.022,-9.823 -15.808,-9.823 -2.506,0 -4.911,0.509 -7.165,1.504 1.074,0.555 2.394,0.806 3.747,0.728 l 1.841,-0.117 c 0.531,-0.023 1.051,0.178 1.409,0.57 0.358,0.391 0.521,0.923 0.448,1.449 l -0.268,1.828 c -0.61,4.151 -3.675,8.05 -8.005,10.176 -2.17,1.062 -4.531,1.628 -6.83,1.628 -3.809,0 -7.132,-1.499 -9.146,-4.123 -4.279,1.963 -8.787,2.998 -13.05,2.998 -2.88,0 -5.543,-0.47 -7.904,-1.393 l -2.796,-1.09 C -24.875,4.161 -25.3,3.591 -25.367,2.925 -25.423,2.26 -25.109,1.616 -24.539,1.264"
           style="fill:#b28c64;fill-opacity:1;fill-rule:nonzero;stroke:none"
           id="path1016" />
      </g>
      <g
         id="g1018"
         transform="translate(476.4631,5134.9878)">
        <path
           d="m 0,0 c 0.101,-0.7 0.694,-1.225 1.404,-1.225 0.705,0 1.298,0.525 1.399,1.219 C 2.998,1.443 3.256,2.875 3.558,4.24 3.647,4.654 3.546,5.084 3.289,5.415 3.026,5.75 2.635,5.945 2.209,5.957 1.673,5.968 1.13,5.968 0.593,5.957 0.174,5.945 -0.224,5.75 -0.481,5.415 -0.744,5.084 -0.845,4.654 -0.75,4.246 -0.453,2.875 -0.196,1.443 0,0"
           style="fill:#b28c64;fill-opacity:1;fill-rule:nonzero;stroke:none"
           id="path1020" />
      </g>
      <g
         id="g1022"
         transform="translate(617.1998,4988.5117)">
        <path
           d="m 0,0 c -1.163,-25.384 -17.961,-45.275 -38.244,-45.275 -0.464,0 -0.934,0.011 -1.393,0.034 -8.939,0.408 -17.396,4.81 -23.857,12.401 5.482,-2.316 11.221,-3.541 16.625,-3.541 8.452,0 15.746,2.847 21.083,8.228 5.263,5.308 8.043,12.513 8.043,20.831 0.005,8.038 -2.713,16.669 -7.652,24.31 0.084,0.374 0.184,0.744 0.291,1.108 0.934,2.662 2.421,5.174 4.463,7.512 0.241,0.273 1.304,1.325 2.02,2.03 2.813,-4.005 5.029,-8.446 6.589,-13.235 3.558,-10.912 3.311,-22.335 -0.688,-32.152 -3.966,-9.744 -11.159,-16.736 -20.254,-19.701 -4.062,-1.32 -8.307,-1.773 -12.625,-1.353 -0.773,0.078 -1.466,-0.493 -1.539,-1.27 -0.078,-0.772 0.487,-1.466 1.264,-1.539 1.136,-0.111 2.266,-0.167 3.39,-0.167 3.541,0 7.02,0.548 10.382,1.645 9.901,3.227 17.709,10.795 21.995,21.317 4.25,10.438 4.519,22.548 0.76,34.099 -1.667,5.101 -4.038,9.834 -7.054,14.102 1.74,1.23 4.257,2.891 5.991,3.926 0.285,0.168 0.548,0.352 0.817,0.532 C -2.83,24.623 0.576,12.636 0,0 m -33.892,-55.691 c -0.179,-0.274 -0.347,-0.553 -0.548,-0.822 -4.335,-5.946 -12.189,-7.602 -17.536,-3.703 -2.775,2.025 -4.308,5.152 -4.553,8.519 -3.083,-4.357 -9.23,-7.406 -16.368,-7.562 -1.918,-0.039 -3.77,0.129 -5.52,0.481 0.726,10.605 7.892,19.012 16.769,19.813 0.862,-0.756 1.751,-1.444 2.657,-2.109 -3.155,-1.17 -9.38,-4.162 -14.314,-10.83 -0.464,-0.626 -0.335,-1.51 0.291,-1.974 0.252,-0.185 0.548,-0.28 0.845,-0.28 0.43,0 0.855,0.201 1.13,0.576 1.426,1.924 2.975,3.513 4.519,4.822 l 4.324,3.043 c 3.289,1.902 5.823,2.529 5.873,2.539 0.017,0 0.034,0.012 0.051,0.017 3.3,-1.633 8.43,-3.703 11.4,-4.318 -0.655,-3.037 0.302,-6.153 2.74,-7.932 2.395,-1.745 5.578,-1.745 8.24,-0.28 m 7.154,39.464 c -0.145,0.805 -0.363,1.6 -0.643,2.366 1.785,1.034 3.339,2.489 4.503,4.217 0.828,1.231 1.443,2.551 1.835,3.944 0.028,-0.548 0.039,-1.085 0.039,-1.616 0,-7.446 -2.456,-13.856 -7.104,-18.538 -0.408,-0.414 -0.833,-0.817 -1.27,-1.191 2.332,3.025 3.329,6.924 2.64,10.818 m -14.258,-4.397 c -0.811,2.791 -2.931,8.217 -7.954,13.179 -3.843,3.798 -5.957,7.227 -7.3,11.83 -1.729,5.924 -1.616,12.91 0.291,18.241 l 0.123,0.33 v -0.352 c 0.005,-1.947 0.185,-3.927 0.531,-5.874 1.505,-8.468 6.047,-15.678 11.573,-18.364 l -0.027,-0.061 0.045,0.05 c 2.041,-0.99 4.139,-1.32 6.147,-0.968 3.994,0.711 7.317,4.106 9.107,9.32 l 0.027,0.078 0.068,-0.044 c 2.349,-1.612 3.91,-4.045 4.407,-6.842 0.482,-2.702 -0.095,-5.448 -1.627,-7.719 -1.511,-2.238 -3.781,-3.787 -6.405,-4.374 1.035,-1.337 1.74,-2.926 2.036,-4.604 1.013,-5.711 -2.791,-11.182 -8.485,-12.194 -0.381,-0.067 -0.789,-0.112 -1.259,-0.14 l -0.068,-0.005 v 0.067 c -0.005,2.824 -0.419,5.66 -1.23,8.446 m -2.618,-1.975 c -2.013,-2.321 -4.922,-3.619 -7.976,-3.551 -0.677,0.01 -1.359,0.095 -2.031,0.245 -2.713,0.605 -5.023,2.243 -6.5,4.604 l -0.044,0.068 0.078,0.022 c 5.174,1.532 8.642,4.631 9.504,8.513 0.201,0.89 0.257,1.829 0.167,2.78 l -0.017,0.185 0.124,-0.14 c 0.056,-0.062 0.111,-0.123 0.162,-0.185 0.067,-0.083 0.139,-0.168 0.212,-0.245 0.89,-0.974 1.628,-1.875 2.26,-2.753 0.106,-0.151 0.526,-0.772 0.626,-0.928 1.528,-2.394 2.647,-5.057 3.323,-7.921 0.028,-0.129 0.051,-0.252 0.079,-0.38 0.016,-0.09 0.033,-0.173 0.05,-0.263 l 0.006,-0.028 z m 10.812,86.607 1.455,-1.051 c 0.325,-0.241 0.632,-0.437 0.94,-0.61 2.344,-1.314 5.18,-1.824 7.848,-1.427 -1.013,-0.458 -2.087,-0.754 -3.2,-0.872 -0.576,-0.061 -1.147,-0.095 -1.695,-0.095 -4.603,0 -8.044,2.025 -9.951,5.851 l -0.442,1.051 c -0.621,1.46 -0.816,5.163 0.442,8.033 1.678,3.81 4.508,5.196 6.002,5.196 0.358,0 0.7,-0.067 1.002,-0.207 0.218,-0.095 0.43,-0.229 0.62,-0.402 l 0.118,-0.118 c 0.123,-0.123 0.251,-0.285 0.38,-0.464 0.006,-0.017 0.134,-0.218 0.174,-0.29 l 0.072,-0.146 c 0.912,-1.796 0.794,-4.593 -0.319,-7.11 -0.57,-1.309 -1.375,-2.478 -2.332,-3.395 l -1.298,-1.242 c -0.375,-0.364 -0.576,-0.873 -0.537,-1.393 0.034,-0.52 0.296,-1.001 0.721,-1.309 M -49.717,35.111 c 3.922,7.389 10.712,12.351 17.732,13.392 -6.214,0.738 -11.987,3.435 -16.294,8.016 -2.64,2.349 -5.051,5.861 -6.701,10.102 -1.018,2.617 -1.634,5.224 -1.874,7.669 -0.755,5.051 -4.094,7.915 -8.212,7.864 -1.929,-0.028 -3.686,-0.811 -5.073,-2.097 -0.089,5.213 2.791,9.593 6.869,10.079 4.106,0.487 7.965,-3.143 9.073,-8.289 1.745,6.616 5.762,12.943 11.836,17.704 3.216,2.522 6.634,4.099 10.309,5.576 1.236,0.498 2.523,1.052 3.742,1.857 3.978,2.646 6.299,6.557 6.276,9.924 1.79,-1.913 2.977,-4.536 2.892,-7.429 -0.1,-3.719 -2.259,-7.422 -5.498,-9.459 -1.046,-0.654 -9.38,-4.76 -14.175,-13.727 2.411,3.133 5.829,5.247 9.784,5.65 3.597,0.375 7.048,-0.733 9.901,-2.869 0.005,0.006 0.257,-0.196 0.263,-0.191 1.459,-1.118 2.858,-1.986 4.654,-2.947 4.81,-2.562 9.626,-3.804 13.212,-3.653 -0.213,-3.619 -3.222,-6.791 -7.865,-7.904 -2.293,-0.543 -4.548,-0.43 -6.467,0.201 0.119,-2.421 -0.654,-4.642 -1.409,-6.001 -2.724,-4.856 -8.29,-5.499 -12.076,-3.379 -0.213,0.117 -0.414,0.252 -0.616,0.397 1.219,1.169 2.293,2.668 3.071,4.43 1.578,3.58 1.555,7.311 0.235,9.917 -0.045,0.09 -0.095,0.174 -0.14,0.264 -0.067,0.112 -0.134,0.223 -0.201,0.335 -0.033,0.056 -0.073,0.118 -0.112,0.174 -0.235,0.352 -0.503,0.682 -0.8,0.973 h 0.006 c -0.492,0.493 -1.063,0.895 -1.706,1.175 -3.871,1.711 -8.939,-1.276 -11.311,-6.662 -1.477,-3.356 -1.55,-8.05 -0.458,-10.623 h -0.023 c 2.439,-6.147 8.111,-9.559 15.461,-8.776 5.045,0.536 9.219,3.82 11.54,8.463 1.79,-2.579 6.225,-10.158 0.872,-15.389 -2.987,-2.914 -6.589,-3.758 -10.762,-4.737 -5.61,-1.32 -11.965,-2.814 -18.711,-9.56 -8.519,-8.519 -7.428,-20.025 -6.13,-25.854 -5.018,6.651 -5.756,16.625 -1.114,25.384 m -4.827,23.93 c 0.666,-1.13 1.399,-2.227 2.215,-3.272 2.534,-3.233 5.695,-5.856 9.303,-7.775 -2.708,-1.886 -5.135,-4.29 -7.177,-7.099 -2.998,5.846 -4.43,12.105 -4.341,18.146 m -1.56,32.085 c -1.27,1.002 -2.702,1.707 -4.173,2.053 l -0.19,1.298 c -0.275,1.902 0.536,3.339 1.191,3.457 0.045,0.011 0.078,0.011 0.106,0.011 0.33,0 0.923,-0.324 1.427,-1.035 0.43,-0.654 0.794,-1.404 1.074,-2.237 0.29,-0.85 0.458,-1.717 0.508,-2.573 z m -14.695,10.606 c 0.543,3.513 4.497,5.823 8.877,5.236 -1.096,0.637 -2.193,1.409 -3.155,2.405 -2.858,2.964 -4.671,8.004 -3.719,11.237 3.009,0.392 6.678,-0.536 9.587,-3.412 1.499,-1.482 2.612,-3.16 3.328,-4.849 v 0.011 c -0.05,4.525 2.842,8.217 6.455,8.256 3.614,0.034 6.584,-3.596 6.629,-8.116 0.005,-0.269 -0.005,-0.532 -0.023,-0.795 -1.191,1.432 -2.824,2.21 -4.458,1.919 -2.752,-0.492 -4.385,-3.809 -3.798,-7.434 0.246,-1.532 2.484,-5.403 2.876,-7.602 0.01,-0.05 0.016,-0.106 0.028,-0.162 -1.802,-1.902 -3.385,-3.966 -4.733,-6.142 -0.056,1.096 -0.274,2.26 -0.671,3.44 -0.38,1.125 -0.89,2.148 -1.471,3.032 -1.209,1.729 -3.004,2.713 -4.805,2.389 -2.674,-0.476 -4.352,-3.642 -3.843,-7.138 -0.006,0 -0.017,0 -0.022,0.006 -4.464,0.688 -7.636,4.145 -7.082,7.719 M -31.901,6.83 c -1.426,-3.513 -3.692,-5.773 -6.237,-6.226 -1.298,-0.229 -2.651,-0.011 -4.021,0.626 -0.364,0.968 -0.918,4.224 -0.789,6.332 0.162,2.708 0.844,5.303 2.08,7.927 0.426,0.906 0.912,1.778 1.444,2.607 0.57,-4.778 3.401,-9.029 7.523,-11.266 m 23.046,54.997 c 0.951,-1.041 1.802,-2.21 2.512,-3.513 0.123,-0.23 0.246,-0.459 0.358,-0.693 0.05,-0.101 0.112,-0.196 0.156,-0.303 0,0 -0.005,0 -0.005,-0.005 0.313,-0.666 0.598,-1.36 0.839,-2.081 2.679,-8.038 -0.162,-15.288 -6.953,-19.343 -3.686,-2.209 -7.993,-4.923 -10.952,-8.307 -5.102,-5.839 -6.769,-12.2 -6.299,-18.397 V 9.162 c -4.123,1.634 -7.064,5.813 -7.064,10.729 0,3.031 1.123,5.784 2.953,7.831 -4.122,-1.762 -8.044,-5.611 -10.511,-10.84 -1.007,-2.132 -1.672,-4.302 -2.03,-6.422 -1.125,5.32 -2.048,15.707 5.375,23.124 6.176,6.176 12.116,7.574 17.363,8.811 4.391,1.028 8.536,2.002 12.082,5.47 4.235,4.128 3.865,9.531 2.176,13.962 m 2.014,-26.212 c 5.767,5.191 7.585,12.72 4.945,20.652 -0.05,0.14 -0.101,0.274 -0.145,0.414 l -0.269,0.755 c -0.028,0.106 -0.062,0.207 -0.112,0.307 L -2.87,58.7 c -0.05,0.117 -0.111,0.229 -0.173,0.341 -0.151,0.302 -0.291,0.57 -0.436,0.834 -1.606,2.948 -3.865,5.454 -6.539,7.249 l -2.965,1.862 c 0.218,0.588 0.397,1.187 0.543,1.79 1.421,-0.061 2.897,0.084 4.335,0.431 5.991,1.432 10.057,5.706 10.36,10.88 l 0.1,1.656 C 2.383,84.24 2.204,84.728 1.851,85.085 1.499,85.443 1.018,85.628 0.52,85.611 l -1.655,-0.067 c -0.146,-0.011 -0.297,-0.011 -0.448,-0.011 -3.138,0 -7.177,1.197 -11.092,3.283 -1.633,0.873 -3.412,1.98 -4.329,2.697 -0.868,0.676 -1.813,1.269 -1.992,1.381 -2.294,1.337 -4.71,2.108 -7.227,2.327 0.867,0.588 1.784,1.158 2.735,1.695 0.263,0.151 0.459,0.263 0.576,0.341 4.213,2.64 7.037,7.518 7.037,12.138 0,5.807 -3.535,9.649 -5.644,11.423 -0.486,0.413 -1.158,0.526 -1.756,0.302 -0.599,-0.224 -1.024,-0.75 -1.125,-1.382 -0.212,-1.387 -0.648,-3.446 -1.51,-5.336 -0.788,-1.751 -2.282,-3.418 -4.206,-4.699 -0.979,-0.649 -2.098,-1.119 -3.155,-1.544 -2.137,-0.862 -4.665,-1.941 -7.166,-3.39 l -0.307,-0.179 c -1.315,-0.777 -2.501,-1.583 -3.631,-2.466 -0.391,-0.314 -0.789,-0.638 -1.169,-0.963 -0.369,1.024 -0.85,2.093 -1.314,3.127 -0.442,1.002 -0.889,2.008 -0.996,2.417 -0.011,0.045 -0.022,0.089 -0.039,0.134 -0.364,1.04 -0.307,2.064 0.14,2.808 0.263,0.431 0.643,0.71 1.04,0.761 0.045,0.006 0.09,0.011 0.135,0.016 h 0.111 c 0.974,0 2.249,-0.665 3.592,-1.879 0.453,-0.408 1.09,-0.554 1.683,-0.38 0.587,0.178 1.046,0.649 1.203,1.242 0.313,1.175 0.464,2.231 0.458,3.127 -0.061,6.365 -4.379,11.349 -9.839,11.349 h -0.084 c -2.97,-0.033 -5.7,-1.589 -7.546,-4.279 -2.903,2.813 -6.606,4.357 -10.459,4.357 -0.594,0 -1.187,-0.039 -1.763,-0.117 l -0.967,-0.123 c -0.688,-0.09 -1.264,-0.582 -1.46,-1.253 l -0.274,-0.934 c -1.292,-4.386 0.749,-9.443 2.959,-12.564 -2.78,-1.454 -4.621,-3.893 -5.062,-6.74 -0.42,-2.685 0.486,-5.477 2.477,-7.647 1.03,-1.118 2.322,-2.053 3.771,-2.724 -3.732,-2.427 -5.7,-6.964 -5.158,-11.976 l 0.168,-1.678 c 0.067,-0.627 0.464,-1.175 1.04,-1.432 0.582,-0.257 1.253,-0.185 1.763,0.19 1.191,0.878 3.014,1.919 4.933,1.925 h 0.084 c 2.539,0 4.363,-1.874 4.855,-5.018 l 0.006,-0.034 c 0.251,-2.517 0.861,-5.124 1.801,-7.696 l -0.106,-7.054 c -0.101,-6.679 1.521,-13.487 4.693,-19.679 l 1.264,-2.467 -0.006,-0.022 c -0.05,-0.095 -0.095,-0.179 -0.14,-0.246 -4.1,-5.583 -6.432,-12.888 -6.454,-12.961 -2.115,-5.912 -2.255,-13.693 -0.347,-20.243 1.152,-3.955 2.825,-7.127 5.42,-10.276 0.117,-0.257 1.052,-2.366 0.196,-5.162 -0.856,-2.809 -3.429,-4.979 -7.244,-6.109 l -1.751,-0.52 c -0.497,-0.146 -0.906,-0.504 -1.113,-0.979 -0.207,-0.476 -0.201,-1.018 0.028,-1.483 l 0.912,-1.879 c 0.028,-0.056 0.061,-0.117 0.095,-0.173 1.941,-3.065 4.961,-5.185 8.508,-5.98 0.884,-0.196 1.784,-0.302 2.674,-0.324 h 0.279 c 2.976,0 5.874,0.99 8.228,2.796 0.079,-0.821 0.118,-1.644 0.124,-2.455 v -1.594 c 0,-0.481 0.201,-0.945 0.548,-1.276 0.346,-0.335 0.817,-0.503 1.298,-0.486 0.274,0.011 0.564,0.033 0.866,0.056 0.129,0.005 0.263,0.017 0.392,0.027 -2.198,-0.508 -4.52,-0.771 -6.947,-0.771 -4.967,0 -10.276,1.135 -15.349,3.283 l -2.562,1.147 c -0.616,0.279 -1.332,0.179 -1.852,-0.257 -0.514,-0.431 -0.738,-1.119 -0.576,-1.774 0.537,-2.17 1.337,-4.005 2.389,-5.475 -9.197,-2.277 -16.104,-11.407 -16.854,-22.359 l -0.09,-1.315 c -0.061,-0.883 0.543,-1.677 1.41,-1.851 l 1.292,-0.257 c 2.025,-0.408 4.117,-0.587 6.232,-0.543 5.481,0.124 10.683,1.779 14.677,4.677 1.024,-1.997 2.489,-3.72 4.252,-5.007 2.455,-1.795 5.397,-2.741 8.513,-2.741 5.202,0 10.08,2.619 13.386,7.183 0.699,0.968 1.342,2.355 1.913,4.122 0.212,0.661 0.022,1.382 -0.493,1.846 -0.514,0.47 -1.252,0.593 -1.89,0.314 -2.059,-0.895 -3.949,-1.366 -5.46,-1.366 -0.844,0 -1.627,0.247 -2.276,0.717 -1.264,0.928 -1.835,2.606 -1.511,4.419 0.621,-0.067 1.281,-0.118 1.93,-0.146 0.515,-0.022 1.029,-0.033 1.544,-0.033 22.033,0 40.263,21.25 41.505,48.39 0.604,13.269 -2.981,25.96 -10.102,35.761"
           style="fill:#b28c64;fill-opacity:1;fill-rule:nonzero;stroke:none"
           id="path1024" />
      </g>
      <g
         id="g1026"
         transform="translate(460.0458,5040.8848)">
        <path
           d="M 0,0 C -1.868,0.252 -3.501,1.237 -4.621,2.764 -5.275,3.692 -6.259,4.251 -7.16,3.86 -9.431,2.87 -8.072,0.722 -7.686,0.397 -5.952,-1.543 -2.892,-2.282 0.017,-1.241 0.884,-0.928 1.661,-0.48 2.332,0.056 1.527,-0.083 0.744,-0.1 0,0"
           style="fill:#b28c64;fill-opacity:1;fill-rule:nonzero;stroke:none"
           id="path1028" />
      </g>
      <g
         id="g1030"
         transform="translate(440.82,4899.2646)">
        <path
           d="m 0,0 c -0.089,0.045 -0.179,0 -0.223,-0.089 l -5.544,-11.412 c -0.039,-0.089 -0.022,-0.19 0.067,-0.229 l 6.025,-2.931 c 0.089,-0.039 0.196,-0.006 0.24,0.084 l 0.929,1.919 c 0.045,0.089 0.011,0.196 -0.079,0.24 l -3.842,1.863 4.536,9.335 c 0.039,0.09 0.006,0.196 -0.084,0.236 z"
           style="fill:#b28c64;fill-opacity:1;fill-rule:nonzero;stroke:none"
           id="path1032" />
      </g>
      <g
         id="g1034"
         transform="translate(450.3014,4886.875)">
        <path
           d="M 0,0 -1.555,0.537 0.174,3.099 Z M 2.892,7.148 0.582,7.954 C 0.504,7.982 0.447,7.937 0.408,7.887 L -6.981,-2.999 c -0.056,-0.105 -0.017,-0.223 0.095,-0.263 l 2.148,-0.743 c 0.073,-0.028 0.123,-0.006 0.168,0.067 l 1.617,2.366 2.724,-0.946 -0.174,-2.863 c -0.011,-0.084 0.034,-0.14 0.09,-0.157 l 2.131,-0.738 c 0.112,-0.039 0.218,0.027 0.235,0.145 L 2.987,6.992 c 0,0.067 -0.016,0.134 -0.095,0.156"
           style="fill:#b28c64;fill-opacity:1;fill-rule:nonzero;stroke:none"
           id="path1036" />
      </g>
      <g
         id="g1038"
         transform="translate(462.6972,4887.3223)">
        <path
           d="m 0,0 -0.252,-1.258 c -0.347,-1.5 -1.068,-1.377 -2.288,-1.131 l -0.565,0.112 0.867,4.285 0.565,-0.112 C -0.202,1.594 0.274,1.359 0,0 M -0.09,4.256 -4.117,5.067 C -4.195,5.084 -4.268,5.018 -4.29,4.922 L -6.808,-7.512 c -0.016,-0.101 0.028,-0.19 0.101,-0.202 l 2.232,-0.453 c 0.095,-0.022 0.19,0.045 0.207,0.14 l 0.654,3.216 0.985,-0.201 0.845,-3.597 c 0.011,-0.061 0.039,-0.112 0.117,-0.122 L 0.716,-9.218 C 0.833,-9.241 0.934,-9.14 0.9,-9.012 l -0.906,3.916 c 0.593,0.139 1.069,0.487 1.455,0.996 0.33,0.436 0.576,1.052 0.71,1.728 L 2.657,0.073 C 3.115,2.333 2.064,3.82 -0.09,4.256"
           style="fill:#b28c64;fill-opacity:1;fill-rule:nonzero;stroke:none"
           id="path1040" />
      </g>
      <g
         id="g1042"
         transform="translate(338.5234,4988.5117)">
        <path
           d="m 0,0 c -0.582,12.636 2.83,24.623 9.587,33.842 0.28,-0.18 0.537,-0.364 0.817,-0.532 1.734,-1.035 4.251,-2.696 5.996,-3.926 C 13.391,25.116 11.008,20.383 9.353,15.282 5.582,3.731 5.851,-8.379 10.102,-18.817 c 4.285,-10.522 12.094,-18.09 21.994,-21.317 3.368,-1.097 6.847,-1.645 10.382,-1.645 1.13,0 2.26,0.056 3.39,0.167 0.783,0.073 1.343,0.767 1.275,1.539 -0.078,0.777 -0.772,1.348 -1.544,1.27 -4.318,-0.42 -8.569,0.033 -12.63,1.353 -9.096,2.965 -16.289,9.957 -20.249,19.701 -4.006,9.817 -4.24,21.24 -0.683,32.152 1.555,4.789 3.77,9.23 6.579,13.235 0.716,-0.705 1.778,-1.757 2.025,-2.03 2.047,-2.338 3.535,-4.85 4.463,-7.512 0.112,-0.364 0.201,-0.734 0.291,-1.108 -4.945,-7.641 -7.652,-16.272 -7.652,-24.31 0,-8.318 2.774,-15.523 8.043,-20.831 5.337,-5.381 12.631,-8.228 21.089,-8.228 5.403,0 11.131,1.225 16.613,3.541 -6.455,-7.591 -14.913,-11.993 -23.851,-12.401 -0.459,-0.023 -0.929,-0.034 -1.388,-0.034 C 17.955,-45.275 1.163,-25.384 0,0 m 5,55.232 c 0.235,0.721 0.515,1.415 0.828,2.081 v 0.005 c 0.045,0.107 0.101,0.202 0.157,0.303 0.112,0.234 0.235,0.463 0.358,0.693 0.705,1.303 1.555,2.472 2.506,3.513 C 7.16,57.396 6.79,51.993 11.03,47.865 c 3.547,-3.468 7.697,-4.442 12.083,-5.47 5.246,-1.237 11.187,-2.635 17.363,-8.811 7.417,-7.417 6.499,-17.804 5.37,-23.124 -0.358,2.12 -1.019,4.29 -2.025,6.422 -2.473,5.229 -6.389,9.078 -10.505,10.84 1.823,-2.047 2.953,-4.8 2.953,-7.831 0,-4.916 -2.942,-9.095 -7.07,-10.729 V 9.179 C 29.669,15.382 28.001,21.743 22.9,27.582 19.935,30.966 15.64,33.68 11.948,35.889 5.157,39.944 2.316,47.194 5,55.232 m 27.98,11.478 -1.286,1.242 c -0.963,0.917 -1.768,2.086 -2.338,3.395 -1.108,2.517 -1.231,5.314 -0.325,7.11 l 0.078,0.146 c 0.045,0.072 0.168,0.273 0.179,0.29 0.123,0.179 0.246,0.341 0.381,0.464 l 0.112,0.118 c 0.19,0.173 0.402,0.307 0.615,0.402 0.313,0.14 0.649,0.207 1.007,0.207 1.488,0 4.318,-1.386 5.996,-5.196 1.264,-2.87 1.063,-6.573 0.448,-8.033 l -0.448,-1.051 c -1.902,-3.826 -5.347,-5.851 -9.946,-5.851 -0.548,0 -1.118,0.034 -1.7,0.095 -1.107,0.118 -2.181,0.414 -3.199,0.872 2.673,-0.397 5.504,0.113 7.853,1.427 0.302,0.173 0.615,0.369 0.94,0.61 l 1.454,1.051 c 0.425,0.308 0.694,0.789 0.727,1.309 0.034,0.52 -0.167,1.029 -0.548,1.393 M 13.872,65.267 c 2.316,-4.643 6.5,-7.927 11.546,-8.463 7.338,-0.783 13.01,2.629 15.46,8.776 h -0.022 c 1.085,2.573 1.018,7.267 -0.47,10.623 -2.372,5.386 -7.428,8.373 -11.299,6.662 -0.649,-0.28 -1.22,-0.682 -1.712,-1.175 -0.291,-0.291 -0.559,-0.621 -0.794,-0.973 -0.045,-0.056 -0.078,-0.118 -0.112,-0.174 -0.067,-0.112 -0.134,-0.223 -0.201,-0.335 -0.045,-0.09 -0.101,-0.174 -0.146,-0.264 -1.32,-2.606 -1.331,-6.337 0.246,-9.917 0.772,-1.762 1.846,-3.261 3.065,-4.43 -0.201,-0.145 -0.402,-0.28 -0.615,-0.397 -3.781,-2.12 -9.352,-1.477 -12.082,3.379 -0.749,1.359 -1.522,3.58 -1.41,6.001 -1.912,-0.631 -4.173,-0.744 -6.466,-0.201 -4.632,1.113 -7.641,4.285 -7.854,7.904 3.58,-0.151 8.391,1.091 13.202,3.653 1.801,0.961 3.199,1.829 4.653,2.947 0.012,-0.005 0.269,0.197 0.269,0.191 2.853,2.136 6.299,3.244 9.901,2.869 3.949,-0.403 7.372,-2.517 9.778,-5.65 -4.789,8.967 -13.123,13.073 -14.175,13.727 -3.233,2.037 -5.392,5.74 -5.492,9.459 -0.079,2.893 1.107,5.516 2.886,7.429 -0.023,-3.367 2.304,-7.278 6.276,-9.924 1.219,-0.805 2.506,-1.359 3.748,-1.857 3.68,-1.477 7.092,-3.054 10.303,-5.576 6.075,-4.761 10.091,-11.088 11.836,-17.704 1.108,5.146 4.978,8.776 9.084,8.289 4.073,-0.486 6.959,-4.866 6.864,-10.079 -1.382,1.286 -3.149,2.069 -5.074,2.097 -4.117,0.051 -7.45,-2.813 -8.211,-7.864 -0.246,-2.445 -0.861,-5.052 -1.88,-7.669 C 53.33,62.38 50.913,58.868 48.285,56.519 43.966,51.938 38.193,49.241 31.984,48.503 39.01,47.462 45.801,42.5 49.717,35.111 54.359,26.352 53.621,16.378 48.609,9.727 c 1.298,5.829 2.383,17.335 -6.131,25.854 -6.746,6.746 -13.112,8.24 -18.716,9.56 -4.173,0.979 -7.775,1.823 -10.762,4.737 -5.348,5.231 -0.918,12.81 0.872,15.389 m 46.595,29.21 -0.19,-1.298 C 58.801,92.833 57.379,92.128 56.104,91.126 L 56.16,92.1 c 0.045,0.856 0.213,1.723 0.503,2.573 0.281,0.833 0.649,1.583 1.074,2.237 0.515,0.711 1.097,1.035 1.432,1.035 0.034,0 0.056,0 0.101,-0.011 0.661,-0.118 1.466,-1.555 1.197,-3.457 m -13.189,19.147 c -1.634,0.291 -3.267,-0.487 -4.464,-1.919 -0.012,0.263 -0.022,0.526 -0.022,0.795 0.055,4.52 3.02,8.15 6.634,8.116 3.613,-0.039 6.499,-3.731 6.454,-8.256 v -0.011 c 0.716,1.689 1.824,3.367 3.323,4.849 2.909,2.876 6.578,3.804 9.593,3.412 0.951,-3.233 -0.867,-8.273 -3.719,-11.237 -0.963,-0.996 -2.059,-1.768 -3.155,-2.405 4.385,0.587 8.334,-1.723 8.883,-5.236 0.553,-3.574 -2.618,-7.031 -7.093,-7.719 0,-0.006 -0.011,-0.006 -0.011,-0.006 0.503,3.496 -1.175,6.662 -3.849,7.138 -1.801,0.324 -3.591,-0.66 -4.811,-2.389 -0.581,-0.884 -1.085,-1.907 -1.465,-3.032 -0.403,-1.18 -0.615,-2.344 -0.671,-3.44 -1.354,2.176 -2.931,4.24 -4.733,6.142 0.012,0.056 0.012,0.112 0.023,0.162 0.392,2.199 2.64,6.07 2.886,7.602 0.582,3.625 -1.052,6.942 -3.803,7.434 m 2.931,-72.729 c -2.048,2.809 -4.476,5.213 -7.183,7.099 3.603,1.919 6.768,4.542 9.297,7.775 0.817,1.045 1.555,2.142 2.215,3.272 C 54.628,53 53.196,46.741 50.209,40.895 M 31.895,6.83 c 4.128,2.237 6.959,6.488 7.529,11.266 0.537,-0.829 1.018,-1.701 1.443,-2.607 C 42.109,12.865 42.78,10.27 42.948,7.562 43.071,5.454 42.523,2.198 42.165,1.23 40.789,0.593 39.435,0.375 38.138,0.604 35.587,1.057 33.327,3.317 31.895,6.83 m -2.517,-33.875 c -0.437,0.374 -0.862,0.777 -1.276,1.191 -4.642,4.682 -7.103,11.092 -7.103,18.538 0,0.531 0.01,1.068 0.044,1.616 0.392,-1.393 1.007,-2.713 1.835,-3.944 1.163,-1.728 2.718,-3.183 4.508,-4.217 -0.291,-0.766 -0.503,-1.561 -0.649,-2.366 -0.693,-3.894 0.303,-7.793 2.641,-10.818 m 26.458,49.649 v 0.352 l 0.123,-0.33 c 1.902,-5.331 2.014,-12.317 0.291,-18.241 -1.343,-4.603 -3.457,-8.032 -7.306,-11.83 -5.023,-4.962 -7.137,-10.388 -7.954,-13.179 -0.805,-2.786 -1.219,-5.622 -1.23,-8.446 v -0.067 l -0.067,0.005 c -0.459,0.028 -0.873,0.073 -1.254,0.14 -5.694,1.012 -9.498,6.483 -8.491,12.194 0.302,1.678 1.007,3.267 2.048,4.604 -2.63,0.587 -4.901,2.136 -6.411,4.374 -1.532,2.271 -2.114,5.017 -1.633,7.719 0.503,2.797 2.069,5.23 4.407,6.842 l 0.068,0.044 0.033,-0.078 c 1.79,-5.214 5.113,-8.609 9.107,-9.32 2.003,-0.352 4.106,-0.022 6.153,0.968 l 0.033,-0.05 -0.022,0.061 c 5.527,2.686 10.068,9.896 11.568,18.364 0.347,1.947 0.526,3.927 0.537,5.874 m 4.251,-43.815 0.078,-0.022 -0.044,-0.068 c -1.477,-2.361 -3.782,-3.999 -6.5,-4.604 -0.672,-0.15 -1.354,-0.235 -2.037,-0.245 -3.054,-0.068 -5.962,1.23 -7.976,3.551 l -0.023,0.023 0.012,0.028 c 0.022,0.09 0.034,0.173 0.056,0.263 0.022,0.128 0.045,0.251 0.078,0.38 0.671,2.864 1.79,5.527 3.323,7.921 0.101,0.156 0.515,0.777 0.615,0.928 0.638,0.878 1.376,1.779 2.26,2.753 0.078,0.077 0.146,0.162 0.213,0.245 0.055,0.062 0.111,0.123 0.167,0.185 l 0.124,0.14 -0.023,-0.185 c -0.09,-0.951 -0.034,-1.89 0.167,-2.78 0.873,-3.882 4.33,-6.981 9.51,-8.513 m 18.331,-37.567 c -1.752,-0.352 -3.603,-0.52 -5.522,-0.481 -7.137,0.156 -13.279,3.205 -16.367,7.562 -0.246,-3.367 -1.778,-6.494 -4.553,-8.519 -5.347,-3.899 -13.201,-2.243 -17.541,3.703 -0.191,0.269 -0.37,0.548 -0.549,0.822 2.663,-1.465 5.851,-1.465 8.245,0.28 2.439,1.779 3.39,4.895 2.741,7.932 2.965,0.615 8.1,2.685 11.4,4.318 0.011,-0.005 0.033,-0.017 0.056,-0.017 0.045,-0.01 2.573,-0.637 5.873,-2.539 l 4.318,-3.043 c 1.545,-1.309 3.094,-2.898 4.52,-4.822 0.28,-0.375 0.705,-0.576 1.136,-0.576 0.291,0 0.587,0.095 0.839,0.28 0.626,0.464 0.755,1.348 0.296,1.974 -4.933,6.668 -11.164,9.66 -14.319,10.83 0.906,0.665 1.79,1.353 2.651,2.109 8.883,-0.801 16.048,-9.208 16.776,-19.813 m -38.636,10.275 c 0.649,0.028 1.309,0.079 1.936,0.146 0.324,-1.813 -0.247,-3.491 -1.511,-4.419 -0.649,-0.47 -1.432,-0.717 -2.282,-0.717 -1.51,0 -3.39,0.471 -5.46,1.366 -0.637,0.279 -1.376,0.156 -1.89,-0.314 -0.503,-0.464 -0.705,-1.185 -0.493,-1.846 0.582,-1.767 1.22,-3.154 1.925,-4.122 3.3,-4.564 8.178,-7.183 13.38,-7.183 3.11,0 6.052,0.946 8.513,2.741 1.768,1.287 3.222,3.01 4.252,5.007 3.994,-2.898 9.196,-4.553 14.677,-4.677 2.114,-0.044 4.207,0.135 6.232,0.543 l 1.292,0.257 c 0.867,0.174 1.477,0.968 1.415,1.851 l -0.09,1.315 c -0.755,10.952 -7.663,20.082 -16.859,22.359 1.052,1.47 1.857,3.305 2.394,5.475 0.157,0.655 -0.067,1.343 -0.581,1.774 -0.515,0.436 -1.242,0.536 -1.857,0.257 l -2.551,-1.147 c -5.079,-2.148 -10.393,-3.283 -15.349,-3.283 -2.428,0 -4.755,0.263 -6.959,0.771 0.135,-0.01 0.269,-0.022 0.392,-0.027 0.302,-0.023 0.604,-0.045 0.872,-0.056 0.481,-0.017 0.951,0.151 1.298,0.486 0.347,0.331 0.548,0.795 0.548,1.276 v 1.594 c 0,0.811 0.045,1.634 0.124,2.455 2.349,-1.806 5.246,-2.796 8.222,-2.796 h 0.279 c 0.896,0.022 1.79,0.128 2.686,0.324 3.535,0.795 6.555,2.915 8.502,5.98 0.033,0.056 0.067,0.117 0.09,0.173 l 0.917,1.879 c 0.224,0.465 0.235,1.007 0.023,1.483 -0.202,0.475 -0.616,0.833 -1.108,0.979 l -1.756,0.52 c -3.816,1.13 -6.389,3.3 -7.239,6.109 -0.861,2.796 0.079,4.905 0.201,5.162 2.585,3.149 4.263,6.321 5.415,10.276 1.913,6.55 1.768,14.331 -0.347,20.243 -0.022,0.073 -2.36,7.378 -6.454,12.961 -0.046,0.067 -0.09,0.151 -0.135,0.246 l -0.011,0.022 1.264,2.467 c 3.166,6.192 4.8,13 4.687,19.679 l -0.1,7.054 c 0.939,2.572 1.544,5.179 1.801,7.696 v 0.034 c 0.492,3.144 2.316,5.018 4.866,5.018 h 0.079 c 1.913,-0.006 3.748,-1.047 4.933,-1.925 0.515,-0.375 1.181,-0.447 1.762,-0.19 0.576,0.257 0.973,0.805 1.041,1.432 l 0.168,1.678 c 0.542,5.012 -1.427,9.549 -5.152,11.976 1.443,0.671 2.741,1.606 3.765,2.724 1.991,2.17 2.897,4.962 2.483,7.647 -0.442,2.847 -2.282,5.286 -5.068,6.74 2.209,3.121 4.257,8.178 2.965,12.564 l -0.28,0.934 c -0.196,0.671 -0.766,1.163 -1.46,1.253 l -0.968,0.123 c -0.576,0.078 -1.169,0.117 -1.762,0.117 -3.859,0 -7.562,-1.544 -10.46,-4.357 -1.845,2.69 -4.575,4.246 -7.551,4.279 h -0.079 c -5.459,0 -9.777,-4.984 -9.833,-11.349 -0.011,-0.896 0.145,-1.952 0.447,-3.127 0.157,-0.593 0.616,-1.064 1.209,-1.242 0.593,-0.174 1.23,-0.028 1.677,0.38 1.343,1.214 2.63,1.879 3.603,1.879 h 0.112 c 0.045,-0.005 0.078,-0.01 0.123,-0.016 0.403,-0.051 0.783,-0.33 1.04,-0.761 0.459,-0.744 0.504,-1.768 0.146,-2.808 -0.012,-0.045 -0.034,-0.089 -0.045,-0.134 -0.101,-0.409 -0.548,-1.415 -0.995,-2.417 -0.459,-1.034 -0.94,-2.103 -1.31,-3.127 -0.38,0.325 -0.771,0.649 -1.174,0.963 -1.13,0.883 -2.305,1.689 -3.625,2.466 l -0.313,0.179 c -2.495,1.449 -5.023,2.528 -7.16,3.39 -1.063,0.425 -2.17,0.895 -3.155,1.544 -1.924,1.281 -3.423,2.948 -4.206,4.699 -0.862,1.89 -1.298,3.949 -1.511,5.336 -0.1,0.632 -0.526,1.158 -1.129,1.382 -0.594,0.224 -1.265,0.111 -1.757,-0.302 -2.103,-1.774 -5.639,-5.616 -5.639,-11.423 0,-4.62 2.82,-9.498 7.038,-12.138 0.122,-0.078 0.313,-0.19 0.57,-0.341 0.951,-0.537 1.868,-1.107 2.741,-1.695 -2.517,-0.219 -4.933,-0.99 -7.227,-2.327 -0.179,-0.112 -1.13,-0.705 -1.992,-1.381 C 16.087,90.796 14.308,89.689 12.675,88.816 8.76,86.73 4.721,85.533 1.588,85.533 c -0.156,0 -0.313,0 -0.447,0.011 l -1.667,0.067 C -1.018,85.628 -1.5,85.443 -1.858,85.085 -2.204,84.728 -2.383,84.24 -2.36,83.743 l 0.1,-1.656 c 0.313,-5.174 4.374,-9.448 10.359,-10.88 1.444,-0.347 2.92,-0.492 4.341,-0.431 0.145,-0.603 0.325,-1.202 0.537,-1.79 L 10.012,67.124 C 7.35,65.329 5.079,62.823 3.479,59.875 3.334,59.611 3.188,59.343 3.043,59.041 2.976,58.929 2.919,58.817 2.864,58.7 L 2.416,57.743 c -0.045,-0.1 -0.078,-0.201 -0.1,-0.307 L 2.047,56.681 C 1.991,56.541 1.946,56.407 1.902,56.267 -0.75,48.335 1.074,40.806 6.835,35.615 -0.28,25.814 -3.871,13.123 -3.256,-0.146 c 1.231,-27.14 19.466,-48.39 41.505,-48.39 0.504,0 1.03,0.011 1.533,0.033"
           style="fill:#b28c64;fill-opacity:1;fill-rule:nonzero;stroke:none"
           id="path1044" />
      </g>
      <g
         id="g1046"
         transform="translate(438.4544,4900.501)">
        <path
           d="M 0,0 -1.885,1.225 C -1.969,1.281 -2.081,1.258 -2.131,1.174 l -4.531,-6.958 c -0.689,-1.057 -1.606,-1.448 -2.635,-0.783 l -0.196,0.129 c -0.676,0.441 -1.286,1.286 -0.346,2.73 l 4.525,6.953 c 0.056,0.083 0.033,0.19 -0.051,0.245 L -7.266,4.727 C -7.351,4.782 -7.462,4.76 -7.513,4.676 l -4.872,-7.484 c -1.65,-2.534 -0.8,-4.408 1.539,-5.929 2.467,-1.606 4.474,-1.382 6.029,1.007 L 0.05,-0.246 C 0.106,-0.168 0.084,-0.056 0,0"
           style="fill:#b28c64;fill-opacity:1;fill-rule:nonzero;stroke:none"
           id="path1048" />
      </g>
      <g
         id="g1050"
         transform="translate(429.5767,4906.4414)">
        <path
           d="M 0,0 -1.857,1.6 C -1.918,1.655 -1.935,1.667 -2.03,1.645 l -5.085,-1.142 2.674,3.094 c 0.061,0.078 0.056,0.19 -0.017,0.251 L -6.164,5.325 C -6.242,5.387 -6.337,5.364 -6.399,5.292 L -14.7,-4.313 c -0.061,-0.073 -0.067,-0.173 0.006,-0.235 l 1.706,-1.471 c 0.073,-0.067 0.19,-0.062 0.251,0.017 l 2.92,3.378 1.667,0.386 -2.304,-5.811 c -0.04,-0.073 -0.023,-0.146 0.022,-0.185 l 2.019,-1.739 c 0.107,-0.09 0.229,-0.04 0.263,0.061 l 2.92,8.396 5.152,1.214 C 0.056,-0.263 0.101,-0.09 0,0"
           style="fill:#b28c64;fill-opacity:1;fill-rule:nonzero;stroke:none"
           id="path1052" />
      </g>
      <g
         id="g1054"
         transform="translate(524.5238,4902.3135)">
        <path
           d="m 0,0 2.322,1.572 c 0.083,0.055 0.105,0.167 0.05,0.245 L 1.186,3.568 C 1.13,3.653 1.024,3.675 0.94,3.619 l -6.824,-4.615 c -0.085,-0.056 -0.107,-0.168 -0.051,-0.246 l 1.186,-1.757 c 0.056,-0.078 0.162,-0.1 0.246,-0.044 l 2.327,1.571 5.818,-8.608 c 0.055,-0.084 0.168,-0.101 0.251,-0.045 l 1.88,1.27 c 0.084,0.056 0.106,0.168 0.05,0.246 z"
           style="fill:#b28c64;fill-opacity:1;fill-rule:nonzero;stroke:none"
           id="path1056" />
      </g>
      <g
         id="g1058"
         transform="translate(510.3718,4894.2808)">
        <path
           d="m 0,0 c 0.095,0.034 0.14,0.134 0.107,0.229 l -0.75,1.975 C -0.671,2.299 -0.777,2.344 -0.867,2.31 L -8.58,-0.599 c -0.09,-0.033 -0.14,-0.134 -0.101,-0.229 l 0.744,-1.974 c 0.033,-0.095 0.14,-0.14 0.229,-0.107 l 2.623,0.991 3.664,-9.723 c 0.039,-0.094 0.14,-0.139 0.23,-0.106 l 2.131,0.8 c 0.089,0.039 0.134,0.14 0.101,0.229 l -3.664,9.728 z"
           style="fill:#b28c64;fill-opacity:1;fill-rule:nonzero;stroke:none"
           id="path1060" />
      </g>
      <g
         id="g1062"
         transform="translate(516.9275,4891.6909)">
        <path
           d="M 0,0 -0.671,3.009 1.46,0.749 Z M -1.555,7.736 C -1.599,7.781 -1.667,7.814 -1.734,7.781 L -3.91,6.651 C -3.983,6.617 -3.988,6.545 -3.977,6.483 l 2.803,-12.86 c 0.039,-0.112 0.156,-0.162 0.257,-0.112 l 2.019,1.047 c 0.073,0.038 0.09,0.089 0.067,0.173 l -0.598,2.802 2.556,1.326 1.958,-2.103 c 0.056,-0.062 0.129,-0.068 0.179,-0.045 l 2.002,1.04 c 0.101,0.051 0.129,0.179 0.057,0.274 z"
           style="fill:#b28c64;fill-opacity:1;fill-rule:nonzero;stroke:none"
           id="path1064" />
      </g>
      <g
         id="g1066"
         transform="translate(490.7663,5022.3027)">
        <path
           d="M 0,0 C -1.874,0.247 -3.502,1.236 -4.621,2.769 -5.281,3.692 -6.259,4.246 -7.166,3.86 -9.431,2.87 -8.072,0.722 -7.686,0.397 -5.952,-1.538 -2.892,-2.282 0.017,-1.242 0.889,-0.928 1.661,-0.481 2.332,0.062 1.527,-0.083 0.743,-0.101 0,0"
           style="fill:#b28c64;fill-opacity:1;fill-rule:nonzero;stroke:none"
           id="path1068" />
      </g>
      <g
         id="g1070"
         transform="translate(491.3311,4880.4702)">
        <path
           d="m 0,0 -4.246,-0.476 -0.319,2.887 3.295,0.368 c 0.101,0.012 0.151,0.096 0.14,0.197 l -0.235,2.136 c -0.017,0.101 -0.078,0.174 -0.179,0.162 l -3.3,-0.369 -0.297,2.674 4.241,0.47 c 0.1,0.011 0.167,0.1 0.156,0.196 l -0.229,2.103 c -0.012,0.101 -0.101,0.168 -0.202,0.157 L -7.854,9.767 C -7.949,9.749 -7.999,9.666 -7.988,9.57 l 1.404,-12.613 c 0.011,-0.096 0.079,-0.168 0.179,-0.157 l 6.674,0.744 c 0.1,0.011 0.173,0.095 0.156,0.196 L 0.196,-0.157 C 0.184,-0.062 0.095,0.011 0,0"
           style="fill:#b28c64;fill-opacity:1;fill-rule:nonzero;stroke:none"
           id="path1072" />
      </g>
      <g
         id="g1074"
         transform="translate(498.3117,4887.5679)">
        <path
           d="M 0,0 C -0.856,0.179 -2.556,0.241 -2.763,1.102 -2.936,1.818 -2.03,2.199 -1.627,2.293 -0.861,2.479 -0.173,2.176 0.705,1.387 0.806,1.31 0.839,1.32 0.907,1.376 l 1.426,1.601 c 0.05,0.055 0.061,0.156 0.006,0.229 -1.215,1.516 -2.652,2.081 -4.308,1.689 -2.092,-0.504 -4.01,-2.244 -3.434,-4.648 0.229,-0.957 0.811,-1.673 1.767,-2.216 0.907,-0.475 1.902,-0.704 2.848,-0.839 0.816,-0.111 2.148,-0.319 2.36,-1.202 0.218,-0.923 -0.509,-1.444 -1.108,-1.583 -0.766,-0.185 -1.599,0.246 -2.03,0.772 -0.14,0.167 -0.252,0.302 -0.319,0.385 -0.078,0.084 -0.195,0.057 -0.257,-0.016 l -1.404,-1.942 c -0.045,-0.055 -0.051,-0.117 -0.022,-0.167 1.029,-1.645 3.121,-1.975 4.748,-1.588 1.539,0.368 2.529,1.157 2.982,2.382 0.414,1.097 0.24,2.232 0.101,2.808 C 3.787,-0.979 1.628,-0.341 0,0"
           style="fill:#b28c64;fill-opacity:1;fill-rule:nonzero;stroke:none"
           id="path1076" />
      </g>
      <g
         id="g1078"
         transform="translate(471.2221,4882.6401)">
        <path
           d="M 0,0 0.99,2.925 1.639,-0.111 Z M 2.545,7.552 0.1,7.72 C 0.022,7.725 -0.023,7.664 -0.05,7.607 L -4.302,-4.844 c -0.028,-0.117 0.045,-0.218 0.162,-0.229 l 2.266,-0.146 c 0.078,-0.005 0.123,0.028 0.145,0.106 l 0.935,2.708 2.88,-0.19 0.582,-2.809 c 0.017,-0.083 0.073,-0.122 0.134,-0.128 l 2.249,-0.151 c 0.117,-0.006 0.201,0.089 0.19,0.206 L 2.674,7.429 C 2.657,7.484 2.623,7.546 2.545,7.552"
           style="fill:#b28c64;fill-opacity:1;fill-rule:nonzero;stroke:none"
           id="path1080" />
      </g>
      <g
         id="g1082"
         transform="translate(541.8696,5001.2432)">
        <path
           d="m 0,0 -0.027,-0.515 c -0.605,-16.071 -5.264,-31.722 -13.297,-45.208 -1.717,2.645 -3.552,5.191 -5.476,7.568 -11.63,14.382 -27.532,24.736 -44.766,29.16 -0.285,0.073 -0.588,0.073 -0.878,0 -17.794,-4.564 -34.06,-15.382 -45.813,-30.474 -1.549,-1.991 -3.037,-4.084 -4.435,-6.248 -8.033,13.48 -12.692,29.126 -13.297,45.196 l -0.028,0.515 c -0.156,2.154 -0.24,4.279 -0.24,6.304 0,13.039 0.576,26.257 1.667,38.288 15.925,11.994 38.68,18.863 62.582,18.863 23.907,0 46.662,-6.869 62.582,-18.863 C -0.33,32.56 0.241,19.343 0.241,6.298 0.241,4.262 0.163,2.153 0,0 m -20.641,-56.261 c -11.343,-14.029 -26.726,-24.204 -43.367,-28.702 -16.636,4.492 -32.024,14.673 -43.368,28.702 -1.868,2.31 -3.613,4.732 -5.247,7.226 1.606,2.574 3.334,5.057 5.152,7.395 11.176,14.354 26.598,24.68 43.468,29.11 16.34,-4.296 31.403,-14.169 42.462,-27.845 2.182,-2.691 4.24,-5.611 6.142,-8.665 -1.634,-2.495 -3.367,-4.911 -5.242,-7.221 M 1.337,46.914 c -16.551,12.753 -40.369,20.064 -65.345,20.064 -24.976,0 -48.794,-7.311 -65.346,-20.064 -0.386,-0.297 -0.631,-0.744 -0.676,-1.231 -1.147,-12.345 -1.757,-25.966 -1.757,-39.385 0,-2.114 0.09,-4.324 0.252,-6.533 l 0.023,-0.448 c 0.794,-21.194 8.396,-41.723 21.395,-57.799 11.915,-14.734 28.131,-25.39 45.661,-30.01 0.146,-0.039 0.297,-0.062 0.448,-0.062 0.151,0 0.302,0.023 0.448,0.062 17.536,4.62 33.751,15.276 45.666,30.01 13,16.076 20.596,36.616 21.39,57.805 L 3.524,-0.23 C 3.687,1.98 3.77,4.178 3.77,6.298 3.77,19.729 3.166,33.343 2.02,45.683 1.975,46.17 1.729,46.617 1.337,46.914"
           style="fill:#b28c64;fill-opacity:1;fill-rule:nonzero;stroke:none"
           id="path1084" />
      </g>
      <g
         id="g1086"
         transform="translate(549.6453,5004.5708)">
        <path
           d="M 0,0 C 0,-22.877 -7.546,-45.168 -21.239,-62.755 -33.932,-79.05 -51.501,-90.74 -70.699,-95.663 l -1.04,-0.252 -0.895,0.241 c -18.627,4.782 -35.811,15.97 -48.368,31.504 -13.543,16.747 -21.458,38.126 -22.291,60.227 l -0.012,0.268 c -0.178,2.294 -0.257,4.581 -0.257,6.802 0,13.883 0.644,27.935 1.852,40.627 l 0.151,1.605 1.27,1.002 c 17.284,13.637 42.26,21.456 68.511,21.456 26.251,0 51.215,-7.819 68.5,-21.445 l 1.27,-0.996 0.15,-1.605 C -0.643,31.067 0,17.016 0,3.133 0,3.01 -0.022,1.802 -0.022,1.74 -0.011,1.175 0,0.593 0,0 m 1.655,44.101 -0.223,2.36 c -0.045,0.481 -0.285,0.918 -0.666,1.22 l -1.857,1.465 c -17.894,14.107 -43.658,22.202 -70.687,22.202 -27.029,0 -52.799,-8.1 -70.699,-22.218 l -1.857,-1.466 c -0.38,-0.297 -0.626,-0.738 -0.671,-1.214 l -0.224,-2.36 c -1.219,-12.804 -1.868,-26.967 -1.868,-40.963 0,-2.31 0.089,-4.688 0.269,-7.026 l 0.011,-0.206 c 0.861,-22.834 9.05,-44.951 23.068,-62.286 13.039,-16.121 30.883,-27.734 50.215,-32.689 l 1.303,-0.358 c 0.151,-0.04 0.307,-0.062 0.464,-0.062 0.14,0 0.28,0.017 0.414,0.05 l 1.51,0.364 c 19.969,5.118 38.222,17.251 51.389,34.166 14.175,18.202 21.978,41.259 21.978,64.92 0,0.61 -0.006,1.22 -0.017,1.746 0,0 0.017,1.264 0.017,1.381 0,13.996 -0.643,28.17 -1.869,40.974"
           style="fill:#b28c64;fill-opacity:1;fill-rule:nonzero;stroke:none"
           id="path1088" />
      </g>
      <g
         id="g1090"
         transform="translate(535.3364,5017.0669)">
        <path
           d="m 0,0 c -1.297,-14.846 -12.698,-26.676 -27.806,-30.788 -0.017,0.029 -0.033,0.046 -0.045,0.068 -2.377,4.044 -0.912,9.47 3.2,13.212 -5.913,0.285 -10.718,3.849 -11.305,8.631 1.281,-0.067 2.595,-0.056 3.932,0.062 10.902,0.928 19.444,7.937 20.697,16.344 -2.981,-2.936 -7.283,-4.603 -11.903,-4.2 -3.905,0.341 -7.311,2.103 -9.744,4.692 8.837,1.818 15.499,9.655 15.499,19.025 0,0.503 -0.022,1.007 -0.061,1.498 6.097,-4.983 9.66,-12.148 9.716,-19.94 0.056,-8.553 -4.29,-16.692 -11.629,-21.76 -0.643,-0.442 -0.8,-1.32 -0.358,-1.963 0.274,-0.397 0.716,-0.61 1.169,-0.61 0.274,0.005 0.554,0.084 0.789,0.252 8.116,5.599 12.916,14.61 12.849,24.103 -0.062,9.241 -4.565,17.687 -12.184,23.208 0.621,-0.218 1.499,-0.621 2.724,-1.275 C -3.586,24.887 1.046,11.993 0,0 m -7.809,-33.013 c 0.045,-1.539 0.196,-3.032 0.442,-4.481 -4.34,-0.006 -8.138,3.188 -10.035,7.904 4.537,2.495 8.536,5.672 11.864,9.381 -1.566,-3.81 -2.399,-8.184 -2.271,-12.804 m -39.525,33.97 c -4.922,0 -8.916,3.994 -8.916,8.917 0,4.922 3.994,8.916 8.916,8.916 4.923,0 8.917,-3.994 8.917,-8.916 0,-4.923 -3.994,-8.917 -8.917,-8.917 m -10.141,-18.599 c -4.922,0 -8.916,3.989 -8.916,8.916 0,4.923 3.994,8.916 8.916,8.916 4.928,0 8.917,-3.993 8.917,-8.916 0,-4.927 -3.989,-8.916 -8.917,-8.916 M -76.571,9.874 c 0,4.922 3.987,8.916 8.91,8.916 4.928,0 8.922,-3.994 8.922,-8.916 0,-4.923 -3.994,-8.917 -8.922,-8.917 -4.923,0 -8.91,3.994 -8.91,8.917 m -1.483,9.665 c -4.928,0 -8.916,3.994 -8.916,8.916 0,4.923 3.988,8.917 8.916,8.917 4.922,0 8.916,-3.994 8.916,-8.917 0,-4.922 -3.994,-8.916 -8.916,-8.916 m 20.579,18.465 c 4.928,0 8.917,-3.994 8.917,-8.916 0,-4.923 -3.989,-8.917 -8.917,-8.917 -4.922,0 -8.916,3.994 -8.916,8.917 0,4.922 3.994,8.916 8.916,8.916 m 20.585,-0.632 c 4.923,0 8.916,-3.994 8.916,-8.917 0,-4.922 -3.993,-8.916 -8.916,-8.916 -4.928,0 -8.922,3.994 -8.922,8.916 0,4.923 3.994,8.917 8.922,8.917 M -91.714,3.329 c -4.62,-0.403 -8.921,1.264 -11.903,4.2 1.247,-8.407 9.789,-15.416 20.697,-16.344 1.331,-0.118 2.646,-0.129 3.926,-0.062 -0.582,-4.782 -5.386,-8.346 -11.304,-8.631 4.111,-3.742 5.582,-9.168 3.204,-13.212 -0.016,-0.022 -0.027,-0.039 -0.044,-0.068 -15.109,4.112 -26.508,15.942 -27.806,30.788 -1.052,11.993 3.58,24.887 14.454,30.559 1.225,0.654 2.103,1.057 2.729,1.275 -7.623,-5.521 -12.121,-13.967 -12.182,-23.208 -0.067,-9.493 4.732,-18.504 12.843,-24.103 0.24,-0.168 0.514,-0.247 0.789,-0.252 0.453,0 0.9,0.213 1.174,0.61 0.442,0.643 0.28,1.521 -0.358,1.963 -7.345,5.068 -11.691,13.207 -11.629,21.76 0.055,7.792 3.619,14.957 9.716,19.94 -0.039,-0.491 -0.067,-0.995 -0.067,-1.498 0,-9.37 6.667,-17.207 15.5,-19.025 -2.428,-2.589 -5.84,-4.351 -9.739,-4.692 m -15.863,-40.823 c 0.24,1.449 0.397,2.942 0.441,4.481 0.129,4.62 -0.71,8.994 -2.271,12.804 3.329,-3.709 7.328,-6.886 11.859,-9.381 -1.89,-4.716 -5.694,-7.91 -10.029,-7.904 m 94.628,70.951 c -0.123,0.066 -3.804,2.057 -7.305,2.807 -0.655,0.14 -1.332,-0.1 -1.746,-0.621 -0.419,-0.525 -0.503,-1.236 -0.224,-1.846 0.985,-2.13 1.488,-4.402 1.488,-6.751 0,-8.318 -6.298,-15.204 -14.476,-16.048 -0.173,1.874 -0.772,3.675 -1.762,5.274 h 0.084 c 6.712,0 12.177,5.466 12.177,12.183 0,6.718 -5.465,12.178 -12.177,12.178 -4.078,0 -7.815,-1.992 -10.097,-5.359 -2.192,3.708 -6.17,5.997 -10.488,5.997 -4.318,0 -8.295,-2.289 -10.494,-5.997 -2.276,3.367 -6.013,5.359 -10.085,5.359 -6.718,0 -12.183,-5.46 -12.183,-12.178 0,-6.717 5.465,-12.183 12.183,-12.183 h 0.039 c -0.995,-1.599 -1.594,-3.4 -1.762,-5.269 -8.155,0.867 -14.432,7.742 -14.432,16.043 0,2.349 0.499,4.621 1.488,6.751 0.28,0.61 0.196,1.321 -0.223,1.846 -0.42,0.521 -1.097,0.761 -1.751,0.621 -3.496,-0.75 -7.177,-2.741 -7.305,-2.807 -11.126,-5.807 -17.486,-19.053 -16.2,-33.742 0.638,-7.288 5.538,-20.546 5.773,-21.161 1.438,-3.507 2.137,-7.479 2.025,-11.478 -0.034,-1.337 -0.168,-2.69 -0.392,-4.033 l -0.296,-1.745 c -0.084,-0.515 0.061,-1.035 0.391,-1.432 0.336,-0.397 0.828,-0.627 1.349,-0.627 h 1.778 c 5.37,0 10.203,3.525 12.76,9.258 2.181,-0.979 4.469,-1.795 6.818,-2.434 l 1.119,-0.301 c 0.772,-0.213 1.594,0.129 1.991,0.822 l 0.509,0.884 c 0.017,0.033 0.039,0.061 0.056,0.095 l 0.039,0.061 c 2.238,3.804 2.109,8.525 -0.235,12.776 4.856,1.868 8.201,5.739 8.766,10.332 l 0.212,1.778 c 0.067,0.515 -0.101,1.035 -0.459,1.416 -0.358,0.38 -0.861,0.593 -1.387,0.559 l -1.79,-0.101 c -1.146,-0.061 -2.332,-0.044 -3.468,0.051 -5.353,0.458 -10.242,2.623 -13.548,5.828 1.561,-0.263 3.166,-0.33 4.761,-0.19 4.547,0.397 8.748,2.428 11.836,5.717 0.016,0.017 0.034,0.039 0.05,0.056 l 0.285,0.33 c 1.55,-4.866 6.081,-8.413 11.434,-8.486 -1.203,-1.924 -1.829,-4.134 -1.829,-6.416 0,-6.717 5.459,-12.183 12.177,-12.183 6.718,0 12.177,5.466 12.177,12.183 0,2.282 -0.631,4.492 -1.828,6.422 5.347,0.089 9.867,3.647 11.405,8.513 l 0.313,-0.363 c 0.023,-0.017 0.034,-0.039 0.056,-0.056 3.082,-3.289 7.289,-5.32 11.836,-5.717 1.595,-0.14 3.2,-0.073 4.755,0.19 -3.306,-3.205 -8.189,-5.37 -13.542,-5.828 -1.142,-0.095 -2.327,-0.112 -3.474,-0.051 l -1.79,0.101 c -0.52,0.034 -1.024,-0.179 -1.382,-0.559 -0.358,-0.381 -0.526,-0.901 -0.464,-1.416 l 0.218,-1.778 c 0.56,-4.593 3.91,-8.464 8.765,-10.332 -2.343,-4.251 -2.472,-8.972 -0.24,-12.776 l 0.039,-0.061 c 0.017,-0.034 0.039,-0.062 0.062,-0.095 l 0.509,-0.884 c 0.397,-0.693 1.214,-1.035 1.991,-0.822 l 1.113,0.301 c 2.355,0.639 4.643,1.455 6.819,2.434 2.556,-5.733 7.389,-9.258 12.759,-9.258 h 0.006 1.773 c 0.52,0 1.012,0.23 1.348,0.627 0.335,0.397 0.475,0.917 0.392,1.432 l -0.291,1.745 c -0.224,1.343 -0.358,2.696 -0.397,4.033 -0.113,3.999 0.592,7.971 2.03,11.478 0.229,0.615 5.13,13.873 5.767,21.161 1.286,14.689 -5.073,27.935 -16.199,33.742"
           style="fill:#b28c64;fill-opacity:1;fill-rule:nonzero;stroke:none"
           id="path1092" />
      </g>
      <g
         id="g1094"
         transform="translate(592.045,5040.3818)">
        <path
           d="m 0,0 c 0,0.783 -0.637,1.41 -1.415,1.41 -11.624,0 -21.083,10.174 -21.083,22.671 0,10.219 6.4,19.214 15.556,21.882 0.75,0.219 1.18,1.001 0.963,1.751 -0.219,0.749 -1.002,1.18 -1.751,0.962 -10.354,-3.02 -17.587,-13.129 -17.587,-24.595 0,-14.057 10.723,-25.491 23.902,-25.491 C -0.637,-1.41 0,-0.778 0,0"
           style="fill:#b28c64;fill-opacity:1;fill-rule:nonzero;stroke:none"
           id="path1096" />
      </g>
      <g
         id="g1098"
         transform="translate(365.093,5038.9722)">
        <path
           d="M 0,0 C 13.179,0 23.896,11.434 23.896,25.491 23.896,36.957 16.669,47.065 6.31,50.085 5.572,50.304 4.777,49.873 4.565,49.124 4.341,48.374 4.777,47.591 5.527,47.373 14.678,44.705 21.077,35.709 21.077,25.491 21.077,12.994 11.624,2.819 0,2.819 -0.783,2.819 -1.41,2.193 -1.41,1.41 -1.41,0.632 -0.783,0 0,0"
           style="fill:#b28c64;fill-opacity:1;fill-rule:nonzero;stroke:none"
           id="path1100" />
      </g>
      <g
         id="g1102"
         transform="translate(586.0599,4899.2983)">
        <path
           d="m 0,0 c 0.117,-1.941 0.604,-4.476 0.906,-6.002 0.492,-2.529 0.313,-5.141 -1.203,-7.317 -2.779,-3.994 -8.541,-4.787 -12.865,-1.778 -1.337,0.933 -2.372,2.119 -3.088,3.434 -0.033,0.061 -0.078,0.112 -0.106,0.173 -0.045,0.09 -0.079,0.179 -0.123,0.263 0,0 0,0.006 -0.005,0.012 -1.002,2.075 -1.231,4.419 -0.56,6.561 0.638,0.66 1.421,1.225 2.322,1.644 3.613,1.673 7.78,0.359 9.302,-2.936 0.246,-0.52 0.397,-1.069 0.481,-1.616 -0.817,0.335 -1.774,0.531 -2.791,0.531 -3.021,0 -5.477,-1.684 -5.477,-3.754 0,-1.89 2.031,-3.557 4.688,-3.82 2.455,-0.168 4.804,0.738 6.231,2.674 2.366,3.222 1.275,8.049 -2.433,10.778 -1.818,1.337 -4.486,2.014 -6.584,1.914 -6.281,0 -8.983,-4.582 -10.656,-7.278 -0.52,-0.833 -2.92,-5.834 -7.92,-9.028 -5.617,-3.574 -12.407,-2.763 -15.232,1.32 0.067,0.034 0.129,0.067 0.196,0.101 0,0.006 -0.006,0.017 -0.006,0.022 4.022,2.092 6.673,3.888 8.436,5.225 1.471,1.107 2.539,2.299 2.556,2.321 h 0.005 c 1.678,1.795 2.109,4.173 0.912,5.594 -1.331,1.577 -4.167,1.37 -6.326,-0.459 -0.101,-0.084 -0.196,-0.167 -0.291,-0.246 -0.067,-0.067 -0.134,-0.129 -0.207,-0.196 -0.073,-0.067 -0.146,-0.134 -0.213,-0.207 0,-0.005 -0.011,-0.005 -0.011,-0.005 -17.771,-16.877 -41.762,-27.247 -68.131,-27.247 h -0.006 c -26.374,0 -50.365,10.37 -68.13,27.247 -0.006,0 -0.011,0 -0.017,0.005 -0.067,0.073 -0.14,0.14 -0.212,0.207 -0.068,0.067 -0.14,0.129 -0.208,0.196 -0.095,0.079 -0.184,0.162 -0.285,0.246 -2.165,1.829 -4.995,2.036 -6.327,0.459 -1.208,-1.421 -0.771,-3.799 0.907,-5.594 0.022,-0.022 1.096,-1.214 2.562,-2.321 1.762,-1.337 4.419,-3.133 8.435,-5.225 0,-0.005 -0.006,-0.016 -0.006,-0.022 0.067,-0.034 0.135,-0.067 0.202,-0.101 -2.831,-4.083 -9.627,-4.894 -15.232,-1.32 -5.011,3.194 -7.406,8.195 -7.932,9.028 -1.666,2.696 -4.374,7.278 -10.65,7.278 -2.103,0.1 -4.766,-0.577 -6.589,-1.914 -3.704,-2.729 -4.8,-7.556 -2.428,-10.778 1.421,-1.936 3.782,-2.842 6.231,-2.674 2.663,0.263 4.688,1.93 4.688,3.82 0,2.07 -2.45,3.754 -5.482,3.754 -1.018,0 -1.969,-0.196 -2.786,-0.531 0.09,0.547 0.235,1.096 0.482,1.616 1.521,3.295 5.683,4.609 9.296,2.936 0.906,-0.419 1.689,-0.984 2.327,-1.644 0.672,-2.142 0.436,-4.486 -0.559,-6.561 0,-0.006 -0.011,-0.012 -0.011,-0.012 -0.034,-0.084 -0.068,-0.173 -0.112,-0.263 -0.034,-0.061 -0.078,-0.112 -0.112,-0.173 -0.716,-1.315 -1.745,-2.501 -3.088,-3.434 -4.318,-3.009 -10.079,-2.216 -12.866,1.778 -1.509,2.176 -1.689,4.788 -1.196,7.317 0.29,1.526 0.783,4.061 0.906,6.002 0.324,5.336 -0.57,10.147 -2.204,13.218 2.629,-0.101 5.56,0.162 8.592,0.827 2.898,0.633 6.925,2.221 9.207,3.346 v -0.006 c 2.831,1.409 5.817,2.366 9.397,2.316 4.475,-0.056 8.29,-1.572 11.076,-3.854 0.537,-0.431 0.984,-0.912 1.381,-1.416 l -7.422,-6.304 c -0.671,-0.565 -0.75,-1.571 -0.179,-2.237 0.313,-0.369 0.76,-0.559 1.208,-0.559 0.369,0 0.727,0.123 1.029,0.375 l 17.609,14.901 c 0.017,0.017 0.034,0.028 0.05,0.039 l 0.051,0.045 0.005,-0.006 c 0.767,0.61 1.734,0.973 2.786,0.973 1.348,0 2.556,-0.593 3.384,-1.532 13.117,-13.822 31.66,-22.448 52.222,-22.448 h 0.006 c 20.557,0 39.1,8.626 52.217,22.448 0.828,0.939 2.036,1.532 3.384,1.532 1.057,0 2.02,-0.363 2.791,-0.973 v 0.006 l 0.051,-0.045 c 0.017,-0.011 0.033,-0.022 0.05,-0.039 L -32.091,5.706 c 0.297,-0.252 0.666,-0.375 1.029,-0.375 0.448,0 0.895,0.19 1.209,0.559 0.57,0.666 0.486,1.672 -0.18,2.237 l -7.422,6.304 c 0.402,0.504 0.85,0.985 1.376,1.416 2.785,2.282 6.6,3.798 11.081,3.854 3.574,0.05 6.567,-0.907 9.397,-2.316 v 0.006 c 2.277,-1.125 6.31,-2.713 9.213,-3.346 3.031,-0.665 5.963,-0.928 8.586,-0.827 C 0.565,10.147 -0.33,5.336 0,0 m 4.687,16.579 -2.606,-0.1 c -2.439,-0.095 -5.074,0.257 -7.776,0.755 -6.141,1.124 -11.701,5.89 -19.348,5.734 -4.877,-0.101 -9.571,-1.701 -13.106,-4.593 -0.632,-0.52 -1.22,-1.108 -1.74,-1.74 l -7.629,6.406 c -0.067,0.055 -0.135,0.1 -0.202,0.145 l -1.543,0.967 c -0.079,0.051 -0.157,0.09 -0.235,0.129 -0.974,0.42 -2.048,0.643 -3.094,0.643 -2.203,0 -4.323,-0.956 -5.783,-2.59 -13.112,-13.793 -30.81,-21.39 -49.824,-21.39 -19.012,0 -36.705,7.597 -49.822,21.39 -1.455,1.634 -3.574,2.59 -5.784,2.59 -3.065,0 -5.006,-1.829 -5.068,-1.884 l -7.635,-6.406 c -0.521,0.632 -1.102,1.22 -1.74,1.74 -3.541,2.892 -8.228,4.492 -13.106,4.593 -7.652,0.156 -13.201,-4.61 -19.354,-5.734 -2.696,-0.498 -5.325,-0.85 -7.764,-0.755 l -2.618,0.1 c -0.626,0.034 -1.219,-0.29 -1.555,-0.828 -0.335,-0.537 -0.358,-1.208 -0.067,-1.767 l 1.231,-2.304 c 1.42,-2.658 2.103,-6.953 1.823,-11.484 -0.1,-1.751 -0.593,-4.235 -0.85,-5.572 -0.727,-3.748 -0.134,-7.137 1.734,-9.811 2.181,-3.132 5.851,-5 9.822,-5 2.697,0 5.314,0.833 7.585,2.41 1.667,1.158 3.066,2.707 4.05,4.475 0.045,0.073 1.018,1.913 1.242,3.127 2.159,-3.468 4.788,-6.198 7.809,-8.122 2.853,-1.818 6.052,-2.78 9.257,-2.78 4.419,0 8.212,1.824 10.41,4.995 l 1.521,2.187 c 17.285,-12.227 37.64,-18.694 58.879,-18.694 h 0.006 c 21.239,0 41.589,6.467 58.879,18.694 l 1.516,-2.187 c 2.198,-3.171 5.996,-4.995 10.415,-4.995 3.2,0 6.405,0.962 9.253,2.78 3.02,1.924 5.643,4.654 7.814,8.122 0.212,-1.214 1.197,-3.054 1.241,-3.127 0.985,-1.768 2.383,-3.317 4.05,-4.475 2.265,-1.577 4.889,-2.41 7.586,-2.41 3.965,0 7.64,1.868 9.822,5 1.857,2.674 2.455,6.063 1.723,9.811 -0.257,1.337 -0.744,3.821 -0.851,5.572 -0.279,4.531 0.409,8.826 1.83,11.484 l 1.23,2.304 c 0.297,0.559 0.269,1.23 -0.061,1.767 -0.336,0.538 -0.929,0.862 -1.567,0.828"
           style="fill:#b28c64;fill-opacity:1;fill-rule:nonzero;stroke:none"
           id="path1104" />
      </g>
    </g>
  </g>
</svg>
